<svg xmlns="http://www.w3.org/2000/svg" width="970" height="90" viewBox="0 0 970 90">
  <g id="Logo-Monbarra" transform="translate(120.662)">
    <rect id="Rectangle_1553" data-name="Rectangle 1553" width="970" height="90" transform="translate(-120.662)" fill="#fff" opacity="0"/>
    <path id="Tracé_20533" data-name="Tracé 20533" d="M123.892,84.885H105.337V9.865h21.876L147.945,61.52,168.9,9.865h20.96L190.208,85h-18.44V40.675L155.389,85H140.271L123.663,40.1Z" fill="#458ece"/>
    <path id="Tracé_20534" data-name="Tracé 20534" d="M274.664,84.9h17.985V49.03s2.639-9.091,10.948-8.8,11.631,6.451,11.631,9.09V85H333.9V48.052S332.824,25.1,310.537,25.18a21.192,21.192,0,0,0-17.79,8.21V25.18H274.762Z" fill="#458ece"/>
    <path id="Tracé_20535" data-name="Tracé 20535" d="M378.579,23.987c-8.359.365-12.452,2.332-17.653,9V5H342.615V84.139h18.356V76.262s6.2,8.994,17.114,8.732,26.482-5.636,27.265-30.84S386.938,23.622,378.579,23.987Zm-4.955,44.906c-7.053,0-12.771-6.426-12.771-14.353s5.718-14.352,12.771-14.352,12.77,6.426,12.77,14.352S380.677,68.893,373.624,68.893Z" fill="#458ece"/>
    <path id="Tracé_20536" data-name="Tracé 20536" d="M451.553,24.185l.169,8.708c-.854-2.279-7.6-8.585-18.419-9.21S406.527,33.177,407,53.4,419.758,84.924,433.231,85s18.514-9.71,18.514-9.71v8.74h18.349V24.185Zm-12.6,45.272c-7.35,0-13.307-6.715-13.307-15s5.957-15,13.307-15,13.306,6.716,13.306,15S446.3,69.457,438.954,69.457Z" fill="#458ece"/>
    <path id="Tracé_20537" data-name="Tracé 20537" d="M604.121,24.185l.17,8.708c-.855-2.279-7.6-8.585-18.42-9.21S559.1,33.177,559.57,53.4,572.327,84.924,585.8,85s18.515-9.71,18.515-9.71v8.74h18.349V24.185Zm-12.6,45.272c-7.349,0-13.307-6.715-13.307-15s5.958-15,13.307-15,13.306,6.716,13.306,15S598.871,69.457,591.522,69.457Z" fill="#458ece"/>
    <path id="Tracé_20538" data-name="Tracé 20538" d="M497.8,35.527V25.538H479.419V85h18.093V55.787s-.282-9.423,10.366-11.308h8.387V24.973S505.8,24.03,497.8,35.527Z" fill="#458ece"/>
    <path id="Tracé_20539" data-name="Tracé 20539" d="M539.7,35.527V25.538H521.329V85h18.093V55.787s-.283-9.423,10.365-11.308h8.387V24.973S547.714,24.03,539.7,35.527Z" fill="#458ece"/>
    <ellipse id="Ellipse_251" data-name="Ellipse 251" cx="6.545" cy="6.824" rx="6.545" ry="6.824" transform="translate(227.225 56.499)" fill="#458ece"/>
    <path id="Rectangle_1551" data-name="Rectangle 1551" d="M6.663,0H20.8a6.663,6.663,0,0,1,6.663,6.663v4.882a.668.668,0,0,1-.668.668H.668A.668.668,0,0,1,0,11.545V6.663A6.663,6.663,0,0,1,6.663,0Z" transform="translate(219.614 72.581)" fill="#458ece"/>
    <path id="Tracé_20540" data-name="Tracé 20540" d="M211.154,81.718A2.491,2.491,0,0,1,209.3,80.9a32.355,32.355,0,1,1,48.422-.589,2.5,2.5,0,1,1-3.778-3.27,27.356,27.356,0,1,0-40.945.5,2.5,2.5,0,0,1-1.85,4.179Z" fill="#040405"/>
    <path id="Tracé_20541" data-name="Tracé 20541" d="M220.986,72.7a2.491,2.491,0,0,1-1.85-.819,18.9,18.9,0,1,1,28.294-.343,2.5,2.5,0,0,1-3.781-3.27,13.908,13.908,0,1,0-20.814.252,2.5,2.5,0,0,1-1.849,4.18Z" fill="#040405"/>
  </g>
</svg>
