<svg xmlns="http://www.w3.org/2000/svg" width="2855.453" height="471.652" viewBox="0 0 2855.453 471.652">
  <g id="Logo-Monbarra-Fond-Bleu-free" transform="translate(-330.253 -1006.952)">
    <path id="Tracé_20292" data-name="Tracé 20292" d="M370.12,1467.911c-25.037-1.97-39.69-16.937-39.742-40.881q-.274-127.983-.012-255.967c.029-18.674,9.576-32.6,25.233-38.229,16.815-6.041,36.728-1.324,46.85,12.776a38.788,38.788,0,0,0,3.087,3.436c59.822-33.219,115.762-31.384,168.2,16.418,2.471-2.026,5.432-4.539,8.482-6.939,39.582-31.139,84.166-39.514,131.913-25.586,42.4,12.369,67.077,43.056,77.434,85.253a160.076,160.076,0,0,1,4.553,36.56c.462,57.989.268,115.984.173,173.976-.029,17.87-9.636,31.665-25.194,36.981-16.623,5.679-34.581.906-45.418-12.045-6.793-8.117-8.834-17.718-8.833-27.974q0-41.995,0-83.989c0-26,.26-52-.145-77.988a115.829,115.829,0,0,0-3.183-26.671c-5.137-20.1-20.675-32.893-41.268-35.394-38.057-4.622-66.584,19.325-68.144,57.911-.78,19.3-.368,38.652-.391,57.98-.044,36.662.1,73.325-.052,109.986-.122,28.711-24.533,46.833-51.825,38.742a38.442,38.442,0,0,1-27.686-34.324c-.252-3.316-.158-6.661-.158-9.993-.009-52.993.213-105.988-.2-158.978a101.109,101.109,0,0,0-4.434-29.425c-5.88-18.51-19.619-28.956-38.756-31.682-38.4-5.469-66.529,17.015-70.14,55.847-.462,4.965-.421,9.987-.423,14.983-.028,51.327-.528,102.661.243,153.977C410.568,1446.05,397.019,1468.044,370.12,1467.911Z" fill="#fdfeff"/>
    <path id="Tracé_20293" data-name="Tracé 20293" d="M1663.886,1040.908c.14,43.9.207,86.894.307,129.892,0,.6.432,1.19,1.091,2.892,2.518-1.565,4.98-2.861,7.185-4.5,27.425-20.414,58.469-30.863,92.392-30.287,59.9,1.017,106.453,27.476,134.6,80.4,32.018,60.2,31.971,121.944-3.474,181.087-26.187,43.7-66.484,68.27-116.809,75.678-39.485,5.812-77-.5-111.858-20.58a43.6,43.6,0,0,0-4.8-2.019c-1.629,2.52-3.011,4.739-4.473,6.9a40.31,40.31,0,0,1-64.5,3.171c-5.572-6.713-7.883-14.563-8.486-23.044-.236-3.319-.213-6.66-.213-9.991q-.014-188,.024-375.994a108.465,108.465,0,0,1,.771-13.946c2.54-19.5,16.036-31.838,36.325-33.469,19.536-1.57,35.456,9.349,40.811,28.029a51.529,51.529,0,0,1,1.107,5.778m13.2,322.824c1.494,2.207,2.9,4.484,4.5,6.612,34.7,46.136,104.076,47.63,140.8,3.05,28.836-35,30.239-89.13,3.415-125.686-38.983-53.127-124.42-48.354-153.8,14.936C1656.4,1296.247,1658.3,1329.918,1677.082,1363.732Z" fill="#fdfeff"/>
    <path id="Tracé_20294" data-name="Tracé 20294" d="M2907.4,1442.569c-35.926-31.531-53.905-71.076-57.7-117.587-3.449-42.318,5.241-81.664,30.149-116.4,30.124-42.011,71.63-64.583,123.07-68.88,36.18-3.022,70.194,3.967,101.637,22.491a39.359,39.359,0,0,0,4.019,1.762c1.84-2.521,3.564-4.875,5.279-7.235,14.675-20.2,47.919-20.308,62.835-1.256a40.347,40.347,0,0,1,8.454,21.006,83.082,83.082,0,0,1,.529,8.963q.041,125.412.031,250.823c0,10.4-2.972,19.677-10.074,27.435-20.076,21.929-56.968,14.517-66.97-13.454-.774-2.164-1.4-4.382-2.256-7.1-66.421,45.466-132.539,49.287-199.006-.562m186.383-189.122c-1.1-1.663-2.174-3.35-3.316-4.987-33.919-48.646-107.535-49.158-143.145-3.7-26.834,34.256-28.913,85.666-4.48,121.546,38.8,56.973,124.612,51.689,155-10.145C3114.5,1322.269,3112.79,1287.966,3093.782,1253.448Z" fill="#fefeff"/>
    <path id="Tracé_20295" data-name="Tracé 20295" d="M2287.558,1461.436c-14.9,20.258-52.229,21.176-66.383-5.567-2.123-4.011-3.347-8.5-5.234-13.4-2.36,1.6-4.25,2.787-6.036,4.112-85.142,63.142-203.207,28.383-239.131-71.351-20.16-55.97-16.992-111.112,16.021-161.883,29.264-45,72.1-68.852,125.5-73.587,36.542-3.241,70.874,3.861,102.614,22.606a29.616,29.616,0,0,0,3.933,1.588c1.242-1.771,2.38-3.361,3.486-4.973,11.362-16.562,26.969-19.735,43.846-16.423,15.547,3.05,26.8,16.793,29.089,34.185a69.065,69.065,0,0,1,.415,8.97q.031,124.435.062,248.87c.009,9.611-1.773,18.518-8.185,26.855m-86.99-212.839c-33.042-47.867-105.291-49.655-141.892-5.517-29.059,35.042-30.649,89.707-3.506,126.333,39.962,53.923,123.133,47.167,152.594-13.146C2225.391,1320.178,2222.956,1284.113,2200.568,1248.6Z" fill="#fefeff"/>
    <path id="Tracé_20296" data-name="Tracé 20296" d="M1484.048,1161.967c37.219,25.206,56.014,60.691,61.741,103.675a284.7,284.7,0,0,1,2.133,35.866c.246,42.321.1,84.645.092,126.967,0,3.332.077,6.672-.115,9.995-1.227,21.235-16.214,36.55-36.774,37.66-22.314,1.2-38.755-12-42.021-33.988a96,96,0,0,1-.773-13.944c-.054-45.322.1-90.645-.153-135.965a113.571,113.571,0,0,0-2.678-24.742c-6.243-27.039-23.021-44.635-49.817-51.945-23.617-6.443-46.975-5.54-68.964,6.135-22.756,12.083-34.987,30.673-34.8,57.233.354,50.985.117,101.974.076,152.961a74.662,74.662,0,0,1-.65,12.948c-3.436,19.309-18.809,31.474-39.232,31.381-19.907-.09-35.445-13.055-38.486-32.327a77.129,77.129,0,0,1-.752-11.938q-.062-122.969-.031-245.938c0-1.333-.016-2.666.008-4,.375-20.066,10.569-34.859,27.876-39.139,16.825-4.161,36.72-.836,47.179,18.761.609,1.141,1.447,2.16,2.343,3.478C1367.445,1130.8,1425.114,1128.237,1484.048,1161.967Z" fill="#fdfeff"/>
    <path id="Tracé_20297" data-name="Tracé 20297" d="M2394.171,1470.482a47.754,47.754,0,0,1-35.627,3.49c-13.875-3.826-22.145-13.034-24.611-27.183a81.7,81.7,0,0,1-1.06-13.91q-.092-123.891-.045-247.781c0-.666,0-1.332,0-2,.274-29.806,17.159-44.761,46.738-41.26,12.8,1.515,22.581,7.51,28.006,19.645.656,1.468,1.477,2.862,2.772,5.346,3.368-2.223,6.29-4.187,9.247-6.1,35.273-22.774,73.49-27.887,113.972-18.712a59.044,59.044,0,0,1,27.268,13.985c13.93,12.779,15.167,33.165,2.958,47.625-7.806,9.245-18.086,11.933-29.676,10.619-12.557-1.424-25.063-3.424-37.651-4.41a100.045,100.045,0,0,0-38.5,4.322,102.382,102.382,0,0,0-20.917,9.221c-17.06,10.132-25.917,25.323-25.876,45.407.027,13.322,0,26.643,0,39.965q0,60.946-.03,121.892c-.005,4.316-.244,8.649-.678,12.944C2409.333,1454.8,2404.542,1463.934,2394.171,1470.482Z" fill="#fcfdff"/>
    <path id="Tracé_20298" data-name="Tracé 20298" d="M2656.7,1475.207c-7.117-.155-13.55.288-19.647-.938-15.846-3.186-25.543-14.436-27.084-30.419-.319-3.307-.282-6.656-.283-9.985q-.021-125.449,0-250.9c0-3.328,0-6.673.308-9.982.662-7.151,3.552-13.383,7.847-19.139,13.1-17.553,55.985-17.85,65.883,7,.719,1.806,1.8,3.467,3.154,6.016,3.678-2.435,6.9-4.646,10.191-6.735,35.143-22.279,73.155-27.513,113.148-17.763,8.788,2.142,17.442,6.815,24.866,12.128,12.908,9.238,16.616,24.127,11.28,38.266-5.792,15.345-17.388,22.843-34.311,21.511-8.279-.652-16.472-2.346-24.725-3.4-18.025-2.3-35.984-1.993-53.435,3.419a93.431,93.431,0,0,0-20.867,9.333c-16.908,10.33-25.47,25.5-25.393,45.691.2,53.644.078,107.289.045,160.934a92.28,92.28,0,0,1-.515,11.962C2684.637,1461.392,2676.533,1470.279,2656.7,1475.207Z" fill="#fefeff"/>
    <path id="Tracé_20299" data-name="Tracé 20299" d="M892.793,1441.13c-12.44-1.7-17.384-11.585-23.022-19.6-8.041-11.435-15.643-23.464-21.349-36.175s-10.818-25.772-12.353-40.25a364.932,364.932,0,0,1-1.917-44.348c.616-39.264,15.123-73.02,39.663-103.375,28.859-35.7,65.785-56.3,110.782-63.5,54.064-8.656,102.247,4.454,144.816,38.591,32.19,25.815,52.205,59.531,61.6,99.271,5.592,23.645,5.873,47.543,1.518,71.983-5.938,33.325-20.543,61.83-41.8,87.308a34.267,34.267,0,0,1-16.342,10.343c-6.593,1.817-12.757-2.565-17.221-7.686-6.22-7.136-6.659-18.528-1.361-26.676a90.319,90.319,0,0,1,6.215-7.811c60.187-73.264,31.647-190.529-67.035-219.628-90-26.54-157.736,33.195-173.7,94.616-12.091,46.523-3.278,89.025,27.419,126.554,2.51,3.068,5.24,6.2,6.767,9.78a20.2,20.2,0,0,1-7.955,25.238C903.243,1438.395,898.144,1439.7,892.793,1441.13Z" fill="#020304"/>
    <path id="Tracé_20300" data-name="Tracé 20300" d="M1066.493,1265.57c-18.21-18.892-39.567-26.049-64.853-21.791-28.585,4.814-52.507,30.159-55.77,59.005-2.163,19.127,2.412,36.155,13.83,51.646a33.123,33.123,0,0,1,6.058,13.351c1.581,9.057-4.4,18.161-12.811,21.487a21.434,21.434,0,0,1-25.146-6.645c-11.736-14.479-19.8-30.886-22.981-49.25-10.658-61.486,23.153-107.215,66.182-124.614,72.688-29.391,142.785,17.45,153.864,82.879,5.591,33.018-1.36,63.512-22.559,90.191-4.944,6.222-11.09,9.582-18.956,9.063-16.612-1.1-25.261-19.109-16.131-33.346,3.407-5.313,7.8-10.183,10.231-15.9C1088.975,1314.518,1086.251,1289.1,1066.493,1265.57Z" fill="#010203"/>
    <path id="Tracé_20301" data-name="Tracé 20301" d="M970.866,1394.926c37.823-11.408,73.564-7.063,108.871,7.736,19.356,8.113,28.84,21.515,27.977,42.379-.151,3.653.132,7.356-.359,10.958-1.464,10.747-7.642,16.48-18.52,17.475-2.312.211-4.655.107-6.984.108q-66.886.007-133.772-.03a52.453,52.453,0,0,1-10.89-.824c-9.017-1.937-14.414-8.3-15.1-17.427-.25-3.31.058-6.66-.128-9.978-1.2-21.432,8.6-35.56,28.457-43.015C956.946,1399.853,963.539,1397.558,970.866,1394.926Z" fill="#fdfdff"/>
    <path id="Tracé_20302" data-name="Tracé 20302" d="M1056.8,1289.426c8.722,19.864,8.165,38.455-5.118,55.177-12.612,15.877-37.159,20.968-56.535,12.793-18.981-8.008-29.984-26.917-28.133-48.352,1.855-21.492,15.094-37.334,35.183-42.1C1024.549,1261.64,1044.708,1269.749,1056.8,1289.426Z" fill="#fdfeff"/>
  </g>
</svg>
