<svg xmlns="http://www.w3.org/2000/svg" width="90" height="80.691" viewBox="0 0 90 80.691">
  <g id="Logo-Monbarra-SmallScreen" transform="translate(-200.898 -27.101)">
    <path id="Rectangle_1552" data-name="Rectangle 1552" d="M6.663,0H31.541A6.663,6.663,0,0,1,38.2,6.663v9.724a.668.668,0,0,1-.668.668H.668A.668.668,0,0,1,0,16.387V6.663A6.663,6.663,0,0,1,6.663,0Z" transform="translate(226.927 90.737)" fill="#458ece"/>
    <ellipse id="Ellipse_252" data-name="Ellipse 252" cx="9.103" cy="9.53" rx="9.103" ry="9.53" transform="translate(237.514 68.279)" fill="#458ece"/>
    <path id="Tracé_20542" data-name="Tracé 20542" d="M223.629,85.562a3.458,3.458,0,0,1-2.573-1.144,26.3,26.3,0,1,1,39.353-.479,3.483,3.483,0,0,1-5.259-4.567,19.344,19.344,0,1,0-28.949.352,3.5,3.5,0,0,1-.235,4.93A3.454,3.454,0,0,1,223.629,85.562Z" transform="translate(5.207 5.343)" fill="#040405"/>
    <path id="Tracé_20543" data-name="Tracé 20543" d="M215.161,103.5a3.458,3.458,0,0,1-2.572-1.142,45,45,0,1,1,67.348-.823,3.481,3.481,0,1,1-5.255-4.567,38.047,38.047,0,1,0-56.949.7,3.5,3.5,0,0,1-.235,4.93,3.46,3.46,0,0,1-2.337.9Z" fill="#040405"/>
  </g>
</svg>
