<svg width="24" height="24" viewBox="0 0 24 24" fill="none" xmlns="http://www.w3.org/2000/svg">
<mask id="mask0_688_8276" style="mask-type:luminance" maskUnits="userSpaceOnUse" x="3" y="2" width="18" height="20">
<path fill-rule="evenodd" clip-rule="evenodd" d="M3 2.01172H20.0527V21.8652H3V2.01172Z" fill="white"/>
</mask>
<g mask="url(#mask0_688_8276)">
<path fill-rule="evenodd" clip-rule="evenodd" d="M7.57274 3.51172C5.91574 3.51172 4.53974 4.85372 4.50074 6.50872V17.2037C4.46374 18.9167 5.81374 20.3277 7.50974 20.3657H15.5737C17.2427 20.2967 18.5647 18.9097 18.5527 17.2097V8.33972L13.9177 3.51172H7.58474H7.57274ZM7.5851 21.8657H7.4761C4.9541 21.8087 2.9461 19.7107 3.0011 17.1877V6.49072C3.0591 4.00972 5.1081 2.01172 7.5711 2.01172H7.5881H14.2381C14.4421 2.01172 14.6371 2.09472 14.7791 2.24172L19.8441 7.51872C19.9781 7.65772 20.0531 7.84472 20.0531 8.03772V17.2037C20.0711 19.7127 18.1171 21.7627 15.6041 21.8647L7.5851 21.8657Z" fill="black"/>
</g>
<path fill-rule="evenodd" clip-rule="evenodd" d="M19.2986 8.984H16.5436C14.7136 8.979 13.2256 7.487 13.2256 5.659V2.75C13.2256 2.336 13.5616 2 13.9756 2C14.3896 2 14.7256 2.336 14.7256 2.75V5.659C14.7256 6.663 15.5426 7.481 16.5456 7.484H19.2986C19.7126 7.484 20.0486 7.82 20.0486 8.234C20.0486 8.648 19.7126 8.984 19.2986 8.984Z" fill="black"/>
<path fill-rule="evenodd" clip-rule="evenodd" d="M13.7887 16.1094H8.38867C7.97467 16.1094 7.63867 15.7734 7.63867 15.3594C7.63867 14.9454 7.97467 14.6094 8.38867 14.6094H13.7887C14.2027 14.6094 14.5387 14.9454 14.5387 15.3594C14.5387 15.7734 14.2027 16.1094 13.7887 16.1094Z" fill="black"/>
<path fill-rule="evenodd" clip-rule="evenodd" d="M11.7437 12.3555H8.3877C7.9737 12.3555 7.6377 12.0195 7.6377 11.6055C7.6377 11.1915 7.9737 10.8555 8.3877 10.8555H11.7437C12.1577 10.8555 12.4937 11.1915 12.4937 11.6055C12.4937 12.0195 12.1577 12.3555 11.7437 12.3555Z" fill="black"/>
</svg>
