<svg width="24" height="24" viewBox="0 0 24 24" fill="none" xmlns="http://www.w3.org/2000/svg">
<path d="M18.1401 21.6207C17.2601 21.8807 16.2201 22.0007 15.0001 22.0007H9.00011C7.78011 22.0007 6.74011 21.8807 5.86011 21.6207C6.08011 19.0207 8.75011 16.9707 12.0001 16.9707C15.2501 16.9707 17.9201 19.0207 18.1401 21.6207Z" stroke="#130F26" stroke-width="1.5" stroke-linecap="round" stroke-linejoin="round"/>
<path d="M15 2H9C4 2 2 4 2 9V15C2 18.78 3.14 20.85 5.86 21.62C6.08 19.02 8.75 16.97 12 16.97C15.25 16.97 17.92 19.02 18.14 21.62C20.86 20.85 22 18.78 22 15V9C22 4 20 2 15 2ZM12 14.17C10.02 14.17 8.42 12.56 8.42 10.58C8.42 8.60002 10.02 7 12 7C13.98 7 15.58 8.60002 15.58 10.58C15.58 12.56 13.98 14.17 12 14.17Z" stroke="#130F26" stroke-width="1.5" stroke-linecap="round" stroke-linejoin="round"/>
<path d="M15.5819 10.58C15.5819 12.56 13.9819 14.17 12.0019 14.17C10.0219 14.17 8.42188 12.56 8.42188 10.58C8.42188 8.60002 10.0219 7 12.0019 7C13.9819 7 15.5819 8.60002 15.5819 10.58Z" stroke="#130F26" stroke-width="1.5" stroke-linecap="round" stroke-linejoin="round"/>
</svg>
