<svg width="158" height="146" viewBox="0 0 158 146" fill="none" xmlns="http://www.w3.org/2000/svg">
<path d="M93.17 106.643L94.24 106.743C102.138 107.459 109.486 111.094 114.848 116.937C120.211 122.78 123.203 130.412 123.24 138.343C123.243 140.686 122.784 143.007 121.89 145.173C136.177 135.908 147.086 122.272 152.987 106.299C158.889 90.3264 159.468 72.8735 154.637 56.5449C149.806 40.2163 139.824 25.8875 126.182 15.6968C112.54 5.50618 95.9682 0 78.94 0C61.9118 0 45.34 5.50618 31.6978 15.6968C18.0556 25.8875 8.07424 40.2163 3.24337 56.5449C-1.58751 72.8735 -1.00893 90.3264 4.89275 106.299C10.7944 122.272 21.7028 135.908 35.99 145.173C35.0961 143.007 34.6374 140.686 34.64 138.343C34.6772 130.412 37.6692 122.78 43.0315 116.937C48.3939 111.094 55.7417 107.459 63.64 106.743L64.7 106.653L65.62 107.193C69.653 109.538 74.2349 110.773 78.9 110.773C83.5651 110.773 88.1471 109.538 92.18 107.193L93.17 106.643ZM36.58 122.193C27.9641 113.765 22.0545 102.962 19.6054 91.1606C17.1563 79.3596 18.2787 67.0965 22.8295 55.9361C27.3802 44.7758 35.1529 35.2244 45.1556 28.5008C55.1584 21.7772 66.9375 18.1863 78.99 18.1863C91.0425 18.1863 102.822 21.7772 112.824 28.5008C122.827 35.2244 130.6 44.7758 135.151 55.9361C139.701 67.0965 140.824 79.3596 138.375 91.1606C135.926 102.962 130.016 113.765 121.4 122.193C120.92 121.353 120.4 120.533 119.85 119.733C127.935 111.652 133.441 101.355 135.673 90.144C137.905 78.9332 136.762 67.3123 132.388 56.7511C128.015 46.1899 120.608 37.1629 111.104 30.8118C101.6 24.4606 90.4258 21.0707 78.995 21.0707C67.5642 21.0707 56.3901 24.4606 46.8861 30.8118C37.382 37.1629 29.9749 46.1899 25.6017 56.7511C21.2284 67.3123 20.0854 78.9332 22.3172 90.144C24.5491 101.355 30.0555 111.652 38.14 119.733C37.59 120.523 37.08 121.333 36.6 122.173M51 108.623C50.7368 108.759 50.4372 108.808 50.1443 108.764C49.8514 108.719 49.5803 108.582 49.37 108.373C43.5383 102.514 39.573 95.0583 37.9746 86.9476C36.3762 78.8368 37.2162 70.4343 40.3888 62.8005C43.5613 55.1668 48.9242 48.6439 55.8005 44.0552C62.6767 39.4664 70.7582 37.0175 79.025 37.0175C87.2918 37.0175 95.3733 39.4664 102.25 44.0552C109.126 48.6439 114.489 55.1668 117.661 62.8005C120.834 70.4343 121.674 78.8368 120.075 86.9476C118.477 95.0583 114.512 102.514 108.68 108.373C108.466 108.58 108.193 108.714 107.899 108.757C107.604 108.8 107.304 108.75 107.04 108.613C106.843 108.516 106.671 108.374 106.54 108.198C106.408 108.022 106.32 107.817 106.283 107.6C106.246 107.383 106.261 107.161 106.326 106.951C106.392 106.741 106.506 106.55 106.66 106.393C112.104 100.935 115.807 93.9853 117.303 86.4229C118.8 78.8606 118.021 71.0245 115.066 63.9044C112.111 56.7843 107.112 50.6997 100.701 46.4191C94.2899 42.1384 86.7539 39.8538 79.045 39.8538C71.3361 39.8538 63.8001 42.1384 57.3889 46.4191C50.9777 50.6997 45.9789 56.7843 43.024 63.9044C40.069 71.0245 39.2904 78.8606 40.7866 86.4229C42.2827 93.9853 45.9865 100.935 51.43 106.393C51.5838 106.55 51.6982 106.741 51.7637 106.951C51.8292 107.161 51.8441 107.383 51.807 107.6C51.7699 107.817 51.6819 108.022 51.5503 108.198C51.4188 108.374 51.2473 108.516 51.05 108.613M56.7 78.6131C57.2473 74.4429 58.9509 70.5092 61.6181 67.2571C64.2853 64.0051 67.8096 61.5646 71.792 60.2118C75.7745 58.859 80.0561 58.648 84.1522 59.6026C88.2484 60.5573 91.9955 62.6395 94.9696 65.6135C97.9436 68.5875 100.026 72.3347 100.98 76.4309C101.935 80.527 101.724 84.8086 100.371 88.7911C99.0185 92.7735 96.578 96.2978 93.326 98.965C90.0739 101.632 86.1402 103.336 81.97 103.883C78.5467 104.324 75.0678 103.975 71.8009 102.861C68.534 101.747 65.5661 99.8983 63.1254 97.4576C60.6848 95.017 58.8364 92.0491 57.7225 88.7822C56.6086 85.5152 56.2588 82.0364 56.7 78.6131Z" fill="#283476"/>
</svg>
