<svg width="21" height="20" viewBox="0 0 21 20" fill="none" xmlns="http://www.w3.org/2000/svg">
<path fill-rule="evenodd" clip-rule="evenodd" d="M10.7092 7.08398C9.90502 7.08398 9.25085 7.73815 9.25085 8.54315C9.25085 9.34732 9.90502 10.0007 10.7092 10.0007C11.5134 10.0007 12.1675 9.34732 12.1675 8.54315C12.1675 7.73815 11.5134 7.08398 10.7092 7.08398ZM10.7092 11.2507C9.21585 11.2507 8.00085 10.0365 8.00085 8.54315C8.00085 7.04898 9.21585 5.83398 10.7092 5.83398C12.2025 5.83398 13.4175 7.04898 13.4175 8.54315C13.4175 10.0365 12.2025 11.2507 10.7092 11.2507Z" fill="#807F7E"/>
<mask id="mask0_2567_8516" style="mask-type:luminance" maskUnits="userSpaceOnUse" x="3" y="1" width="15" height="17">
<path fill-rule="evenodd" clip-rule="evenodd" d="M3.83337 1.66602H17.583V17.916H3.83337V1.66602Z" fill="white"/>
</mask>
<g mask="url(#mask0_2567_8516)">
<path fill-rule="evenodd" clip-rule="evenodd" d="M10.7075 2.91602C7.60585 2.91602 5.08252 5.46352 5.08252 8.59352C5.08252 12.576 9.76919 16.456 10.7075 16.6627C11.6459 16.4552 16.3325 12.5752 16.3325 8.59352C16.3325 5.46352 13.8092 2.91602 10.7075 2.91602ZM10.7075 17.916C9.21252 17.916 3.83252 13.2893 3.83252 8.59352C3.83252 4.77352 6.91669 1.66602 10.7075 1.66602C14.4984 1.66602 17.5825 4.77352 17.5825 8.59352C17.5825 13.2893 12.2025 17.916 10.7075 17.916Z" fill="#807F7E"/>
</g>
</svg>
