<svg width="20" height="20" viewBox="0 0 20 20" fill="none" xmlns="http://www.w3.org/2000/svg">
<mask id="mask0_2567_2315" style="mask-type:luminance" maskUnits="userSpaceOnUse" x="1" y="1" width="17" height="17">
<path fill-rule="evenodd" clip-rule="evenodd" d="M1.66748 1.66699H17.8981V17.8978H1.66748V1.66699Z" fill="white"/>
</mask>
<g mask="url(#mask0_2567_2315)">
<path fill-rule="evenodd" clip-rule="evenodd" d="M9.78331 2.91699C5.99748 2.91699 2.91748 5.99616 2.91748 9.78199C2.91748 13.5678 5.99748 16.6478 9.78331 16.6478C13.5683 16.6478 16.6483 13.5678 16.6483 9.78199C16.6483 5.99616 13.5683 2.91699 9.78331 2.91699ZM9.78331 17.8978C5.30831 17.8978 1.66748 14.257 1.66748 9.78199C1.66748 5.30699 5.30831 1.66699 9.78331 1.66699C14.2583 1.66699 17.8983 5.30699 17.8983 9.78199C17.8983 14.257 14.2583 17.8978 9.78331 17.8978Z" fill="#807F7E"/>
</g>
<mask id="mask1_2567_2315" style="mask-type:luminance" maskUnits="userSpaceOnUse" x="14" y="14" width="5" height="5">
<path fill-rule="evenodd" clip-rule="evenodd" d="M14.3677 14.7559H18.5544V18.9348H14.3677V14.7559Z" fill="white"/>
</mask>
<g mask="url(#mask1_2567_2315)">
<path fill-rule="evenodd" clip-rule="evenodd" d="M17.9296 18.9348C17.7704 18.9348 17.6104 18.874 17.4879 18.7523L14.5512 15.824C14.3071 15.5798 14.3062 15.184 14.5504 14.9398C14.7937 14.694 15.1896 14.6957 15.4346 14.9382L18.3712 17.8673C18.6154 18.1115 18.6162 18.5065 18.3721 18.7507C18.2504 18.874 18.0896 18.9348 17.9296 18.9348Z" fill="#807F7E"/>
</g>
</svg>
