<?xml version="1.0" encoding="utf-8"?>
<!-- Generator: Adobe Illustrator 25.4.1, SVG Export Plug-In . SVG Version: 6.00 Build 0)  -->
<svg version="1.1" id="Calque_1" xmlns="http://www.w3.org/2000/svg" xmlns:xlink="http://www.w3.org/1999/xlink" x="0px" y="0px"
	 viewBox="0 0 24 24" style="enable-background:new 0 0 24 24;" xml:space="preserve">
<style type="text/css">
	.st0{fill:#FFFFFF;fill-opacity:0;}
</style>
<g id="stroke-info2" transform="translate(3649 720)">
	<path d="M-3632.7-698h-8.7c-3.4,0-5.7-2.4-5.7-5.9v-8.2c0-3.5,2.3-5.9,5.7-5.9h8.7c3.4,0,5.7,2.4,5.7,5.9v8.2
		C-3627-700.4-3629.3-698-3632.7-698z M-3641.3-716.5c-2.5,0-4.2,1.7-4.2,4.4v8.2c0,2.7,1.6,4.4,4.2,4.4h8.7c2.5,0,4.2-1.7,4.2-4.4
		v-8.2c0-2.7-1.6-4.4-4.2-4.4H-3641.3z"/>
	<path d="M-3637-703.2c-0.4,0-0.8-0.3-0.8-0.8v-4c0-0.4,0.3-0.8,0.8-0.8s0.8,0.3,0.8,0.8v4C-3636.3-703.6-3636.6-703.2-3637-703.2z"
		/>
	<path d="M-3637-710.8c-0.6,0-1-0.4-1-1s0.4-1,1-1h0c0.6,0,1,0.4,1,1S-3636.4-710.8-3637-710.8z"/>
	<rect id="Rectangle_1539" x="-3649" y="-720" class="st0" width="24" height="24"/>
</g>
</svg>
