<?xml version="1.0" encoding="utf-8"?>
<!-- Generator: Adobe Illustrator 25.4.1, SVG Export Plug-In . SVG Version: 6.00 Build 0)  -->
<svg version="1.1" id="Calque_1" xmlns="http://www.w3.org/2000/svg" xmlns:xlink="http://www.w3.org/1999/xlink" x="0px" y="0px"
	 viewBox="0 0 24 24" style="enable-background:new 0 0 24 24;" xml:space="preserve">
<style type="text/css">
	.st0{fill:#FFFFFF;fill-opacity:0;}
</style>
<g id="stroke-profile" transform="translate(3193 796)">
	<rect id="Rectangle_1530" x="-3193" y="-796" class="st0" width="24" height="24"/>
	<path d="M-3181.4-773.5c-0.5,0-1,0-1.4,0c-0.3,0-0.6,0-0.9-0.1c-0.7,0-1.6-0.2-2.4-0.3c-1.7-0.3-2.9-1-3.3-2
		c-0.2-0.4-0.3-0.9-0.3-1.3l0,0c0-0.4,0.1-0.9,0.3-1.3c0,0,0-0.1,0.1-0.1c0.8-1.1,2-1.8,3.3-1.9c0.7-0.2,1.6-0.3,2.4-0.3
		c1.5-0.1,3-0.1,4.5,0c0.8,0.1,1.6,0.2,2.4,0.3c1.7,0.4,2.9,1,3.3,2c0.4,0.8,0.4,1.8,0,2.6c-0.5,1-1.6,1.7-3.4,2
		c-0.8,0.2-1.6,0.3-2.4,0.4C-3179.9-773.6-3180.7-773.5-3181.4-773.5z M-3182.8-775.1c1.2,0.1,2.4,0,3.5-0.1
		c0.8-0.1,1.5-0.2,2.2-0.3c1.2-0.2,2.1-0.7,2.3-1.2c0.2-0.4,0.2-0.9,0-1.3c-0.3-0.5-1-1-2.3-1.2c-0.7-0.2-1.5-0.3-2.2-0.3
		c-1.4-0.1-2.9-0.1-4.3,0c-0.8,0.1-1.5,0.2-2.3,0.3c-1,0.1-1.8,0.6-2.3,1.3c-0.1,0.2-0.1,0.4-0.1,0.6c0,0,0,0,0,0
		c0,0.2,0.1,0.5,0.1,0.7c0.3,0.5,1.1,1,2.3,1.2c0.8,0.2,1.5,0.3,2.2,0.3C-3183.3-775.1-3183-775.1-3182.8-775.1z"/>
	<path d="M-3181.4-783.2c-3,0-5.5-2.5-5.5-5.5c0-3,2.5-5.5,5.5-5.5c3,0,5.5,2.5,5.5,5.5C-3175.9-785.7-3178.4-783.2-3181.4-783.2z
		 M-3181.4-792.8c-2.2,0-4,1.8-4,4s1.8,4,4,4c2.2,0,4-1.8,4-4S-3179.2-792.8-3181.4-792.8z"/>
</g>
</svg>
