<?xml version="1.0" encoding="utf-8"?>
<!-- Generator: Adobe Illustrator 25.4.1, SVG Export Plug-In . SVG Version: 6.00 Build 0)  -->
<svg version="1.1" id="Calque_1" xmlns="http://www.w3.org/2000/svg" xmlns:xlink="http://www.w3.org/1999/xlink" x="0px" y="0px"
	 viewBox="0 0 24 24" style="enable-background:new 0 0 24 24;" xml:space="preserve">
<style type="text/css">
	.st0{fill:#FFFFFF;fill-opacity:0;}
</style>
<g id="stroke-work" transform="translate(3725 720)">
	<rect id="Rectangle_1538" x="-3725" y="-720" class="st0" width="24" height="24"/>
	<g>
		<path d="M-3706.8-715.4h-2c-0.2-1.5-1.4-2.6-2.9-2.6h-2.6c-1.5,0-2.7,1.1-2.9,2.6h-2c0,0,0,0,0,0c-1,0-2,0.4-2.7,1.1
			c-0.7,0.7-1.1,1.7-1.1,2.7v3.5c0,0.3,0.2,0.5,0.4,0.7c2.8,1.5,5.8,2.3,8.8,2.4v1.8c0,0.4,0.3,0.8,0.8,0.8s0.8-0.3,0.8-0.8v-1.8
			c3-0.1,6.1-0.9,8.8-2.4c0.2-0.1,0.4-0.4,0.4-0.7v-3.4C-3703-713.7-3704.7-715.4-3706.8-715.4z M-3714.3-716.5h2.6
			c0.7,0,1.2,0.5,1.4,1.1h-5.4C-3715.5-716-3715-716.5-3714.3-716.5z M-3704.5-708.6c-2.7,1.3-5.6,2-8.5,2c0,0,0,0,0,0s0,0,0,0
			c-2.9,0-5.8-0.7-8.5-2v-3c0-0.6,0.2-1.2,0.7-1.6c0.4-0.4,1-0.7,1.6-0.7h0h12.4c1.3,0,2.3,1,2.3,2.3V-708.6z"/>
		<path d="M-3703.7-705.3c-0.4,0-0.8,0.3-0.8,0.7l-0.2,2.5c-0.1,1.3-1.2,2.3-2.5,2.3h-11.6c-1.3,0-2.4-1-2.5-2.3l-0.2-2.5
			c0-0.4-0.4-0.7-0.8-0.7c-0.4,0-0.7,0.4-0.7,0.8l0.2,2.5c0.2,2.1,1.9,3.7,4,3.7h11.6c2.1,0,3.8-1.6,4-3.7l0.2-2.5
			C-3703-704.9-3703.3-705.2-3703.7-705.3z"/>
	</g>
</g>
</svg>
