<?xml version="1.0" encoding="utf-8"?>
<!-- Generator: Adobe Illustrator 25.4.1, SVG Export Plug-In . SVG Version: 6.00 Build 0)  -->
<svg version="1.1" id="Calque_1" xmlns="http://www.w3.org/2000/svg" xmlns:xlink="http://www.w3.org/1999/xlink" x="0px" y="0px"
	 viewBox="0 0 24 24" style="enable-background:new 0 0 24 24;" xml:space="preserve">
<style type="text/css">
	.st0{fill:#FFFFFF;fill-opacity:0;}
</style>
<g id="stroke-logout" transform="translate(3573 720)">
	<rect id="Rectangle_1540" x="-3573" y="-720" class="st0" width="24" height="24"/>
	<g>
		<path d="M-3558-704.1c-0.4,0-0.8,0.3-0.8,0.8v0.9c0,1.6-1.3,2.9-2.9,2.9h-4.9c-1.6,0-2.9-1.3-2.9-2.9v-11.1c0-1.6,1.3-2.9,2.9-2.9
			h4.9c1.6,0,2.9,1.3,2.9,2.9v0.9c0,0.4,0.3,0.8,0.8,0.8s0.8-0.3,0.8-0.8v-0.9c0-2.4-2-4.4-4.4-4.4h-4.9c-2.4,0-4.4,2-4.4,4.4v11.1
			c0,2.4,2,4.4,4.4,4.4h4.9c2.4,0,4.4-2,4.4-4.4v-0.9C-3557.2-703.8-3557.6-704.1-3558-704.1z"/>
		<path d="M-3550.5-707.7c0-0.1,0.1-0.2,0.1-0.3c0-0.1,0-0.2-0.1-0.3c0-0.1-0.1-0.2-0.2-0.2c0,0,0,0,0,0l-2.9-2.9
			c-0.3-0.3-0.8-0.3-1.1,0c-0.3,0.3-0.3,0.8,0,1.1l1.6,1.6h-10.2c-0.4,0-0.8,0.3-0.8,0.8s0.3,0.8,0.8,0.8h10.2l-1.6,1.6
			c-0.3,0.3-0.3,0.8,0,1.1c0.1,0.1,0.3,0.2,0.5,0.2c0.2,0,0.4-0.1,0.5-0.2l2.9-2.9c0,0,0,0,0,0
			C-3550.6-707.5-3550.5-707.6-3550.5-707.7z"/>
	</g>
</g>
</svg>
