<svg width="20" height="20" viewBox="0 0 20 20" fill="none" xmlns="http://www.w3.org/2000/svg">
<path d="M18.6667 0.000244141H1.33333C0.596954 0.000244141 0 0.597198 0 1.33358V18.6669C0 19.4033 0.596954 20.0002 1.33333 20.0002H18.6667C19.403 20.0002 20 19.4033 20 18.6669V1.33358C20 0.597198 19.403 0.000244141 18.6667 0.000244141Z" fill="black"/>
<path d="M3.44432 13.5674C3.55208 13.5647 3.65927 13.5839 3.75937 13.624C3.85946 13.664 3.95038 13.7239 4.02658 13.8002C4.13997 13.9128 4.21732 14.0565 4.24879 14.2132C4.28025 14.3698 4.26442 14.5323 4.2033 14.6799C4.14218 14.8275 4.03853 14.9536 3.90554 15.0422C3.77255 15.1308 3.61623 15.1778 3.45645 15.1773C3.3497 15.1796 3.2436 15.1601 3.14465 15.1199C3.0457 15.0798 2.95598 15.0199 2.88098 14.9439C2.80532 14.8709 2.74547 14.7831 2.70514 14.686C2.66482 14.5889 2.64489 14.4845 2.64658 14.3794C2.64553 14.2359 2.68233 14.0947 2.75325 13.9701C2.82215 13.8476 2.92247 13.7458 3.04386 13.6751C3.16525 13.6044 3.30331 13.5674 3.44378 13.5679L3.44432 13.5674ZM3.45112 13.7163C3.33738 13.7175 3.22591 13.7483 3.12771 13.8057C3.02951 13.8631 2.94796 13.9451 2.89112 14.0437C2.83354 14.1457 2.80401 14.2612 2.80552 14.3783C2.80485 14.4635 2.82107 14.548 2.85325 14.6268C2.88542 14.7057 2.93291 14.7774 2.99297 14.8378C3.05303 14.8982 3.12447 14.9461 3.20316 14.9787C3.28184 15.0113 3.36621 15.028 3.45138 15.0278C3.56712 15.0286 3.681 14.9988 3.78152 14.9414C3.88067 14.8856 3.96262 14.8037 4.01845 14.7046C4.07552 14.6029 4.10481 14.4879 4.10338 14.3713C4.10498 14.2557 4.07565 14.1418 4.01845 14.0414C3.96114 13.9425 3.87823 13.861 3.77845 13.8053C3.67917 13.7471 3.56619 13.7164 3.45112 13.7163Z" fill="#888888"/>
<path d="M4.48975 14.0048H4.63868V14.1704C4.67551 14.1128 4.72331 14.0629 4.77935 14.0237C4.82477 13.9928 4.87838 13.976 4.93335 13.9756C4.979 13.9772 5.02349 13.9904 5.06255 14.0141L4.98641 14.1371C4.96226 14.1255 4.93608 14.1188 4.90935 14.1173C4.85665 14.119 4.8065 14.1403 4.76881 14.1772C4.71736 14.2281 4.68155 14.2926 4.66561 14.3632C4.6423 14.4923 4.63336 14.6237 4.63895 14.7548V15.1381H4.48975V14.0048Z" fill="#888888"/>
<path d="M6.31575 14.0048V15.1382H6.17202V14.9434C6.11627 15.0134 6.04611 15.0706 5.96629 15.1111C5.8577 15.1631 5.73553 15.1796 5.61703 15.1584C5.49853 15.1372 5.3897 15.0793 5.30589 14.9928C5.25044 14.9372 5.20678 14.8709 5.17753 14.798C5.14828 14.7251 5.13402 14.647 5.13562 14.5684C5.13439 14.4906 5.14899 14.4134 5.17853 14.3414C5.20808 14.2694 5.25195 14.2042 5.30749 14.1496C5.36067 14.0937 5.42485 14.0494 5.49597 14.0195C5.5671 13.9895 5.64365 13.9746 5.72082 13.9756C5.80864 13.9744 5.89542 13.9948 5.97349 14.0351C6.05275 14.0782 6.12076 14.1393 6.17202 14.2135V14.0051L6.31575 14.0048ZM5.73335 14.1163C5.65407 14.1158 5.57611 14.1366 5.50772 14.1768C5.43933 14.2169 5.38304 14.2747 5.34482 14.3442C5.30476 14.4138 5.28368 14.4928 5.28368 14.5731C5.28368 14.6534 5.30476 14.7324 5.34482 14.802C5.38352 14.8725 5.4405 14.9312 5.50975 14.972C5.57688 15.0122 5.65368 15.0332 5.73189 15.033C5.81143 15.0331 5.8896 15.0122 5.95855 14.9726C6.02776 14.9347 6.08492 14.8781 6.12349 14.8092C6.16262 14.7383 6.18252 14.6583 6.18122 14.5772C6.18289 14.5165 6.17228 14.4561 6.15004 14.3996C6.12779 14.3431 6.09436 14.2917 6.05175 14.2484C6.0107 14.2056 5.96121 14.1717 5.90641 14.149C5.8516 14.1262 5.79268 14.1151 5.73335 14.1163Z" fill="#888888"/>
<path d="M6.6438 14.0048H6.78967V14.208C6.84091 14.1366 6.90699 14.077 6.9834 14.0335C7.05431 13.9949 7.13387 13.975 7.2146 13.9756C7.29456 13.9743 7.37311 13.9968 7.4402 14.0403C7.50487 14.0823 7.55549 14.1426 7.58553 14.2136C7.62236 14.3233 7.63824 14.4388 7.63233 14.5543V15.1376H7.48647V14.5975C7.48967 14.5101 7.48426 14.4226 7.47033 14.3362C7.45868 14.2701 7.42424 14.2102 7.373 14.1668C7.31886 14.127 7.25268 14.1069 7.18553 14.11C7.09854 14.1096 7.01432 14.1407 6.94847 14.1975C6.88051 14.2531 6.83215 14.3291 6.81047 14.4142C6.793 14.516 6.78603 14.6193 6.78967 14.7226V15.1382H6.6438V14.0048Z" fill="#888888"/>
<path d="M8.92203 14.0047H9.0679V14.9079C9.07338 15.0257 9.05927 15.1436 9.02617 15.2568C8.99031 15.3578 8.91983 15.4429 8.82723 15.4968C8.7235 15.5555 8.60569 15.5847 8.48657 15.5812C8.39756 15.5826 8.309 15.5686 8.2247 15.54C8.1546 15.5169 8.09017 15.4792 8.03563 15.4294C7.97857 15.3706 7.93299 15.3016 7.90123 15.226H8.0595C8.09798 15.2965 8.15594 15.3543 8.22643 15.3927C8.30518 15.4312 8.39217 15.4498 8.47977 15.4468C8.56699 15.4497 8.65353 15.4306 8.7315 15.3914C8.79345 15.3608 8.84462 15.3121 8.87817 15.2518C8.91292 15.1657 8.92791 15.0729 8.92203 14.9802V14.9219C8.86847 14.9903 8.79954 15.0451 8.72083 15.0819C8.63456 15.1221 8.53994 15.141 8.44485 15.1372C8.34976 15.1334 8.25696 15.107 8.17417 15.06C8.08524 15.0113 8.01143 14.9391 7.96083 14.8512C7.91074 14.7634 7.88484 14.6638 7.88577 14.5627C7.88633 14.4072 7.94829 14.2582 8.05816 14.1482C8.16803 14.0381 8.31693 13.9759 8.47243 13.9751C8.55451 13.9745 8.63565 13.9925 8.70977 14.0278C8.79193 14.0699 8.86423 14.129 8.9219 14.2011L8.92203 14.0047ZM8.49177 14.1162C8.41114 14.1157 8.33179 14.1363 8.26163 14.176C8.19191 14.2149 8.13424 14.2723 8.09497 14.3418C8.05498 14.4113 8.03414 14.4901 8.03457 14.5703C8.03284 14.6276 8.04305 14.6846 8.06456 14.7377C8.08607 14.7908 8.1184 14.8388 8.1595 14.8787C8.24907 14.9571 8.36401 15.0004 8.48303 15.0006C8.60206 15.0008 8.71713 14.9579 8.80697 14.8798C8.84809 14.8381 8.88018 14.7883 8.90123 14.7337C8.92229 14.679 8.93187 14.6206 8.92937 14.562C8.93074 14.4822 8.91135 14.4034 8.8731 14.3334C8.83583 14.2666 8.78064 14.2116 8.71377 14.1746C8.64617 14.136 8.56961 14.1158 8.49177 14.1162Z" fill="#888888"/>
<path d="M10.3344 14.7622L10.4574 14.8267C10.4226 14.8984 10.3753 14.9633 10.3176 15.0184C10.2658 15.0663 10.2053 15.104 10.1394 15.1294C10.0676 15.1557 9.99157 15.1686 9.91511 15.1674C9.83381 15.1716 9.7526 15.1575 9.67751 15.126C9.60242 15.0945 9.53538 15.0466 9.48138 14.9856C9.38034 14.8726 9.32464 14.7263 9.32498 14.5747C9.32357 14.4351 9.37039 14.2994 9.45751 14.1903C9.50975 14.1212 9.57783 14.0656 9.65602 14.0282C9.73422 13.9909 9.82024 13.9728 9.90685 13.9756C9.99593 13.9727 10.0844 13.9912 10.1649 14.0294C10.2454 14.0677 10.3156 14.1246 10.3696 14.1955C10.4543 14.3066 10.4985 14.4433 10.4948 14.583H9.47498C9.4733 14.7032 9.5186 14.8194 9.60125 14.9067C9.63986 14.9477 9.68665 14.9801 9.73858 15.0018C9.79051 15.0236 9.84643 15.0342 9.90272 15.033C9.96018 15.033 10.0172 15.0228 10.0711 15.003C10.122 14.985 10.1691 14.9579 10.2103 14.923C10.2595 14.8759 10.3014 14.8217 10.3344 14.7622ZM10.3344 14.457C10.3197 14.3894 10.2907 14.3257 10.2494 14.2703C10.2097 14.2218 10.1592 14.1833 10.1019 14.1579C10.0415 14.1296 9.97558 14.1149 9.90885 14.1151C9.80308 14.1131 9.70052 14.1515 9.62205 14.2224C9.55668 14.2865 9.51078 14.3678 9.48965 14.4568L10.3344 14.457Z" fill="#888888"/>
<path d="M11.3115 15.1382L11.5309 13.606H11.5558L12.1787 14.8633L12.7957 13.606H12.8202L13.0407 15.1382H12.8906L12.7391 14.0424L12.1973 15.1382H12.1583L11.6099 14.0341L11.4594 15.1382H11.3115Z" fill="#888888"/>
<path d="M13.8543 13.9755C13.9361 13.9736 14.0173 13.9895 14.0923 14.0223C14.1673 14.055 14.2342 14.1038 14.2884 14.1651C14.3907 14.2786 14.4465 14.4263 14.4449 14.5791C14.4433 14.7318 14.3843 14.8784 14.2796 14.9896C14.2239 15.0459 14.1576 15.0906 14.0845 15.1211C14.0114 15.1516 13.933 15.1672 13.8538 15.1672C13.7746 15.1672 13.6962 15.1516 13.6231 15.1211C13.55 15.0906 13.4837 15.0459 13.428 14.9896C13.3234 14.8786 13.2644 14.7322 13.2627 14.5796C13.2611 14.427 13.317 14.2794 13.4192 14.1662C13.4734 14.1045 13.5404 14.0555 13.6156 14.0225C13.6907 13.9896 13.7722 13.9735 13.8543 13.9755ZM13.8543 14.1183C13.7957 14.1177 13.7377 14.1294 13.6839 14.1525C13.6301 14.1756 13.5817 14.2098 13.5419 14.2527C13.4994 14.2953 13.4659 14.3461 13.4434 14.4019C13.421 14.4577 13.41 14.5175 13.4111 14.5776C13.4107 14.6579 13.4313 14.7369 13.4707 14.8068C13.5082 14.8753 13.5639 14.9321 13.6316 14.9708C13.6997 15.0088 13.7763 15.0287 13.8543 15.0287C13.9322 15.0287 14.0089 15.0088 14.0769 14.9708C14.1447 14.9321 14.2005 14.8753 14.238 14.8068C14.2775 14.7369 14.298 14.6579 14.2976 14.5776C14.2987 14.5174 14.2876 14.4576 14.2651 14.4018C14.2425 14.346 14.209 14.2953 14.1664 14.2527C14.1265 14.2097 14.078 14.1756 14.0241 14.1524C13.9702 14.1293 13.912 14.1177 13.8533 14.1183H13.8543Z" fill="#888888"/>
<path d="M14.7146 14.0048H14.8605V14.208C14.9117 14.1366 14.9778 14.0771 15.0542 14.0335C15.1252 13.9949 15.2048 13.975 15.2855 13.9756C15.3654 13.9743 15.444 13.9968 15.511 14.0403C15.5757 14.0823 15.6263 14.1426 15.6563 14.2136C15.6932 14.3233 15.709 14.4388 15.7031 14.5543V15.1376H15.5574V14.5975C15.5606 14.5101 15.5552 14.4225 15.5413 14.3362C15.5296 14.2701 15.4951 14.2102 15.4439 14.1668C15.3898 14.127 15.3236 14.1069 15.2565 14.11C15.1695 14.1096 15.0853 14.1407 15.0194 14.1975C14.9514 14.2531 14.9029 14.329 14.8813 14.4142C14.8638 14.516 14.8568 14.6193 14.8605 14.7226V15.1382H14.7146V14.0048Z" fill="#888888"/>
<path d="M16.9698 14.7622L17.0927 14.8267C17.058 14.8985 17.0107 14.9634 16.953 15.0184C16.9012 15.0664 16.8407 15.104 16.7749 15.1294C16.7031 15.1557 16.6271 15.1686 16.5506 15.1674C16.4693 15.1716 16.3881 15.1575 16.313 15.126C16.2379 15.0946 16.1709 15.0466 16.1169 14.9856C16.0158 14.8726 15.9601 14.7263 15.9605 14.5747C15.959 14.4352 16.0058 14.2994 16.0929 14.1903C16.1451 14.1212 16.2132 14.0656 16.2914 14.0282C16.3696 13.9909 16.4556 13.9728 16.5422 13.9756C16.6313 13.9727 16.7198 13.9911 16.8004 14.0294C16.8809 14.0676 16.9511 14.1246 17.0051 14.1955C17.0897 14.3067 17.1339 14.4433 17.1303 14.583H16.1105C16.1088 14.7032 16.1541 14.8193 16.2366 14.9067C16.2752 14.9477 16.322 14.9801 16.374 15.0018C16.4259 15.0236 16.4818 15.0342 16.5381 15.033C16.5956 15.033 16.6527 15.0229 16.7066 15.003C16.7575 14.985 16.8046 14.9579 16.8458 14.923C16.895 14.8759 16.9368 14.8217 16.9698 14.7622ZM16.9698 14.457C16.9552 14.3894 16.9262 14.3257 16.8849 14.2703C16.8451 14.2219 16.7946 14.1834 16.7373 14.1579C16.6769 14.1296 16.611 14.1149 16.5443 14.1151C16.4386 14.1131 16.336 14.1515 16.2575 14.2224C16.1922 14.2865 16.1462 14.3678 16.125 14.4568L16.9698 14.457Z" fill="#888888"/>
<path d="M17.28 14.0049H17.4342L17.8236 14.8775L18.2019 14.0049H18.3571L17.681 15.5529H17.527L17.7452 15.0525L17.28 14.0049Z" fill="#888888"/>
<path d="M3.38876 12.6775C2.96129 12.6055 2.71662 12.3586 2.62476 11.9075C2.65862 11.8024 2.65862 11.6892 2.62476 11.5841C2.65474 11.3559 2.76968 11.1475 2.94662 11.0003C4.12324 9.82417 5.29996 8.64808 6.47676 7.47208C6.55382 7.39502 6.64476 7.33195 6.72236 7.26742C6.65316 7.14262 6.57102 7.18742 6.50902 7.18662C5.83276 7.18248 5.15649 7.18942 4.48022 7.18195C3.99796 7.17688 3.66569 6.88995 3.55889 6.40862C3.59412 6.28473 3.59459 6.15354 3.56022 6.02942C3.67716 5.55275 4.01702 5.26128 4.49356 5.25982C6.01409 5.25422 7.53467 5.25422 9.05529 5.25982C9.18137 5.25626 9.30692 5.27759 9.42475 5.32259C9.54258 5.36758 9.6504 5.43535 9.74203 5.52203C9.83366 5.6087 9.90731 5.71259 9.95877 5.82774C10.0102 5.9429 10.0385 6.06706 10.042 6.19315C10.0426 6.21422 10.042 6.23515 10.042 6.25622C10.046 7.76733 10.046 9.27879 10.042 10.7906C10.0546 11.0167 9.98283 11.2394 9.84065 11.4156C9.69848 11.5918 9.49598 11.709 9.27236 11.7445C9.14476 11.7578 9.01662 11.7097 8.88902 11.7445C8.66556 11.7083 8.46336 11.5908 8.32129 11.4145C8.17923 11.2383 8.10733 11.0157 8.11942 10.7897C8.11569 10.0661 8.11849 9.34195 8.11849 8.61555C8.00756 8.60222 7.97329 8.69262 7.92036 8.74555C6.71911 9.94288 5.51964 11.1414 4.32196 12.3411C4.15209 12.511 3.97942 12.6745 3.71716 12.6795C3.61183 12.6376 3.49458 12.6369 3.38876 12.6775Z" fill="white"/>
<path d="M16.6947 9.88136C16.9168 9.91052 17.1213 10.0178 17.2716 10.184C17.4218 10.3501 17.508 10.5644 17.5147 10.7883C17.5214 11.0122 17.4482 11.2312 17.3082 11.4061C17.1681 11.581 16.9704 11.7003 16.7504 11.7427C15.4368 11.7478 14.1238 11.745 12.8107 11.7455C12.4566 11.7455 12.1019 11.7474 11.7474 11.7404C11.5689 11.7124 11.4039 11.6284 11.2762 11.5007C11.1485 11.3729 11.0646 11.2078 11.0367 11.0294C11.0278 9.36198 11.0275 7.6946 11.0358 6.02722C11.0767 5.80615 11.1954 5.60702 11.3703 5.46583C11.5453 5.32464 11.765 5.2507 11.9897 5.25738C12.2145 5.26407 12.4294 5.35093 12.5957 5.50227C12.7619 5.65361 12.8686 5.85944 12.8963 6.08256C12.8526 6.86957 12.856 7.65849 12.9066 8.44509C13.0276 8.44829 13.0732 8.34202 13.1404 8.27469C14.3504 7.06882 15.5593 5.8614 16.7671 4.65242C17.333 4.08936 18.1591 4.28856 18.3948 5.03762C18.3962 5.22002 18.3791 5.40242 18.3907 5.58429C18.3388 5.75945 18.2384 5.91635 18.1011 6.03682C16.913 7.22278 15.7266 8.4106 14.5419 9.60029C14.4619 9.68029 14.34 9.73362 14.3316 9.87136C14.4695 9.94189 14.6175 9.90389 14.7591 9.90202C15.4048 9.89362 16.0504 9.93216 16.6947 9.88136Z" fill="#888888"/>
<path d="M18.6667 0H1.33333C0.596954 0 0 0.596954 0 1.33333V18.6667C0 19.403 0.596954 20 1.33333 20H18.6667C19.403 20 20 19.403 20 18.6667V1.33333C20 0.596954 19.403 0 18.6667 0Z" fill="black"/>
<path d="M3.38745 13.532C3.6049 13.532 3.78687 13.6046 3.93335 13.7498C4.07983 13.8949 4.15308 14.0736 4.15308 14.2859C4.15308 14.4962 4.07983 14.6746 3.93335 14.821C3.78752 14.9675 3.60946 15.0408 3.39917 15.0408C3.18628 15.0408 3.00659 14.9679 2.86011 14.822C2.71362 14.6762 2.64038 14.4998 2.64038 14.2927C2.64038 14.1547 2.67358 14.0268 2.73999 13.9089C2.80705 13.7911 2.89819 13.699 3.01343 13.6326C3.12866 13.5655 3.25334 13.532 3.38745 13.532ZM3.39429 13.6726C3.28817 13.6726 3.18758 13.7003 3.09253 13.7556C2.99748 13.811 2.92326 13.8855 2.86987 13.9792C2.81649 14.073 2.78979 14.1775 2.78979 14.2927C2.78979 14.4633 2.84871 14.6075 2.96655 14.7253C3.08504 14.8425 3.22762 14.9011 3.39429 14.9011C3.50562 14.9011 3.60848 14.8741 3.70288 14.8201C3.79793 14.766 3.87183 14.6921 3.92456 14.5984C3.97795 14.5046 4.00464 14.4005 4.00464 14.2859C4.00464 14.172 3.97795 14.0691 3.92456 13.9773C3.87183 13.8848 3.79728 13.811 3.70093 13.7556C3.60457 13.7003 3.50236 13.6726 3.39429 13.6726ZM4.36694 13.9421H4.50659V14.0974C4.54826 14.0362 4.5922 13.9906 4.63843 13.9607C4.68465 13.9301 4.73283 13.9148 4.78296 13.9148C4.82072 13.9148 4.86108 13.9268 4.90405 13.9509L4.83276 14.0662C4.80412 14.0538 4.78003 14.0476 4.7605 14.0476C4.71493 14.0476 4.67098 14.0665 4.62866 14.1042C4.58634 14.1414 4.55412 14.1993 4.53198 14.2781C4.51506 14.3386 4.50659 14.461 4.50659 14.6453V15.0046H4.36694V13.9421ZM6.07886 13.9421V15.0046H5.94409V14.822C5.8868 14.8917 5.82235 14.9441 5.75073 14.9792C5.67977 15.0144 5.60197 15.032 5.51733 15.032C5.36694 15.032 5.23836 14.9776 5.13159 14.8689C5.02547 14.7595 4.97241 14.6267 4.97241 14.4705C4.97241 14.3175 5.02612 14.1866 5.13354 14.0779C5.24097 13.9692 5.3702 13.9148 5.52124 13.9148C5.60848 13.9148 5.68726 13.9333 5.75757 13.9705C5.82853 14.0076 5.89071 14.0632 5.94409 14.1375V13.9421H6.07886ZM5.53198 14.0466C5.45581 14.0466 5.3855 14.0655 5.32104 14.1033C5.25659 14.1404 5.20516 14.1928 5.16675 14.2605C5.12899 14.3282 5.11011 14.3998 5.11011 14.4753C5.11011 14.5502 5.12931 14.6218 5.16772 14.6902C5.20614 14.7585 5.25757 14.8119 5.32202 14.8503C5.38713 14.8881 5.45679 14.907 5.53101 14.907C5.60588 14.907 5.67684 14.8881 5.7439 14.8503C5.81095 14.8126 5.86239 14.7615 5.89819 14.697C5.93465 14.6326 5.95288 14.56 5.95288 14.4792C5.95288 14.3562 5.91219 14.2533 5.83081 14.1707C5.75008 14.088 5.65047 14.0466 5.53198 14.0466ZM6.38745 13.9421H6.52417V14.1326C6.57886 14.0597 6.6394 14.0053 6.70581 13.9695C6.77222 13.933 6.84448 13.9148 6.92261 13.9148C7.00203 13.9148 7.07235 13.935 7.13354 13.9753C7.19539 14.0157 7.24097 14.0701 7.27026 14.1384C7.29956 14.2068 7.31421 14.3132 7.31421 14.4578V15.0046H7.17847V14.4978C7.17847 14.3754 7.17326 14.2937 7.16284 14.2527C7.14657 14.1824 7.11597 14.1296 7.07104 14.0945C7.02612 14.0587 6.96753 14.0408 6.89526 14.0408C6.81258 14.0408 6.73836 14.0681 6.67261 14.1228C6.6075 14.1775 6.56453 14.2452 6.5437 14.3259C6.53068 14.3787 6.52417 14.475 6.52417 14.615V15.0046H6.38745V13.9421ZM8.52319 13.9421H8.66089V14.7888C8.66089 14.9379 8.64787 15.047 8.62183 15.116C8.58602 15.2136 8.52384 15.2888 8.4353 15.3416C8.34676 15.3943 8.24032 15.4207 8.11597 15.4207C8.02482 15.4207 7.94279 15.4076 7.86987 15.3816C7.79761 15.3562 7.73869 15.3217 7.69312 15.2781C7.64754 15.2351 7.60555 15.172 7.56714 15.0886H7.71558C7.75594 15.1589 7.80802 15.211 7.87183 15.2449C7.93563 15.2787 8.01473 15.2957 8.10913 15.2957C8.20223 15.2957 8.28068 15.2781 8.34448 15.2429C8.40894 15.2084 8.45483 15.1648 8.48218 15.1121C8.50952 15.0593 8.52319 14.9744 8.52319 14.8572V14.8025C8.47176 14.8676 8.40894 14.9177 8.33472 14.9529C8.2605 14.9874 8.18172 15.0046 8.09839 15.0046C8.00073 15.0046 7.90894 14.9806 7.823 14.9324C7.73706 14.8835 7.67065 14.8181 7.62378 14.7361C7.5769 14.6541 7.55347 14.5639 7.55347 14.4656C7.55347 14.3673 7.57788 14.2758 7.62671 14.1912C7.67554 14.1059 7.74292 14.0385 7.82886 13.989C7.91545 13.9395 8.00659 13.9148 8.10229 13.9148C8.18172 13.9148 8.25562 13.9314 8.32397 13.9646C8.39299 13.9972 8.45939 14.0512 8.52319 14.1267V13.9421ZM8.11987 14.0466C8.0424 14.0466 7.97046 14.0655 7.90405 14.1033C7.83765 14.1404 7.78556 14.1921 7.7478 14.2585C7.71004 14.3243 7.69116 14.3956 7.69116 14.4724C7.69116 14.5889 7.73022 14.6853 7.80835 14.7615C7.88647 14.8376 7.98771 14.8757 8.11206 14.8757C8.23771 14.8757 8.33862 14.838 8.41479 14.7625C8.49162 14.6869 8.53003 14.5876 8.53003 14.4646C8.53003 14.3845 8.51245 14.3132 8.47729 14.2507C8.44214 14.1876 8.39233 14.1378 8.32788 14.1013C8.26343 14.0649 8.19409 14.0466 8.11987 14.0466ZM9.84839 14.6521L9.96362 14.7126C9.92586 14.7869 9.88224 14.8468 9.83276 14.8923C9.78328 14.9379 9.72762 14.9727 9.66577 14.9968C9.60392 15.0203 9.53394 15.032 9.45581 15.032C9.28263 15.032 9.14722 14.9753 9.04956 14.8621C8.9519 14.7481 8.90308 14.6195 8.90308 14.4763C8.90308 14.3416 8.94442 14.2214 9.0271 14.116C9.13192 13.9819 9.27222 13.9148 9.448 13.9148C9.62899 13.9148 9.77352 13.9835 9.88159 14.1208C9.95841 14.2179 9.99748 14.3389 9.99878 14.4841H9.0437C9.04631 14.6078 9.08569 14.7094 9.16187 14.7888C9.23804 14.8676 9.33211 14.907 9.44409 14.907C9.49813 14.907 9.55054 14.8975 9.60132 14.8787C9.65275 14.8598 9.69637 14.8347 9.73218 14.8035C9.76799 14.7722 9.80672 14.7218 9.84839 14.6521ZM9.84839 14.366C9.83016 14.2931 9.80347 14.2348 9.76831 14.1912C9.73381 14.1475 9.68791 14.1124 9.63062 14.0857C9.57332 14.059 9.5131 14.0457 9.44995 14.0457C9.34578 14.0457 9.25627 14.0792 9.1814 14.1462C9.12671 14.1951 9.08537 14.2683 9.05737 14.366H9.84839ZM10.7664 15.0046L10.9705 13.5681H10.9939L11.5779 14.7468L12.156 13.5681H12.1794L12.3855 15.0046H12.2439L12.1033 13.9773L11.5955 15.0046H11.5593L11.0447 13.9695L10.905 15.0046H10.7664ZM13.1501 13.9148C13.3136 13.9148 13.449 13.974 13.5564 14.0925C13.6541 14.2006 13.7029 14.3285 13.7029 14.4763C13.7029 14.6248 13.6511 14.7546 13.5476 14.866C13.4447 14.9766 13.3123 15.032 13.1501 15.032C12.9874 15.032 12.8542 14.9766 12.7507 14.866C12.6479 14.7546 12.5964 14.6248 12.5964 14.4763C12.5964 14.3292 12.6453 14.2016 12.7429 14.0935C12.8503 13.9744 12.9861 13.9148 13.1501 13.9148ZM13.1501 14.0486C13.0369 14.0486 12.9395 14.0906 12.8582 14.1746C12.7768 14.2585 12.7361 14.3601 12.7361 14.4792C12.7361 14.5561 12.7546 14.6277 12.7917 14.6941C12.8289 14.7605 12.879 14.8119 12.9421 14.8484C13.0053 14.8842 13.0746 14.9021 13.1501 14.9021C13.2257 14.9021 13.295 14.8842 13.3582 14.8484C13.4213 14.8119 13.4714 14.7605 13.5085 14.6941C13.5457 14.6277 13.5642 14.5561 13.5642 14.4792C13.5642 14.3601 13.5232 14.2585 13.4412 14.1746C13.3598 14.0906 13.2628 14.0486 13.1501 14.0486ZM13.9578 13.9421H14.0945V14.1326C14.1492 14.0597 14.2097 14.0053 14.2761 13.9695C14.3425 13.933 14.4148 13.9148 14.4929 13.9148C14.5723 13.9148 14.6427 13.935 14.7039 13.9753C14.7657 14.0157 14.8113 14.0701 14.8406 14.1384C14.8699 14.2068 14.8845 14.3132 14.8845 14.4578V15.0046H14.7488V14.4978C14.7488 14.3754 14.7436 14.2937 14.7332 14.2527C14.7169 14.1824 14.6863 14.1296 14.6414 14.0945C14.5964 14.0587 14.5378 14.0408 14.4656 14.0408C14.3829 14.0408 14.3087 14.0681 14.2429 14.1228C14.1778 14.1775 14.1348 14.2452 14.114 14.3259C14.101 14.3787 14.0945 14.475 14.0945 14.615V15.0046H13.9578V13.9421ZM16.073 14.6521L16.1882 14.7126C16.1505 14.7869 16.1069 14.8468 16.0574 14.8923C16.0079 14.9379 15.9522 14.9727 15.8904 14.9968C15.8285 15.0203 15.7585 15.032 15.6804 15.032C15.5072 15.032 15.3718 14.9753 15.2742 14.8621C15.1765 14.7481 15.1277 14.6195 15.1277 14.4763C15.1277 14.3416 15.169 14.2214 15.2517 14.116C15.3565 13.9819 15.4968 13.9148 15.6726 13.9148C15.8536 13.9148 15.9981 13.9835 16.1062 14.1208C16.183 14.2179 16.2221 14.3389 16.2234 14.4841H15.2683C15.2709 14.6078 15.3103 14.7094 15.3865 14.7888C15.4626 14.8676 15.5567 14.907 15.6687 14.907C15.7227 14.907 15.7751 14.8975 15.8259 14.8787C15.8774 14.8598 15.921 14.8347 15.9568 14.8035C15.9926 14.7722 16.0313 14.7218 16.073 14.6521ZM16.073 14.366C16.0548 14.2931 16.0281 14.2348 15.9929 14.1912C15.9584 14.1475 15.9125 14.1124 15.8552 14.0857C15.7979 14.059 15.7377 14.0457 15.6746 14.0457C15.5704 14.0457 15.4809 14.0792 15.406 14.1462C15.3513 14.1951 15.31 14.2683 15.282 14.366H16.073ZM16.365 13.9421H16.5095L16.8748 14.7605L17.2292 13.9421H17.3748L16.741 15.3933H16.5964L16.8015 14.9246L16.365 13.9421Z" fill="#FE6600"/>
<path d="M3.38851 12.6773C2.96104 12.6053 2.71638 12.3584 2.62451 11.9073C2.65838 11.8021 2.65838 11.689 2.62451 11.5838C2.65453 11.3554 2.76972 11.1466 2.94704 10.9994C4.12322 9.8237 5.29971 8.64784 6.47651 7.47184C6.55358 7.39477 6.64451 7.33171 6.72211 7.26717C6.65291 7.14237 6.57078 7.18717 6.50878 7.18637C5.83251 7.18224 5.15624 7.18917 4.47998 7.1817C3.99771 7.17664 3.66544 6.8897 3.55864 6.40837C3.59389 6.28449 3.59435 6.1533 3.55998 6.02917C3.67691 5.5525 4.01678 5.26104 4.49331 5.25957C6.01384 5.25397 7.53442 5.25397 9.05504 5.25957C9.18637 5.25594 9.31705 5.2793 9.43899 5.32821C9.56092 5.37711 9.67152 5.45053 9.76393 5.54391C9.85635 5.63729 9.92862 5.74864 9.97626 5.87107C10.0239 5.99351 10.0459 6.12442 10.0409 6.25571C10.0451 7.76682 10.0451 9.27828 10.0409 10.7901C10.0535 11.0162 9.98182 11.2389 9.83964 11.4151C9.69747 11.5913 9.49494 11.7085 9.27131 11.744C9.14371 11.7573 9.01558 11.7092 8.88798 11.744C8.66451 11.7078 8.46231 11.5903 8.32025 11.414C8.17818 11.2378 8.10629 11.0152 8.11838 10.7892C8.11464 10.0656 8.11744 9.34144 8.11744 8.61504C8.00651 8.6017 7.97225 8.69211 7.91931 8.74504C6.7186 9.94255 5.5194 11.1412 4.32171 12.3409C4.15184 12.5108 3.97918 12.6742 3.71691 12.6793C3.61158 12.6374 3.49434 12.6367 3.38851 12.6773Z" fill="white"/>
<path d="M16.6947 9.88111C16.9217 9.91077 17.1302 10.022 17.2812 10.1942C17.4323 10.3663 17.5155 10.5875 17.5154 10.8164C17.5172 11.0361 17.4416 11.2495 17.3016 11.4188C17.1617 11.5882 16.9665 11.7028 16.7504 11.7424C15.4368 11.7475 14.1238 11.7447 12.8107 11.7452C12.4566 11.7452 12.1019 11.7471 11.7474 11.7402C11.5689 11.7121 11.4039 11.6282 11.2762 11.5004C11.1485 11.3726 11.0646 11.2076 11.0367 11.0291C11.0278 9.36182 11.0275 7.69445 11.0358 6.02698C11.0784 5.80673 11.1975 5.60864 11.372 5.46773C11.5466 5.32682 11.7653 5.25217 11.9896 5.25698C12.214 5.26508 12.4281 5.35245 12.5941 5.50356C12.7601 5.65467 12.8672 5.85973 12.8963 6.08231C12.8524 6.86931 12.8557 7.65823 12.906 8.44485C13.0271 8.44805 13.0727 8.34178 13.1399 8.27445C14.3499 7.06858 15.5588 5.86116 16.7666 4.65218C17.3324 4.08911 18.1586 4.28831 18.3943 5.03738C18.3956 5.21978 18.3786 5.40218 18.3902 5.58405C18.3382 5.75918 18.2378 5.91606 18.1006 6.03658C16.9128 7.22253 15.7266 8.41014 14.5419 9.59938C14.4619 9.67938 14.34 9.73271 14.3316 9.87045C14.4695 9.94098 14.6175 9.90298 14.7591 9.90111C15.4048 9.89365 16.0504 9.93191 16.6947 9.88111Z" fill="#FE6600"/>
</svg>
