<svg width="20" height="20" viewBox="0 0 20 20" fill="none" xmlns="http://www.w3.org/2000/svg">
<path d="M17.1176 0H2.8824C1.29049 0 0 1.29049 0 2.8824V17.1176C0 18.7095 1.29049 20 2.8824 20H17.1176C18.7095 20 20 18.7095 20 17.1176V2.8824C20 1.29049 18.7095 0 17.1176 0Z" fill="#989898"/>
<path d="M7.95051 7.97463L6.18851 6.36263C6.18851 6.36263 5.52784 6.0805 5.16064 6.49157C4.84878 6.84977 4.677 7.30869 4.677 7.78363C4.677 8.25857 4.84878 8.71749 5.16064 9.0757C6.04171 10.1477 7.28984 11.4104 7.28984 11.4104L7.14771 14.0093C7.14771 14.0093 7.52477 17.9872 11.1514 17.9872C14.7781 17.9872 15.3256 13.9653 15.3256 13.9653L14.3522 5.6105C14.3522 5.6105 14.088 2.04263 11.3122 2.01317C8.53651 1.9837 8.03917 4.84703 8.03917 4.84703L7.95051 7.97463Z" fill="#020202"/>
<path d="M11.2365 16.16C12.4855 16.16 13.4981 14.4738 13.4981 12.3937C13.4981 10.3137 12.4855 8.62744 11.2365 8.62744C9.98741 8.62744 8.97485 10.3137 8.97485 12.3937C8.97485 14.4738 9.98741 16.16 11.2365 16.16Z" fill="white"/>
<path d="M8.97486 16.1599C8.4904 16.1599 8.02578 16.3524 7.68321 16.6949C7.34064 17.0375 7.14819 17.5021 7.14819 17.9866H10.8027C10.8027 17.7466 10.7554 17.509 10.6636 17.2873C10.5717 17.0656 10.437 16.8641 10.2673 16.6945C10.0975 16.5249 9.89602 16.3903 9.67426 16.2986C9.4525 16.2069 9.21484 16.1598 8.97486 16.1599Z" fill="#919191"/>
<path d="M13.4981 16.1599C13.0136 16.1599 12.549 16.3524 12.2064 16.6949C11.8638 17.0375 11.6714 17.5021 11.6714 17.9866H15.3261C15.3261 17.7466 15.2788 17.5089 15.1869 17.2872C15.095 17.0655 14.9603 16.8641 14.7906 16.6945C14.6208 16.5248 14.4193 16.3903 14.1975 16.2986C13.9757 16.2069 13.738 16.1597 13.4981 16.1599Z" fill="#919191"/>
<path d="M12.8187 6.27403C12.8187 6.27403 11.8501 5.74163 11.237 5.7511C10.6239 5.76057 9.63379 6.27403 9.63379 6.27403C9.63379 6.27403 9.99806 6.98377 11.1749 6.97443C12.3517 6.9651 12.8187 6.27403 12.8187 6.27403Z" fill="#919191"/>
<path d="M10.2482 5.16955C10.4673 5.16955 10.6449 4.99196 10.6449 4.77289C10.6449 4.55381 10.4673 4.37622 10.2482 4.37622C10.0292 4.37622 9.85156 4.55381 9.85156 4.77289C9.85156 4.99196 10.0292 5.16955 10.2482 5.16955Z" fill="white"/>
<path d="M12.2243 5.16955C12.4434 5.16955 12.621 4.99196 12.621 4.77289C12.621 4.55381 12.4434 4.37622 12.2243 4.37622C12.0052 4.37622 11.8276 4.55381 11.8276 4.77289C11.8276 4.99196 12.0052 5.16955 12.2243 5.16955Z" fill="white"/>
<path d="M17.1176 0H2.8824C1.29049 0 0 1.29049 0 2.8824V17.1176C0 18.7095 1.29049 20 2.8824 20H17.1176C18.7095 20 20 18.7095 20 17.1176V2.8824C20 1.29049 18.7095 0 17.1176 0Z" fill="#1DC4FF"/>
<path d="M7.95062 7.97463L6.18862 6.36263C6.18862 6.36263 5.52795 6.0805 5.16088 6.49157C4.84902 6.84977 4.67725 7.30869 4.67725 7.78363C4.67725 8.25857 4.84902 8.71749 5.16088 9.0757C6.04195 10.1477 7.29008 11.4104 7.29008 11.4104L7.14795 14.0093C7.14795 14.0093 7.52502 17.9872 11.1517 17.9872C14.7784 17.9872 15.3258 13.9653 15.3258 13.9653L14.3525 5.6105C14.3525 5.6105 14.0882 2.04263 11.3125 2.01317C8.53675 1.9837 8.03928 4.84703 8.03928 4.84703L7.95062 7.97463Z" fill="#010202"/>
<path d="M11.2365 16.16C12.4855 16.16 13.4981 14.4738 13.4981 12.3937C13.4981 10.3137 12.4855 8.62744 11.2365 8.62744C9.98741 8.62744 8.97485 10.3137 8.97485 12.3937C8.97485 14.4738 9.98741 16.16 11.2365 16.16Z" fill="white"/>
<path d="M8.97486 16.1599C8.4904 16.1599 8.02578 16.3524 7.68321 16.6949C7.34064 17.0375 7.14819 17.5021 7.14819 17.9866H10.8027C10.8027 17.7466 10.7554 17.509 10.6636 17.2873C10.5717 17.0656 10.437 16.8641 10.2673 16.6945C10.0975 16.5249 9.89602 16.3903 9.67426 16.2986C9.4525 16.2069 9.21484 16.1598 8.97486 16.1599Z" fill="#F67900"/>
<path d="M13.4981 16.1599C13.0136 16.1599 12.549 16.3524 12.2064 16.6949C11.8638 17.0375 11.6714 17.5021 11.6714 17.9866H15.3261C15.3261 17.7466 15.2788 17.5089 15.1869 17.2872C15.095 17.0655 14.9603 16.8641 14.7906 16.6945C14.6208 16.5248 14.4193 16.3903 14.1975 16.2986C13.9757 16.2069 13.738 16.1597 13.4981 16.1599Z" fill="#F67900"/>
<path d="M12.8187 6.27403C12.8187 6.27403 11.8501 5.74163 11.237 5.7511C10.6239 5.76057 9.63379 6.27403 9.63379 6.27403C9.63379 6.27403 9.99806 6.98377 11.1749 6.97443C12.3517 6.9651 12.8187 6.27403 12.8187 6.27403Z" fill="#F67900"/>
<path d="M10.2482 5.16955C10.4673 5.16955 10.6449 4.99196 10.6449 4.77289C10.6449 4.55381 10.4673 4.37622 10.2482 4.37622C10.0292 4.37622 9.85156 4.55381 9.85156 4.77289C9.85156 4.99196 10.0292 5.16955 10.2482 5.16955Z" fill="white"/>
<path d="M12.2243 5.16955C12.4434 5.16955 12.621 4.99196 12.621 4.77289C12.621 4.55381 12.4434 4.37622 12.2243 4.37622C12.0052 4.37622 11.8276 4.55381 11.8276 4.77289C11.8276 4.99196 12.0052 5.16955 12.2243 5.16955Z" fill="white"/>
</svg>
