<svg width="436" height="442" viewBox="0 0 436 442" fill="none" xmlns="http://www.w3.org/2000/svg">
<path opacity="0.53" d="M217.559 2.10618C342.259 8.42607 347.619 134.806 334.21 184.096C320.801 233.385 422.704 244.754 434.767 325.639C446.83 406.525 367.734 440.647 311.417 441.904C255.1 443.16 210.859 411.575 201.475 372.4C192.091 333.225 165.275 314.267 118.352 306.679C71.4295 299.09 -13.0485 239.701 1.70648 162.605C1.70648 162.605 5.15849 80.5803 86.8485 26.1114C141.819 -10.5327 217.559 2.10618 217.559 2.10618Z" fill="#82B8E8"/>
<path d="M29.9689 170.837C29.9689 170.837 23.2953 173.366 30.6053 187.579C37.9153 201.792 42.9778 208.821 42.9778 208.821C42.9778 208.821 44.2736 212.123 41.4929 212.645C38.7122 213.167 32.5833 212.209 31.3564 215.62C30.0836 219.158 32.6578 222.5 37.8694 225.367C43.081 228.234 54.261 235.051 55.2701 235.687C56.2792 236.323 57.2538 237.826 55.4192 238.485C53.5845 239.144 39.8073 240.641 40.9024 247.125C41.9974 253.609 57.8444 259.326 59.5644 259.979C61.2844 260.633 61.6972 261.367 61.5596 262.307C61.422 263.247 56.7436 263.316 52.8449 263.901C48.9462 264.486 44.5258 265.839 45.4718 269.537C46.4178 273.235 55.7918 280.963 78.5876 283.119L89.2 283.423L94.9333 274.467C106.062 254.487 105.012 242.361 102.501 239.494C99.9901 236.627 96.3724 239.494 93.6834 242.361C90.9945 245.227 88.2884 249.063 87.4341 248.667C86.5798 248.272 86.2129 247.492 86.6486 245.703C87.0844 243.914 91.3557 227.62 86.6486 223.039C81.9416 218.458 72.8886 228.968 71.3062 230.109C69.7238 231.249 69.0129 229.535 69.0817 228.389C69.1505 227.242 69.8901 214.153 70.452 208.213C71.0138 202.273 69.7296 198.266 66.0946 197.32C62.5916 196.402 59.9084 201.992 57.9017 203.987C55.895 205.983 53.8884 203.041 53.8884 203.041C53.8884 203.041 50.9586 194.894 43.3906 180.813C35.8226 166.732 29.8256 170.935 29.8256 170.935" fill="#F5F5F5"/>
<path d="M89.7733 285.933C84.2579 275.568 74.7577 256.991 66.5247 241.081C58.2916 225.171 50.7867 210.775 45.3343 200.392C42.6052 195.232 40.3864 191.012 38.8499 188.094C38.0931 186.649 37.5025 185.526 37.0897 184.752C36.8948 184.373 36.7457 184.086 36.6425 183.874C36.5897 183.777 36.5418 183.678 36.4992 183.576C36.4992 183.576 36.5623 183.668 36.6712 183.863L37.1471 184.717L38.9645 188.037C40.5355 190.903 42.7829 195.1 45.5407 200.283C51.0619 210.643 58.5611 225.017 66.7999 240.921C75.0387 256.825 84.4987 275.424 89.9625 285.813" fill="#E0E0E0"/>
<path d="M39.8933 217.3C40.1477 217.345 40.3972 217.414 40.6386 217.506C41.1088 217.655 41.7853 217.89 42.6109 218.188C44.2678 218.796 46.5382 219.685 49.0265 220.711L55.3733 223.366L57.2997 224.157C57.5434 224.237 57.7779 224.343 57.9992 224.472C57.7456 224.438 57.4972 224.372 57.2596 224.277C56.7894 224.128 56.1129 223.887 55.2873 223.584C53.6361 222.964 51.3772 222.041 48.8889 221.015L42.5134 218.406L40.5813 217.627C40.3403 217.544 40.1095 217.435 39.8933 217.3Z" fill="#E0E0E0"/>
<path d="M58.7159 223.796C58.6356 223.761 60.2639 219.003 62.3565 213.16C64.4492 207.318 66.2208 202.611 66.3068 202.64C66.3928 202.668 64.7645 207.433 62.6661 213.275C60.5677 219.117 58.8133 223.824 58.7159 223.796Z" fill="#E0E0E0"/>
<path d="M70.28 248.793C70.3979 248.558 70.5421 248.337 70.71 248.134L71.9656 246.414C73.0148 244.958 74.4653 242.94 75.9789 240.652C77.4925 238.364 78.8054 236.255 79.74 234.718L80.8465 232.895C80.9718 232.664 81.1176 232.446 81.2822 232.241C81.2056 232.494 81.0957 232.735 80.9554 232.958C80.7261 233.405 80.3821 234.047 79.9406 234.833C79.0577 236.404 77.7792 238.542 76.2541 240.835C74.729 243.129 73.2556 245.13 72.149 246.569C71.5757 247.274 71.14 247.847 70.8132 248.231C70.6561 248.437 70.4773 248.626 70.28 248.793Z" fill="#E0E0E0"/>
<path d="M51.9333 246.672C52.1731 246.641 52.4159 246.641 52.6557 246.672L54.6222 246.821C56.2792 246.964 58.5668 247.182 61.0894 247.44C63.6121 247.698 65.8997 247.95 67.5509 248.151L69.506 248.403C69.7475 248.421 69.9861 248.468 70.2169 248.541C69.9769 248.568 69.7345 248.568 69.4945 248.541L67.528 248.392C65.871 248.249 63.5834 248.031 61.055 247.773C58.5266 247.515 56.2505 247.262 54.5993 247.062L52.6442 246.809C52.4026 246.792 52.1639 246.746 51.9333 246.672Z" fill="#E0E0E0"/>
<path d="M59.3236 270.029C59.6307 270.002 59.9396 270.002 60.2467 270.029L62.7693 270.213C64.8907 270.379 67.8261 270.637 71.0655 270.935C74.3048 271.233 77.2345 271.509 79.3559 271.755L81.8671 272.042C82.1768 272.063 82.4838 272.113 82.7844 272.191C82.4755 272.221 82.1645 272.221 81.8556 272.191L79.3329 272.007C77.2116 271.841 74.2761 271.583 71.0368 271.279C67.7975 270.975 64.8677 270.706 62.7464 270.459L60.2352 270.179C59.9274 270.157 59.6223 270.107 59.3236 270.029Z" fill="#E0E0E0"/>
<path d="M82.234 272.007C82.3843 271.71 82.5588 271.427 82.7557 271.159L84.2636 268.917C85.5364 267.019 87.2851 264.393 89.1312 261.463C90.9773 258.534 92.5712 255.799 93.7179 253.827C94.2912 252.881 94.7269 252.107 95.0824 251.487C95.2345 251.194 95.4109 250.914 95.6099 250.65C95.5011 250.964 95.3608 251.265 95.1913 251.551C94.9047 252.124 94.4747 252.938 93.9243 253.941C92.8235 255.942 91.2525 258.683 89.3949 261.641C87.5373 264.6 85.7657 267.208 84.4471 269.095C83.782 270.023 83.2373 270.769 82.8532 271.279C82.6676 271.539 82.4604 271.782 82.234 272.007Z" fill="#E0E0E0"/>
<path d="M286.26 305.324C270.964 295.33 266.962 276.021 267.014 258.551C267.014 255.639 266.607 252.577 267.908 249.98C269.209 247.383 272.397 245.531 275.04 246.677C277.236 247.629 278.257 250.117 279.535 252.158C281.237 254.883 283.676 257.07 286.57 258.465C288.451 259.371 290.767 259.887 292.567 258.821C295.032 257.359 295.222 253.878 295.113 250.977L294.539 234.786C294.43 231.885 294.327 228.933 295.147 226.152C295.967 223.371 297.87 220.757 300.605 219.903C303.34 219.048 306.791 220.528 307.485 223.343C307.766 224.489 307.565 225.751 307.68 226.949C307.795 228.147 308.403 229.46 309.555 229.764C310.707 230.068 311.848 229.191 312.691 228.331C315.592 225.315 317.501 221.485 319.284 217.678C321.067 213.871 322.787 209.978 325.396 206.705C328.005 203.431 331.703 200.782 335.831 200.398C339.959 200.014 344.471 202.456 345.646 206.492C346.822 210.529 344.568 214.766 342.08 218.154C338.385 223.176 333.984 227.639 329.014 231.404C328.119 232.08 327.156 232.814 326.841 233.898C326.268 235.847 328.16 237.71 330.086 238.284C332.265 238.937 334.604 238.639 336.868 238.857C339.133 239.075 341.616 240.004 342.539 242.085C343.817 245.009 341.438 248.185 339.064 250.295C334.309 254.521 328.861 257.895 322.959 260.271C320.855 261.114 318.631 261.871 316.962 263.419C315.294 264.967 314.331 267.61 315.437 269.616C316.544 271.623 319.221 272.196 321.44 271.715C323.659 271.233 325.62 269.955 327.747 269.089C331.68 267.461 336.828 267.575 339.489 270.935C341.237 273.148 341.478 276.29 340.716 279.013C339.953 281.737 338.308 284.11 336.547 286.306C330.401 293.995 322.421 300.273 313.282 303.764C304.143 307.256 295.617 308.385 286.335 305.318" fill="#F5F5F5"/>
<path d="M290.44 294.241C292.733 285.354 296.059 275.826 299.877 265.976C300.84 263.514 301.796 261.085 302.744 258.689C303.69 256.304 304.624 253.936 305.679 251.671C307.717 247.344 309.992 243.133 312.496 239.058C314.858 235.142 317.243 231.513 319.497 228.165C321.75 224.816 323.928 221.686 326.027 218.94C329.314 214.59 332.941 210.509 336.874 206.733C338.267 205.397 339.374 204.4 340.137 203.729L341.008 202.972C341.104 202.884 341.208 202.803 341.318 202.731C341.236 202.834 341.146 202.93 341.048 203.018L340.211 203.809C339.471 204.503 338.382 205.529 337.018 206.888C333.15 210.71 329.576 214.817 326.325 219.175C324.255 221.927 322.105 225.034 319.863 228.417C317.622 231.799 315.277 235.434 312.915 239.345C310.433 243.424 308.175 247.634 306.149 251.958C305.106 254.205 304.183 256.545 303.237 258.947C302.291 261.349 301.351 263.769 300.37 266.228C296.557 276.072 293.226 285.572 290.916 294.425" fill="#E0E0E0"/>
<path d="M305.794 251.648C305.647 251.251 305.539 250.84 305.473 250.421C305.295 249.624 305.077 248.466 304.831 247.027C304.332 244.16 303.776 240.147 303.185 235.767C302.595 231.386 301.981 227.396 301.437 224.541C301.173 223.107 300.943 221.955 300.777 221.158C300.66 220.751 300.593 220.331 300.577 219.908C300.751 220.295 300.886 220.698 300.978 221.112C301.207 221.892 301.494 223.039 301.803 224.46C302.446 227.327 303.116 231.289 303.713 235.692C304.309 240.095 304.808 243.965 305.203 246.97C305.394 248.33 305.553 249.477 305.679 250.41C305.765 250.817 305.803 251.232 305.794 251.648Z" fill="#E0E0E0"/>
<path d="M342.825 243.507C342.34 243.626 341.845 243.701 341.346 243.731C340.395 243.845 339.013 244.006 337.333 244.253C333.933 244.728 329.26 245.548 324.146 246.678C319.032 247.807 314.445 249.046 311.155 250.032C309.503 250.513 308.179 250.938 307.262 251.224C306.794 251.404 306.31 251.538 305.817 251.626C306.257 251.384 306.717 251.183 307.193 251.024C308.093 250.674 309.4 250.192 311.04 249.665C314.314 248.587 318.9 247.297 324.032 246.15C328.41 245.162 332.836 244.396 337.293 243.857C339.013 243.656 340.389 243.553 341.352 243.501C341.842 243.457 342.336 243.459 342.825 243.507Z" fill="#E0E0E0"/>
<path d="M290.859 293.542C290.746 293.407 290.656 293.257 290.589 293.095L289.913 291.77C289.339 290.624 288.525 288.904 287.562 286.811C285.63 282.603 283.147 276.703 280.498 270.184C277.85 263.666 275.419 257.714 273.578 253.472L271.388 248.449L270.815 247.079C270.737 246.923 270.679 246.757 270.643 246.586C270.755 246.72 270.846 246.871 270.912 247.033C271.096 247.389 271.319 247.83 271.595 248.358C272.168 249.504 272.976 251.224 273.939 253.311C275.872 257.525 278.354 263.425 281.009 269.978C283.663 276.531 286.083 282.442 287.923 286.685L290.096 291.667L290.669 293.037C290.757 293.195 290.821 293.365 290.859 293.542Z" fill="#E0E0E0"/>
<path d="M339.856 276.05C339.705 276.143 339.543 276.216 339.374 276.268L337.952 276.795L332.706 278.676C328.274 280.27 322.18 282.534 315.449 285.051C308.718 287.568 302.6 289.781 298.134 291.278C295.904 292.029 294.121 292.619 292.831 292.998L291.375 293.428C291.208 293.488 291.035 293.527 290.859 293.542C291.011 293.448 291.174 293.375 291.346 293.324L292.768 292.797L298.014 290.916C302.44 289.328 308.534 287.058 315.265 284.547C321.996 282.035 328.119 279.817 332.58 278.32C334.81 277.569 336.593 276.979 337.883 276.6L339.34 276.17C339.506 276.108 339.679 276.067 339.856 276.05Z" fill="#E0E0E0"/>
<path d="M72.9173 146.929C73.376 143.569 68.6402 140.806 65.0741 140.519C63.3541 140.382 61.6341 140.645 60.0058 140.084C56.52 138.868 55.1268 134.35 51.7269 132.928C49.1813 131.856 46.2516 132.814 43.7862 134.075C41.3209 135.336 38.8842 136.867 36.1322 137.028C33.7357 137.183 31.1328 136.294 29.0344 137.463C27.4749 138.341 26.655 140.135 25.216 141.202C23.7769 142.268 21.9709 142.457 20.2222 142.555C18.4736 142.652 16.6676 142.664 15.0622 143.397C13.4569 144.131 12.1554 145.805 12.488 147.525L72.9173 146.929Z" fill="#EBEBEB"/>
<path d="M309.836 177.7C310.317 174.226 305.41 171.394 301.723 171.073C299.969 170.929 298.14 171.199 296.477 170.62C292.871 169.358 291.432 164.703 287.912 163.218C285.28 162.106 282.247 163.092 279.696 164.365C277.144 165.637 274.627 167.266 271.772 167.449C269.295 167.61 266.612 166.687 264.434 167.902C262.817 168.802 261.974 170.665 260.483 171.761C258.993 172.856 257.124 173.068 255.323 173.165C253.523 173.263 251.643 173.28 249.991 174.037C248.34 174.793 246.987 176.531 247.325 178.308L309.836 177.7Z" fill="#F5F5F5"/>
<path d="M383.406 192.956C383.698 190.817 380.683 189.057 378.412 188.874C377.329 188.788 376.205 188.954 375.179 188.593C372.96 187.819 372.071 184.952 369.904 184.035C368.287 183.353 366.418 183.96 364.847 184.752C363.276 185.543 361.728 186.54 359.968 186.649C358.443 186.747 356.786 186.179 355.45 186.93C354.458 187.504 353.937 188.65 353.019 189.304C352.066 189.9 350.961 190.206 349.837 190.187C348.72 190.156 347.608 190.337 346.558 190.72C345.543 191.184 344.7 192.257 344.912 193.352L383.406 192.956Z" fill="#F5F5F5"/>
<path d="M372.369 144.057C372.908 140.164 367.41 136.959 363.282 136.603C361.315 136.443 359.269 136.747 357.4 136.093C353.386 134.688 351.747 129.465 347.802 127.803C344.855 126.581 341.467 127.694 338.6 129.127C335.733 130.56 332.918 132.378 329.725 132.567C326.944 132.745 323.928 131.719 321.497 133.072C319.686 134.086 318.74 136.173 317.071 137.4C315.403 138.627 313.305 138.862 311.281 138.971C309.257 139.08 307.153 139.103 305.312 139.946C303.472 140.789 301.941 142.744 302.319 144.739L372.369 144.057Z" fill="#EBEBEB"/>
<path d="M146.356 158.355C147.932 157.679 149.618 159.118 150.478 160.603C151.338 162.088 152.032 163.882 153.603 164.57C154.824 165.104 156.228 164.8 157.564 164.851C161.664 165.012 164.84 168.549 166.68 172.219C167.827 174.512 168.664 177.144 167.901 179.58C167.231 181.725 165.425 183.318 163.544 184.545C159.765 187.074 155.285 188.346 150.742 188.18C148.483 188.077 146.27 187.512 144.239 186.52C142.207 185.528 140.401 184.13 138.931 182.413C136.724 179.706 135.548 176.284 135.038 172.832C134.528 169.381 134.642 165.872 134.757 162.386" fill="#263238"/>
<path d="M164.095 176.427C164.066 176.427 164.095 176.054 164.026 175.406C163.93 174.485 163.671 173.588 163.263 172.757C162.663 171.526 161.777 170.456 160.677 169.638C159.32 168.646 157.749 167.984 156.091 167.706C154.342 167.391 152.599 167.551 151.034 167.219C149.654 166.917 148.379 166.256 147.336 165.304C146.637 164.676 146.01 163.972 145.467 163.205C145.278 162.936 145.134 162.724 145.043 162.569C144.993 162.495 144.951 162.416 144.917 162.334C145.145 162.589 145.36 162.857 145.559 163.137C146.131 163.865 146.773 164.537 147.474 165.143C148.501 166.05 149.749 166.673 151.091 166.949C152.599 167.259 154.336 167.093 156.142 167.414C157.844 167.698 159.452 168.386 160.832 169.42C161.957 170.271 162.854 171.386 163.447 172.665C163.844 173.524 164.077 174.45 164.135 175.395C164.153 175.648 164.153 175.903 164.135 176.157C164.135 176.248 164.121 176.339 164.095 176.427Z" fill="#455A64"/>
<path d="M180.05 168.934L174.013 191.534L161.755 178.348C156.114 174.661 149.451 172.855 142.721 173.188L123.652 172.299L113.125 176.089C110.59 177.01 108.158 178.191 105.867 179.615L85.3529 193.77C81.0128 196.907 77.4466 199.303 76.6096 204.09C75.5088 210.397 78.7022 217.466 85.3472 218.636L114.364 218.986L115.258 237.332L160.867 233.09L159.645 205.403C168.956 212.576 173.331 215.368 180.337 214.003C182.67 213.55 186.007 211.097 187.091 207.462C190.961 194.504 191.62 174.122 191.62 174.122L180.05 168.934ZM108.521 201.367L111.17 200.616L111.336 201.573L108.521 201.367Z" fill="#5DA2EB"/>
<path d="M84.9172 218.647H85.1637H85.8804H88.6496L98.8434 218.618H132.596L132.447 218.762C132.447 218.429 132.481 218.074 132.498 217.718C132.71 213.16 132.917 208.751 133.106 204.652L133.238 204.807C122.969 203.849 114.169 202.37 107.891 201.573C104.749 201.16 102.238 200.885 100.518 200.685L98.5453 200.467L98.035 200.404L97.863 200.375H98.0408L98.551 200.415L100.529 200.587C102.249 200.753 104.766 201.006 107.914 201.396C114.22 202.141 123.004 203.58 133.261 204.52H133.398V204.658C133.209 208.751 133.008 213.166 132.825 217.724C132.825 218.08 132.791 218.435 132.773 218.762V218.905H132.63L98.8778 218.79L88.6266 218.716L85.8574 218.682H85.1408C85.0654 218.676 84.9907 218.665 84.9172 218.647Z" fill="#263238"/>
<path d="M85.502 199.044C85.6443 198.945 85.8009 198.867 85.9664 198.815C86.4028 198.637 86.851 198.489 87.3079 198.373C90.3614 197.592 93.5929 197.917 96.4297 199.291C96.8553 199.494 97.2654 199.727 97.6566 199.99C97.8083 200.076 97.9472 200.182 98.0694 200.306C98.035 200.351 97.4216 199.95 96.3494 199.48C93.5216 198.244 90.3764 197.929 87.3595 198.58C86.2071 198.826 85.5192 199.096 85.502 199.044Z" fill="#263238"/>
<path d="M91.8144 193.775C92.2572 193.944 92.6772 194.167 93.0643 194.44C94.0278 195.045 94.9457 195.72 95.8105 196.459C96.8081 197.324 97.7255 198.179 98.1039 198.998C98.263 199.319 98.3436 199.673 98.3389 200.03C98.3436 200.162 98.314 200.292 98.2529 200.409C98.2449 199.951 98.1311 199.502 97.9204 199.096C97.2928 198.173 96.5181 197.36 95.6271 196.688C94.6237 195.828 93.6605 195.117 92.9553 194.618C92.5516 194.37 92.1699 194.088 91.8144 193.775Z" fill="#263238"/>
<path d="M111.56 201.682C111.34 201.098 111.167 200.498 111.044 199.887C110.757 198.775 110.379 197.233 109.897 195.547C109.416 193.861 108.946 192.348 108.55 191.27C108.154 190.192 107.891 189.55 107.931 189.516C108.039 189.647 108.126 189.794 108.189 189.951C108.338 190.238 108.527 190.662 108.762 191.195C109.323 192.59 109.801 194.016 110.195 195.467C110.66 197.187 111.004 198.718 111.239 199.841C111.396 200.445 111.503 201.061 111.56 201.682Z" fill="#263238"/>
<path d="M160.236 218.246C160.156 218.246 159.829 211.366 159.502 202.864C159.175 194.361 158.98 187.464 159.066 187.464C159.152 187.464 159.479 194.344 159.8 202.852C160.121 211.36 160.322 218.246 160.236 218.246Z" fill="#263238"/>
<g opacity="0.3">
<path d="M159.313 190.622C159.789 193.58 161.033 196.355 162.059 199.17C163.085 201.986 163.779 205.053 163.171 207.983L159.731 205.225" fill="black"/>
</g>
<path d="M177.006 203.677C176.899 203.546 176.81 203.402 176.742 203.247C176.587 202.96 176.392 202.536 176.169 202.003C174.984 199.216 174.269 196.252 174.053 193.231C174.013 192.657 174.002 192.182 174.007 191.86C173.999 191.683 174.014 191.506 174.053 191.333C174.164 191.947 174.239 192.568 174.277 193.191C174.596 196.177 175.291 199.111 176.347 201.922C176.759 203 177.046 203.654 177.006 203.677Z" fill="#263238"/>
<path opacity="0.3" d="M108.739 191.391L109.479 201.097L111.17 200.616L108.739 191.391Z" fill="black"/>
<path d="M158.269 191.333C158.217 191.321 158.166 191.299 158.12 191.27L157.69 191.064C157.143 190.802 156.578 190.579 155.999 190.399C153.868 189.723 151.599 189.609 149.411 190.066C147.912 190.4 146.478 190.982 145.169 191.786C143.741 192.623 142.302 193.69 140.743 194.727C139.125 195.868 137.321 196.718 135.411 197.239C133.348 197.754 131.202 197.842 129.104 197.497C128.042 197.31 127 197.026 125.991 196.648C125.016 196.265 124.08 195.787 123.199 195.22C122.353 194.665 121.565 194.025 120.848 193.311C120.171 192.624 119.541 191.893 118.962 191.121C117.815 189.619 116.858 188.123 115.871 186.781C114.991 185.515 113.961 184.361 112.804 183.341C111.841 182.518 110.756 181.851 109.588 181.363C108.704 180.996 107.763 180.785 106.807 180.738C105.991 180.72 105.177 180.836 104.399 181.082L104.548 181.019L104.995 180.864C105.196 180.801 105.454 180.755 105.752 180.692C106.103 180.643 106.458 180.62 106.813 180.623C107.784 180.642 108.743 180.836 109.645 181.197C110.841 181.676 111.954 182.341 112.942 183.169C114.122 184.182 115.172 185.337 116.066 186.609C117.07 187.945 118.039 189.441 119.18 190.92C119.755 191.681 120.379 192.403 121.049 193.082C121.75 193.777 122.518 194.401 123.342 194.945C124.208 195.498 125.126 195.967 126.083 196.344C127.074 196.717 128.099 196.993 129.144 197.17C131.205 197.512 133.315 197.429 135.342 196.923C137.224 196.415 139.003 195.582 140.599 194.464C142.165 193.443 143.598 192.382 145.054 191.54C146.389 190.729 147.85 190.147 149.377 189.82C151.599 189.372 153.899 189.521 156.045 190.25C156.623 190.444 157.184 190.684 157.725 190.966L158.138 191.201L158.269 191.333Z" fill="#FAFAFA"/>
<path d="M169.467 186.649C169.521 186.88 169.542 187.118 169.53 187.355C169.54 188.004 169.486 188.653 169.369 189.292C169.196 190.243 168.89 191.163 168.458 192.027C167.928 193.078 167.294 194.073 166.566 194.997C165.233 196.687 163.531 198.048 161.589 198.976C161.006 199.254 160.402 199.486 159.783 199.67C159.559 199.749 159.326 199.801 159.089 199.825C159.089 199.767 160.053 199.521 161.497 198.787C163.374 197.823 165.022 196.468 166.33 194.814C167.048 193.904 167.678 192.929 168.211 191.901C168.644 191.064 168.964 190.174 169.163 189.252C169.313 188.391 169.414 187.522 169.467 186.649Z" fill="#FAFAFA"/>
<path d="M176.404 214.014C176.404 214.014 176.324 213.985 176.186 213.894C175.986 213.771 175.795 213.635 175.613 213.487C174.913 212.944 174.294 212.305 173.772 211.589C172.08 209.184 171.176 206.313 171.187 203.373C171.246 200.463 171.747 197.579 172.672 194.819C172.998 193.752 173.291 192.904 173.497 192.319C173.594 192.011 173.713 191.71 173.853 191.419C173.795 191.736 173.715 192.048 173.612 192.353C173.423 193.001 173.17 193.85 172.872 194.876C172.015 197.63 171.548 200.49 171.485 203.373C171.471 206.26 172.322 209.086 173.927 211.486C174.633 212.438 175.466 213.289 176.404 214.014Z" fill="#FAFAFA"/>
<path d="M189.923 188.335C189.745 188.458 189.552 188.56 189.35 188.639C188.983 188.811 188.45 189.046 187.773 189.298C186.001 189.974 184.113 190.294 182.218 190.238C180.303 190.164 178.458 189.504 176.931 188.346C176.478 187.994 176.073 187.583 175.727 187.125C175.59 186.965 175.478 186.786 175.395 186.592C175.898 187.175 176.456 187.707 177.063 188.18C178.578 189.252 180.37 189.863 182.223 189.94C184.084 189.989 185.939 189.704 187.699 189.097C189.086 188.65 189.9 188.289 189.923 188.335Z" fill="#FAFAFA"/>
<path d="M104.617 200.994C104.565 200.994 104.336 200.1 103.803 198.701C102.412 195.015 100.198 191.695 97.3299 188.994C96.2348 187.962 95.4895 187.395 95.5181 187.354C95.7239 187.448 95.9166 187.567 96.0915 187.71C96.5783 188.066 97.0453 188.449 97.4904 188.857C100.471 191.504 102.718 194.874 104.015 198.643C104.213 199.208 104.381 199.782 104.519 200.363C104.577 200.569 104.609 200.781 104.617 200.994Z" fill="#FAFAFA"/>
<path d="M111.313 201.98C111.279 202.088 111.229 202.191 111.164 202.284C111.003 202.568 110.821 202.84 110.62 203.098C109.856 204.044 108.908 204.824 107.833 205.391C106.245 206.215 104.533 206.774 102.765 207.048C100.787 207.387 98.5797 207.524 96.315 207.891C95.2121 208.061 94.1262 208.328 93.07 208.688C92.0931 209.035 91.1599 209.495 90.2893 210.058C88.8146 211.019 87.5315 212.246 86.5053 213.676C85.8211 214.649 85.2589 215.702 84.8312 216.812C84.5216 217.598 84.4241 218.056 84.3897 218.045C84.3962 217.932 84.4174 217.82 84.4528 217.712C84.5205 217.393 84.6105 217.079 84.7222 216.772C85.1132 215.633 85.655 214.551 86.3333 213.556C87.3516 212.081 88.6441 210.816 90.1402 209.829C91.0248 209.246 91.9756 208.771 92.9725 208.413C94.0435 208.044 95.1447 207.77 96.2634 207.593C98.5568 207.226 100.758 207.1 102.719 206.779C104.463 206.52 106.156 205.99 107.736 205.208C108.796 204.673 109.744 203.939 110.528 203.046C111.067 202.381 111.285 201.963 111.313 201.98Z" fill="#FAFAFA"/>
<path d="M123.554 203.557C123.645 203.738 123.713 203.931 123.755 204.13C123.905 204.653 124.018 205.185 124.093 205.724C124.205 206.525 124.253 207.334 124.236 208.143C124.197 210.13 123.766 212.09 122.969 213.911C122.647 214.653 122.264 215.366 121.823 216.044C121.529 216.502 121.203 216.939 120.848 217.351C120.59 217.638 120.447 217.793 120.429 217.775C120.412 217.758 120.94 217.099 121.645 215.935C122.05 215.249 122.409 214.537 122.717 213.802C123.084 212.902 123.377 211.974 123.594 211.027C123.797 210.074 123.919 209.105 123.961 208.132C123.993 207.338 123.966 206.543 123.881 205.752C123.732 204.388 123.497 203.568 123.554 203.557Z" fill="#FAFAFA"/>
<path d="M159.284 212.248C158.051 211.722 156.757 211.352 155.431 211.147C154.092 211.038 152.744 211.091 151.418 211.308C151.776 211.122 152.164 211.002 152.565 210.952C154.485 210.584 156.472 210.82 158.252 211.629C158.631 211.772 158.98 211.981 159.284 212.248Z" fill="#FAFAFA"/>
<path d="M186.025 154.709L180.257 169.031L191.11 173.893L193.896 161.715L186.025 154.709Z" fill="#FFBE9D"/>
<path d="M198.477 168.848L188.731 156.75C186.764 154.033 183.634 149.658 183.49 149.297C183.29 148.724 183.215 144.814 183.307 143.822C183.302 142.549 183.22 141.278 183.06 140.015L175.034 143.059L173.319 136.867L172.219 137.211C172.219 137.211 169.312 142.239 170.212 145.1C171.112 147.961 174.913 149.257 175.854 149.836C176.794 150.415 180.366 151.952 184.396 158.035L185.044 158.975L186.678 161.337L194.131 172.058C194.336 172.362 194.6 172.622 194.908 172.821C195.216 173.02 195.561 173.155 195.922 173.217C196.283 173.279 196.654 173.267 197.01 173.182C197.367 173.097 197.702 172.94 197.997 172.722C198.291 172.504 198.538 172.228 198.723 171.911C198.908 171.595 199.027 171.244 199.072 170.88C199.117 170.517 199.089 170.147 198.987 169.795C198.886 169.443 198.715 169.115 198.483 168.831L198.477 168.848Z" fill="#455A64"/>
<path d="M179.334 141.402L177.235 135.485L177.992 135.238C177.992 135.238 181.696 137.532 182.493 140.203L179.334 141.402Z" fill="#455A64"/>
<path d="M177.092 149.216L177.184 149.176L177.436 149.062L178.382 148.637L181.822 147.078L181.736 147.026C181.716 147.376 181.716 147.726 181.736 148.075C181.742 148.471 181.828 148.861 181.988 149.222C182.384 149.899 182.865 150.564 183.359 151.275C184.35 152.679 185.451 154.204 186.615 155.787C186.782 155.975 186.897 156.205 186.948 156.452C186.974 156.63 186.958 156.812 186.899 156.982C186.841 157.152 186.742 157.305 186.611 157.429C186.481 157.553 186.322 157.643 186.149 157.693C185.976 157.742 185.794 157.749 185.617 157.713C185.396 157.663 185.196 157.544 185.044 157.375C184.901 157.197 184.757 156.985 184.614 156.802L183.771 155.655L180.865 151.733C180.661 151.466 180.42 151.231 180.148 151.034C179.896 150.845 179.649 150.684 179.42 150.529C178.955 150.231 178.543 149.99 178.204 149.801C177.866 149.612 177.597 149.469 177.419 149.371L177.207 149.268H177.132C177.132 149.268 177.132 149.268 177.201 149.308L177.402 149.428L178.17 149.881C178.508 150.082 178.909 150.329 179.368 150.632C179.597 150.787 179.844 150.954 180.085 151.143C180.35 151.335 180.584 151.567 180.779 151.831L183.645 155.77L184.482 156.916C184.626 157.111 184.757 157.3 184.918 157.49C185.099 157.684 185.335 157.818 185.595 157.874C185.795 157.916 186.003 157.908 186.201 157.853C186.398 157.797 186.579 157.694 186.728 157.554C186.878 157.413 186.991 157.238 187.058 157.044C187.125 156.85 187.144 156.643 187.114 156.44C187.059 156.169 186.934 155.916 186.753 155.706C185.606 154.124 184.459 152.605 183.485 151.2C182.997 150.495 182.504 149.824 182.12 149.17C181.971 148.836 181.887 148.476 181.874 148.11C181.851 147.764 181.851 147.418 181.874 147.072V146.975L181.788 147.015L178.348 148.654L177.43 149.102L177.195 149.216H177.092Z" fill="#263238"/>
<g opacity="0.3">
<path d="M176.347 146.333L179.953 144.997L179.93 142.979L176.289 144.366L176.347 146.333Z" fill="black"/>
</g>
<path d="M179.162 142.858C179.014 143.34 178.965 143.848 179.018 144.349C178.975 144.851 179.034 145.356 179.19 145.834C179.342 145.353 179.391 144.845 179.334 144.343C179.377 143.842 179.318 143.337 179.162 142.858Z" fill="#263238"/>
<path d="M178.067 143.26C177.919 143.742 177.872 144.249 177.929 144.75C177.883 145.252 177.941 145.758 178.101 146.235C178.249 145.753 178.296 145.246 178.239 144.745C178.285 144.243 178.227 143.737 178.067 143.26Z" fill="#263238"/>
<path d="M177.023 143.518C176.874 144 176.826 144.507 176.88 145.008C176.837 145.51 176.895 146.015 177.052 146.493C177.2 146.011 177.249 145.504 177.195 145.003C177.238 144.501 177.18 143.996 177.023 143.518Z" fill="#263238"/>
<path d="M180.629 168.107L181.019 165.304L181.283 157.85L180.996 152.639C180.996 152.639 182.716 152.771 183.674 155.018C184.631 157.265 184.649 160.7 184.649 160.7C184.649 160.7 191.93 163.566 189.361 170.446" fill="#FFBE9D"/>
<path d="M190.485 156.739C190.551 156.158 190.434 155.571 190.152 155.059C189.965 154.789 189.724 154.561 189.445 154.387C189.166 154.214 188.855 154.099 188.53 154.05C187.943 153.935 187.34 153.935 186.753 154.05L188.123 155.959C187.846 157.109 187.643 158.275 187.515 159.451C187.441 160.053 187.446 160.804 187.968 161.113C188.194 161.215 188.448 161.24 188.69 161.185C188.931 161.13 189.149 160.998 189.31 160.809C189.617 160.414 189.829 159.953 189.929 159.462C190.216 158.578 190.402 157.664 190.485 156.739Z" fill="#FFBE9D"/>
<path d="M192.543 158.946C192.603 158.366 192.487 157.78 192.211 157.266C192.022 156.996 191.781 156.767 191.501 156.594C191.221 156.42 190.908 156.306 190.583 156.257C189.998 156.142 189.396 156.142 188.811 156.257L190.175 158.166C189.901 159.317 189.698 160.483 189.568 161.658C189.499 162.231 189.499 163.011 190.026 163.321C190.253 163.422 190.506 163.447 190.748 163.392C190.99 163.338 191.207 163.206 191.368 163.017C191.673 162.621 191.883 162.16 191.981 161.67C192.27 160.786 192.458 159.872 192.543 158.946Z" fill="#FFBE9D"/>
<path d="M194.693 161.124C194.757 160.541 194.641 159.953 194.361 159.438C194.173 159.169 193.932 158.94 193.653 158.767C193.374 158.593 193.063 158.479 192.738 158.429C192.151 158.32 191.548 158.32 190.961 158.429L192.331 160.339C192.054 161.488 191.851 162.654 191.723 163.83C191.649 164.438 191.655 165.183 192.176 165.499C192.403 165.599 192.657 165.623 192.899 165.568C193.141 165.512 193.358 165.379 193.518 165.189C193.822 164.783 194.028 164.312 194.12 163.813C194.41 162.941 194.602 162.039 194.693 161.124Z" fill="#FFBE9D"/>
<path d="M190.336 155.392C190.578 156.219 190.616 157.092 190.445 157.937C190.372 158.795 190.094 159.622 189.637 160.351C189.551 160.317 189.963 159.262 190.153 157.891C190.342 156.521 190.25 155.403 190.336 155.392Z" fill="#EB996E"/>
<path d="M192.538 158.384C192.698 159.123 192.7 159.888 192.543 160.629C192.385 161.369 192.073 162.067 191.626 162.678C191.546 162.632 192.01 161.749 192.251 160.568C192.492 159.387 192.446 158.39 192.538 158.384Z" fill="#EB996E"/>
<path d="M183.8 155.392C183.944 155.883 184.049 156.386 184.115 156.894C184.282 157.84 184.505 159.187 184.757 160.775L184.666 160.661C185.743 161.034 186.726 161.638 187.546 162.43C188.366 163.222 189.003 164.183 189.413 165.247C189.763 166.122 189.957 167.052 189.986 167.993C190.003 168.625 189.943 169.257 189.809 169.874C189.777 170.104 189.711 170.328 189.614 170.539C189.736 169.7 189.79 168.853 189.774 168.005C189.717 167.092 189.507 166.195 189.155 165.35C188.736 164.313 188.098 163.379 187.286 162.61C186.508 161.867 185.582 161.297 184.568 160.936H184.488V160.855C184.259 159.267 184.075 157.914 183.955 156.957C183.866 156.439 183.814 155.916 183.8 155.392Z" fill="#EB996E"/>
<path d="M183.043 139.997L182.917 140.049L182.55 140.186L181.197 140.691L176.748 142.411L172.305 144.131L170.952 144.635L170.579 144.767C170.499 144.802 170.453 144.813 170.453 144.807L170.573 144.75L170.934 144.595L172.27 144.022C173.417 143.569 174.971 142.95 176.702 142.302C178.434 141.654 180.016 141.046 181.168 140.639C181.742 140.439 182.206 140.278 182.533 140.175L182.906 140.054C182.948 140.028 182.994 140.008 183.043 139.997Z" fill="#263238"/>
<path d="M133.249 206.711C133.249 206.711 140.393 204.756 141.614 204.71C142.549 204.681 147.967 205.598 150.461 206.028C150.928 206.098 151.349 206.347 151.635 206.723C151.921 207.099 152.049 207.572 151.991 208.041C151.98 208.099 151.964 208.156 151.946 208.213C151.837 208.499 151.651 208.75 151.408 208.936C151.165 209.122 150.874 209.237 150.57 209.268C150.93 209.447 151.225 209.735 151.412 210.091C151.599 210.447 151.67 210.853 151.613 211.251C151.418 212.662 149.669 212.702 149.669 212.702C149.669 212.702 149.755 212.794 149.876 212.954C150.049 213.201 150.154 213.49 150.181 213.79C150.207 214.091 150.154 214.393 150.027 214.667C149.9 214.94 149.703 215.176 149.456 215.349C149.209 215.522 148.921 215.628 148.62 215.655L147.823 215.712C148.089 215.872 148.306 216.102 148.45 216.377C148.594 216.652 148.658 216.962 148.637 217.271C148.328 219.123 144.097 218.842 144.097 218.842L132.733 218.624L133.249 206.711Z" fill="#FFBE9D"/>
<path d="M149.836 203.689C149.698 204.262 149.354 205.575 148.225 205.982L142.491 204.882C142.491 204.882 147.003 204.056 147.72 203.414C148.008 203.153 148.326 202.926 148.666 202.737C148.808 202.665 148.969 202.636 149.127 202.653C149.286 202.67 149.436 202.733 149.56 202.834C149.683 202.934 149.775 203.069 149.824 203.22C149.873 203.372 149.877 203.535 149.836 203.689Z" fill="#FFBE9D"/>
<path d="M145.22 205.26C145.22 205.357 146.367 205.65 147.818 205.833C149.268 206.017 150.449 206.154 150.466 206.045C150.484 205.936 149.32 205.655 147.869 205.472C146.419 205.289 145.238 205.157 145.22 205.26Z" fill="#EB996E"/>
<path d="M146.023 208.666C146.023 208.763 146.986 209.096 148.253 209.239C149.52 209.382 150.547 209.291 150.547 209.187C150.547 209.084 149.532 209.01 148.288 208.866C147.044 208.723 146.046 208.562 146.023 208.666Z" fill="#EB996E"/>
<path d="M143.156 207.811C143.065 207.852 143.128 208.184 143.42 208.442C143.713 208.7 144.045 208.723 144.074 208.626C144.102 208.528 143.896 208.362 143.672 208.161C143.449 207.961 143.254 207.766 143.156 207.811Z" fill="#EB996E"/>
<path d="M144.813 212.214C144.813 212.317 145.908 212.535 147.273 212.696C148.637 212.856 149.767 212.908 149.784 212.805C149.801 212.701 148.695 212.489 147.319 212.323C145.943 212.157 144.842 212.111 144.813 212.214Z" fill="#EB996E"/>
<path d="M141.78 210.179C141.735 210.179 141.631 210.259 141.568 210.483C141.494 210.78 141.537 211.094 141.689 211.36C141.838 211.633 142.086 211.838 142.382 211.933C142.6 211.99 142.744 211.933 142.749 211.904C142.755 211.876 142.279 211.664 142.015 211.188C141.752 210.712 141.878 210.213 141.78 210.179Z" fill="#EB996E"/>
<path d="M143.42 215.649C143.42 215.752 144.429 215.866 145.673 215.901C146.917 215.935 147.932 215.901 147.932 215.78C147.932 215.66 146.929 215.563 145.685 215.528C144.441 215.494 143.426 215.545 143.42 215.649Z" fill="#EB996E"/>
<path d="M140.49 213.35C140.444 213.35 140.353 213.447 140.324 213.671C140.302 213.96 140.368 214.25 140.513 214.502C140.857 215.075 141.304 215.333 141.368 215.27C141.431 215.207 141.127 214.8 140.84 214.319C140.553 213.837 140.582 213.378 140.49 213.35Z" fill="#EB996E"/>
<path d="M110.912 150.219C110.683 148.379 108.665 147.089 106.836 147.353C105.927 147.538 105.088 147.974 104.415 148.613C103.742 149.252 103.261 150.066 103.029 150.965C102.584 152.777 102.786 154.687 103.602 156.365C104.175 157.696 105.185 159.008 106.612 159.301C107.275 159.389 107.95 159.305 108.572 159.057C109.193 158.809 109.74 158.405 110.161 157.885C110.992 156.835 111.632 155.647 112.053 154.376L110.912 150.219Z" fill="#263238"/>
<path d="M113.24 149.818C112.935 149.657 112.584 149.61 112.248 149.684C111.912 149.759 111.613 149.951 111.405 150.225C111.005 150.788 110.804 151.468 110.832 152.157C110.799 153.301 111.019 154.439 111.474 155.488C111.522 155.653 111.606 155.806 111.719 155.935C111.831 156.065 111.971 156.169 112.128 156.24C112.288 156.276 112.456 156.265 112.611 156.208C112.765 156.151 112.9 156.05 112.999 155.918C113.196 155.653 113.327 155.344 113.383 155.018C113.842 153.103 113.745 151.096 113.102 149.233" fill="#5DA2EB"/>
<path d="M145.725 140.966C148.947 139.389 150.799 137.755 150.529 136.419C150.26 135.083 143.776 133.013 142.256 132.452C138.673 131.121 135.285 134.286 129.643 135.421C118.652 137.629 110.19 141.654 110.723 144.411C110.987 145.741 113.303 146.533 116.858 146.751" fill="#5DA2EB"/>
<g opacity="0.4">
<path d="M143.804 141.253C146.671 139.854 148.391 138.387 148.064 137.24C147.193 133.995 139.281 134.373 129.534 136.357C119.787 138.341 112.294 141.861 112.787 144.321C113.022 145.502 115.08 146.201 118.222 146.396" fill="black"/>
</g>
<path d="M118.239 145.364C117.917 143.554 117.961 141.698 118.368 139.905C118.775 138.113 119.537 136.42 120.609 134.927C121.681 133.433 123.041 132.17 124.61 131.211C126.178 130.253 127.923 129.618 129.74 129.345C137.016 128.261 143.799 133.358 145.283 140.553C146.585 146.86 147.755 153.253 147.852 155.586C148.139 162.627 144.165 165.585 142.543 166.479C141.955 166.734 141.342 166.926 140.714 167.053C140.708 167.054 140.702 167.057 140.697 167.06C140.692 167.064 140.688 167.069 140.684 167.074C140.681 167.079 140.679 167.085 140.678 167.092C140.677 167.098 140.678 167.104 140.68 167.11L142.675 175.102C143.667 180.36 140.955 185.233 135.72 186.288C130.486 187.343 126.1 183.502 125.005 178.261L118.239 145.364Z" fill="#FFBE9D"/>
<path d="M143.133 144.939C143.188 145.225 143.132 145.52 142.976 145.766C142.821 146.012 142.578 146.19 142.296 146.263C142.159 146.302 142.015 146.313 141.873 146.296C141.732 146.278 141.595 146.233 141.471 146.162C141.347 146.091 141.238 145.996 141.152 145.882C141.065 145.769 141.002 145.639 140.966 145.501C140.912 145.215 140.968 144.919 141.123 144.673C141.279 144.427 141.522 144.25 141.803 144.176C141.941 144.137 142.085 144.126 142.226 144.144C142.368 144.161 142.505 144.207 142.629 144.278C142.753 144.349 142.861 144.444 142.948 144.557C143.034 144.671 143.098 144.801 143.133 144.939Z" fill="#263238"/>
<path d="M143.764 142.554C143.655 142.721 142.698 142.273 141.517 142.514C140.336 142.755 139.59 143.517 139.435 143.403C139.281 143.288 139.435 143.065 139.768 142.715C140.206 142.255 140.778 141.944 141.402 141.826C142.016 141.7 142.655 141.772 143.225 142.033C143.667 142.239 143.816 142.474 143.764 142.554Z" fill="#263238"/>
<path d="M131.518 147.273C131.572 147.558 131.516 147.854 131.361 148.1C131.205 148.346 130.962 148.524 130.681 148.597C130.542 148.638 130.397 148.65 130.253 148.634C130.11 148.617 129.971 148.572 129.846 148.501C129.72 148.43 129.61 148.334 129.522 148.22C129.434 148.105 129.37 147.974 129.333 147.835C129.279 147.549 129.335 147.253 129.49 147.007C129.646 146.761 129.889 146.584 130.17 146.51C130.309 146.469 130.454 146.455 130.598 146.472C130.742 146.488 130.881 146.533 131.007 146.604C131.133 146.675 131.243 146.771 131.331 146.886C131.418 147.001 131.482 147.132 131.518 147.273Z" fill="#263238"/>
<path d="M132.2 145.105C132.097 145.277 131.139 144.83 129.958 145.065C128.777 145.3 128.032 146.074 127.871 145.954C127.797 145.902 127.871 145.616 128.204 145.266C128.646 144.811 129.216 144.501 129.838 144.377C130.453 144.253 131.091 144.327 131.661 144.589C132.068 144.796 132.246 145.025 132.2 145.105Z" fill="#263238"/>
<path d="M138.243 153.006C138.826 152.688 139.446 152.444 140.089 152.278C140.387 152.187 140.662 152.066 140.662 151.854C140.625 151.538 140.494 151.24 140.284 151L138.925 148.878C137.033 145.857 135.594 143.346 135.714 143.271C135.835 143.197 137.475 145.565 139.372 148.609L140.691 150.748C140.953 151.072 141.093 151.477 141.087 151.894C141.065 152.009 141.017 152.118 140.947 152.212C140.876 152.305 140.785 152.381 140.68 152.433C140.522 152.515 140.354 152.575 140.181 152.611C139.555 152.826 138.903 152.959 138.243 153.006Z" fill="#263238"/>
<path d="M140.668 167.07C140.668 167.07 136.179 168.36 129.775 166.072C129.775 166.072 132.791 171.743 141.196 169.22L140.668 167.07Z" fill="#EB996E"/>
<path d="M138.312 155.959C138.03 155.721 137.692 155.558 137.33 155.487C136.967 155.416 136.593 155.438 136.242 155.552C135.987 155.627 135.75 155.753 135.545 155.922C135.34 156.092 135.171 156.301 135.049 156.538C134.929 156.766 134.883 157.026 134.916 157.282C134.95 157.537 135.063 157.776 135.239 157.965C135.47 158.14 135.748 158.241 136.038 158.255C136.327 158.269 136.614 158.196 136.861 158.046C137.382 157.739 137.835 157.329 138.191 156.842C138.308 156.722 138.4 156.579 138.461 156.423C138.49 156.349 138.497 156.269 138.481 156.191C138.465 156.114 138.426 156.043 138.369 155.987" fill="#EB996E"/>
<path d="M134.929 154.525C135.118 154.473 135.376 155.758 136.649 156.446C137.922 157.134 139.269 156.721 139.315 156.899C139.349 156.973 139.063 157.208 138.489 157.34C137.739 157.502 136.955 157.395 136.276 157.036C135.628 156.689 135.137 156.106 134.906 155.408C134.757 154.88 134.837 154.536 134.929 154.525Z" fill="#263238"/>
<path d="M131.885 141.293C131.833 141.637 130.623 141.723 129.27 142.17C127.917 142.617 126.868 143.219 126.627 142.967C126.518 142.846 126.656 142.502 127.046 142.101C127.572 141.596 128.208 141.218 128.904 140.997C129.6 140.777 130.337 140.719 131.059 140.828C131.627 140.932 131.902 141.132 131.885 141.293Z" fill="#263238"/>
<path d="M142.721 139.596C142.566 139.906 141.694 139.791 140.714 139.974C139.734 140.158 138.942 140.548 138.69 140.272C138.581 140.152 138.656 139.86 138.971 139.533C139.393 139.126 139.926 138.854 140.503 138.752C141.08 138.65 141.675 138.722 142.21 138.96C142.612 139.189 142.784 139.447 142.721 139.596Z" fill="#263238"/>
<path d="M134.855 134.057C134.407 135.098 133.735 136.027 132.887 136.777C132.038 137.528 131.034 138.081 129.947 138.397C128.519 138.805 126.822 138.879 125.933 140.054C125.274 140.914 125.274 142.084 125.125 143.156C124.89 144.79 125.303 146.671 124.059 147.743C123.084 148.586 122.167 148.563 121.57 149.704C120.974 150.845 121.089 152.456 121.335 153.791C121.582 155.127 121.909 157.231 120.814 158.08C119.793 153.241 117.179 148.064 116.164 143.225C115.966 142.513 115.904 141.77 115.98 141.035C116.267 139.395 117.838 138.329 119.323 137.595C123.537 135.485 128.181 134.401 132.768 133.335" fill="#263238"/>
<path d="M147.531 135.675C147.531 135.675 142.337 124.546 141.975 124.024C141.614 123.503 137.257 119.054 128.995 119.185L122.407 120.51C122.407 120.51 113.658 125.4 112.409 128.015C111.159 130.629 112.649 141.844 112.649 141.844L130.314 134.121L143.5 134.66L147.531 135.675Z" fill="#5DA2EB"/>
<path d="M126.57 118.279L128.387 117.912C128.751 117.837 129.128 117.87 129.473 118.008C129.817 118.146 130.114 118.382 130.325 118.686C130.686 119.229 130.953 119.827 131.116 120.458C131.661 122.482 134.946 136.437 134.946 136.437L126.61 137.715L123.394 120.315L120.733 121.496L120.682 120.98C120.647 120.667 120.709 120.351 120.859 120.074C120.964 119.884 121.108 119.718 121.282 119.588C121.456 119.459 121.656 119.368 121.869 119.323L126.57 118.279Z" fill="#5DA2EB"/>
<path d="M145.45 137.308L143.764 133.426L130.044 131.993L115.441 139.682L116.359 144.268C116.359 144.268 128.37 136.408 145.45 137.308Z" fill="#455A64"/>
<path d="M142.256 132.452L142.91 132.871L147.921 135.25C147.921 135.25 138.868 134.103 129.998 135.972C121.129 137.842 111.56 142.898 111.56 142.898L116.72 138.174C117.449 136.997 118.405 135.978 119.534 135.177C120.662 134.375 121.939 133.808 123.29 133.507L134.407 131.048C135.743 130.749 137.125 130.72 138.473 130.961C139.82 131.202 141.107 131.709 142.256 132.452Z" fill="#5DA2EB"/>
<path d="M146.682 135.669C146.682 135.669 146.579 135.589 146.356 135.48C146.033 135.317 145.695 135.188 145.346 135.096C144.066 134.757 142.749 134.576 141.425 134.557C137.067 134.491 132.726 135.098 128.554 136.357C126.111 137.033 123.766 137.63 121.674 138.369C119.838 139.034 118.041 139.8 116.29 140.663C115.545 141.035 114.885 141.414 114.323 141.769C113.808 142.045 113.364 142.437 113.028 142.916C112.826 143.236 112.748 143.62 112.81 143.994C112.867 144.246 112.965 144.349 112.976 144.343C112.909 144.121 112.894 143.886 112.931 143.656C112.969 143.426 113.059 143.209 113.194 143.019C113.541 142.598 113.978 142.259 114.472 142.027C115.046 141.695 115.705 141.351 116.45 140.995C117.947 140.307 119.782 139.522 121.828 138.799C123.875 138.077 126.237 137.509 128.708 136.833C132.841 135.596 137.128 134.947 141.442 134.906C142.743 134.895 144.042 135.02 145.318 135.279C146.201 135.474 146.654 135.72 146.682 135.669Z" fill="#263238"/>
<path d="M145.387 137.182C146.975 140.731 152.513 145.782 147.204 150.684C147.204 150.684 145.53 142.657 144.246 139.658C143.919 138.75 143.395 137.925 142.709 137.245" fill="#263238"/>
<path d="M118.159 143.821C116.349 144.171 114.744 145.204 113.676 146.706C112.609 148.208 112.161 150.064 112.426 151.888C112.603 152.834 112.999 153.769 112.879 154.755C112.758 155.741 112.259 156.515 112.024 157.426C111.56 159.227 111.451 162.191 112.087 163.951C113.544 168.136 118.853 173.296 123.663 172.333" fill="#263238"/>
<path d="M121.719 168.865C122.22 168.961 122.737 168.935 123.225 168.788C123.713 168.641 124.158 168.378 124.523 168.022C125.239 167.294 125.751 166.39 126.008 165.402C126.459 163.827 126.525 162.167 126.2 160.561C125.874 158.956 125.168 157.452 124.139 156.177C125.335 154.015 125.978 151.59 126.01 149.119C126.042 146.648 125.463 144.208 124.322 142.016L117.58 144.011L121.719 168.865Z" fill="#263238"/>
<path d="M110.987 154.342C110.715 154.743 110.349 155.072 109.92 155.299C108.911 155.926 107.717 156.187 106.538 156.039C105.356 155.905 104.258 155.361 103.436 154.502C103.073 154.166 102.84 153.714 102.776 153.224C102.993 153.641 103.265 154.026 103.585 154.37C104.409 155.136 105.455 155.622 106.572 155.758C107.691 155.89 108.823 155.669 109.811 155.127C110.568 154.703 110.946 154.302 110.987 154.342Z" fill="#455A64"/>
<path d="M110.471 153.436C110.111 153.664 109.706 153.808 109.284 153.86C108.27 154.061 107.221 154 106.237 153.683C105.253 153.366 104.366 152.803 103.659 152.048C103.349 151.757 103.106 151.401 102.948 151.005C102.989 151.005 103.258 151.378 103.808 151.899C104.526 152.581 105.387 153.093 106.329 153.397C107.271 153.701 108.269 153.788 109.249 153.654C110 153.55 110.453 153.39 110.471 153.436Z" fill="#455A64"/>
<path d="M125.108 143.873C125.126 144.099 125.113 144.327 125.068 144.55C124.986 145.165 124.842 145.77 124.638 146.356C123.973 148.314 122.726 150.023 121.063 151.253C119.399 152.483 117.4 153.174 115.332 153.236C114.713 153.26 114.092 153.219 113.481 153.115C113.254 153.092 113.032 153.036 112.821 152.949C113.652 153.028 114.487 153.053 115.321 153.023C117.331 152.908 119.264 152.211 120.884 151.015C122.503 149.82 123.74 148.179 124.443 146.293C124.711 145.5 124.934 144.692 125.108 143.873Z" fill="#455A64"/>
<path d="M125.32 153.98C125.32 153.98 125.222 154.141 124.987 154.376C124.643 154.71 124.257 154.998 123.841 155.236C122.465 156.012 120.908 156.407 119.329 156.383C117.775 156.345 116.234 156.106 114.742 155.672C114.169 155.511 113.71 155.374 113.395 155.265C113.226 155.225 113.064 155.161 112.913 155.076C113.548 155.164 114.176 155.295 114.794 155.465C116.284 155.837 117.81 156.044 119.346 156.085C120.877 156.105 122.39 155.752 123.755 155.058C124.299 154.733 124.822 154.373 125.32 153.98Z" fill="#455A64"/>
<path d="M147.823 134.516C147.686 134.493 147.551 134.455 147.422 134.401L146.31 134L142.222 132.532L141.167 131.586C140.811 131.231 140.414 130.92 139.986 130.657C139.521 130.4 139.007 130.241 138.478 130.193C137.9 130.172 137.322 130.226 136.758 130.353C134.419 130.743 131.856 131.288 129.184 131.907C126.702 132.48 124.328 133.054 122.161 133.627C121.634 133.733 121.128 133.927 120.665 134.2C120.242 134.454 119.875 134.792 119.587 135.192C119.053 136.024 118.583 136.861 118.136 137.6L114.163 140.536L113.068 141.327C112.945 141.424 112.815 141.51 112.678 141.585C112.786 141.47 112.905 141.367 113.033 141.275L114.088 140.438L117.941 137.44V137.474C118.388 136.717 118.83 135.898 119.38 135.026C119.685 134.589 120.075 134.218 120.527 133.937C121.013 133.661 121.542 133.467 122.092 133.363C124.259 132.79 126.627 132.217 129.121 131.643C131.793 131.024 134.361 130.497 136.718 130.101C137.296 129.976 137.888 129.928 138.478 129.958C139.043 130.011 139.59 130.183 140.083 130.462C140.526 130.737 140.934 131.065 141.299 131.437L142.337 132.394H142.302L146.361 133.948L147.456 134.384C147.582 134.419 147.704 134.463 147.823 134.516Z" fill="#263238"/>
<path d="M125.653 132.59C125.578 132.406 125.524 132.213 125.492 132.017C125.406 131.644 125.291 131.111 125.154 130.446C124.884 129.121 124.529 127.287 124.15 125.286C123.973 124.271 123.795 123.308 123.634 122.419C123.56 121.983 123.491 121.565 123.422 121.169C123.411 121.094 123.384 121.022 123.343 120.957C123.302 120.893 123.247 120.839 123.183 120.797C123.119 120.756 123.047 120.729 122.971 120.718C122.896 120.707 122.819 120.712 122.746 120.734L121.272 121.307C121.092 121.398 120.899 121.46 120.699 121.49C120.859 121.374 121.032 121.278 121.215 121.204C121.559 121.032 122.035 120.797 122.671 120.51C122.773 120.476 122.881 120.465 122.988 120.476C123.095 120.487 123.198 120.521 123.291 120.575C123.384 120.629 123.464 120.703 123.526 120.79C123.588 120.878 123.631 120.978 123.652 121.083C123.732 121.479 123.812 121.897 123.898 122.333C124.064 123.216 124.242 124.179 124.437 125.2C124.81 127.229 125.131 129.07 125.349 130.406C125.458 131.071 125.544 131.615 125.595 131.988C125.645 132.185 125.664 132.388 125.653 132.59Z" fill="#263238"/>
<path d="M133.616 130.818C133.354 130.29 133.152 129.734 133.014 129.161C132.699 128.117 132.338 126.661 131.953 125.05C131.569 123.439 131.243 121.971 131.019 120.91C130.869 120.347 130.769 119.771 130.721 119.19C130.938 119.748 131.106 120.324 131.225 120.91C131.501 121.96 131.862 123.416 132.246 125.027C132.63 126.638 132.951 128.008 133.22 129.155C133.385 129.701 133.517 130.256 133.616 130.818Z" fill="#263238"/>
<path d="M147.68 153.861C148.857 153.809 150.013 153.533 151.086 153.047C152.248 152.55 153.261 151.759 154.027 150.753C154.447 150.11 154.728 149.386 154.853 148.628C154.977 147.87 154.942 147.094 154.749 146.35C154.583 145.599 154.268 144.888 153.823 144.26C153.378 143.632 152.812 143.099 152.158 142.692C151.016 142.121 149.845 141.61 148.649 141.161C147.839 140.812 147.116 140.287 146.533 139.625C146.381 139.449 146.249 139.256 146.138 139.052C146.069 138.908 146.035 138.828 146.046 138.822C146.223 139.083 146.415 139.334 146.619 139.573C147.226 140.179 147.95 140.655 148.746 140.972C149.964 141.398 151.154 141.896 152.313 142.463C153.004 142.882 153.602 143.437 154.072 144.094C154.542 144.752 154.874 145.498 155.047 146.287C155.251 147.071 155.286 147.889 155.151 148.687C155.016 149.486 154.713 150.247 154.262 150.92C153.463 151.962 152.4 152.772 151.183 153.265C150.379 153.616 149.523 153.833 148.649 153.907C148.412 153.924 148.175 153.924 147.938 153.907C147.85 153.909 147.762 153.893 147.68 153.861Z" fill="#263238"/>
<path d="M104.766 151.579C104.766 151.579 104.714 151.579 104.634 151.481C104.519 151.377 104.413 151.262 104.319 151.137C103.979 150.672 103.757 150.131 103.671 149.561C103.531 148.702 103.691 147.821 104.124 147.067C104.412 146.62 104.792 146.24 105.238 145.951C105.684 145.663 106.187 145.473 106.713 145.393C107.238 145.314 107.775 145.348 108.286 145.492C108.798 145.636 109.273 145.888 109.679 146.23C110.317 146.82 110.732 147.611 110.855 148.471C110.942 149.049 110.889 149.639 110.7 150.191C110.649 150.338 110.582 150.478 110.499 150.61C110.448 150.702 110.413 150.747 110.408 150.742C110.402 150.736 110.488 150.535 110.585 150.168C110.723 149.634 110.744 149.077 110.648 148.534C110.506 147.736 110.103 147.008 109.502 146.465C109.121 146.154 108.68 145.927 108.206 145.797C107.732 145.667 107.236 145.638 106.751 145.71C106.265 145.783 105.8 145.957 105.385 146.22C104.97 146.483 104.615 146.83 104.342 147.239C103.936 147.93 103.767 148.736 103.86 149.532C103.928 150.077 104.112 150.601 104.399 151.069C104.628 151.401 104.783 151.556 104.766 151.579Z" fill="#263238"/>
<path d="M122.608 171.381C122.533 171.423 122.452 171.452 122.367 171.467C122.207 171.519 121.972 171.576 121.662 171.651C120.788 171.858 119.898 171.991 119.002 172.047C117.66 172.152 116.311 171.944 115.063 171.439C113.548 170.745 112.303 169.572 111.52 168.102C110.733 166.649 110.322 165.024 110.322 163.372C110.323 162.035 110.516 160.704 110.895 159.422C111.147 158.563 111.461 157.724 111.835 156.911C111.967 156.624 112.076 156.4 112.156 156.257C112.191 156.179 112.235 156.106 112.288 156.039C112.193 156.352 112.078 156.658 111.944 156.956C111.613 157.78 111.332 158.622 111.101 159.479C110.749 160.745 110.574 162.053 110.58 163.366C110.592 164.969 111 166.545 111.766 167.953C112.515 169.369 113.705 170.502 115.155 171.181C116.375 171.689 117.694 171.914 119.013 171.84C119.9 171.804 120.784 171.704 121.656 171.542C121.97 171.468 122.288 171.414 122.608 171.381Z" fill="#263238"/>
<path d="M110.373 157.226C110.366 157.319 110.343 157.41 110.304 157.495C110.214 157.753 110.091 157.997 109.937 158.223C109.364 159.061 108.513 159.67 107.535 159.943C106.865 160.142 106.156 160.174 105.471 160.035C104.683 159.873 103.945 159.527 103.315 159.026C102.62 158.477 102.059 157.777 101.676 156.979C101.275 156.117 101.068 155.178 101.068 154.227C101.06 152.39 101.693 150.608 102.857 149.187C103.313 148.592 103.897 148.106 104.565 147.767C105.234 147.427 105.971 147.243 106.721 147.227C107.737 147.221 108.717 147.607 109.456 148.304C109.73 148.548 109.941 148.855 110.069 149.199C109.868 148.907 109.637 148.636 109.381 148.39C108.642 147.757 107.695 147.418 106.721 147.439C106.008 147.468 105.31 147.655 104.679 147.988C104.047 148.32 103.497 148.788 103.069 149.359C101.954 150.737 101.347 152.455 101.349 154.227C101.349 155.133 101.545 156.029 101.922 156.853C102.286 157.614 102.815 158.284 103.47 158.814C104.063 159.291 104.758 159.626 105.5 159.794C106.151 159.932 106.825 159.912 107.466 159.737C108.407 159.492 109.239 158.939 109.829 158.166C110.035 157.868 110.217 157.553 110.373 157.226Z" fill="#263238"/>
<path d="M274.249 219.191H87.6577C83.0442 219.191 79.3043 222.931 79.3043 227.545V345.279C79.3043 349.892 83.0442 353.632 87.6577 353.632H274.249C278.863 353.632 282.603 349.892 282.603 345.279V227.545C282.603 222.931 278.863 219.191 274.249 219.191Z" fill="#455A64"/>
<path d="M71.3578 344.952H291.615V346.512C291.615 349.218 290.54 351.814 288.626 353.728C286.712 355.642 284.117 356.717 281.41 356.717H81.5632C78.8566 356.717 76.2608 355.642 74.3469 353.728C72.4331 351.814 71.3578 349.218 71.3578 346.512V344.952Z" fill="#455A64"/>
<path d="M276.577 224.535H84.7624V338.067H276.577V224.535Z" fill="#263238"/>
<path d="M160.912 343.691L163.647 348.037H202.106L204.646 343.691H160.912Z" fill="#263238"/>
<path d="M271.147 228.376H90.5874C89.552 228.376 88.7126 229.215 88.7126 230.251V335.824C88.7126 336.86 89.552 337.699 90.5874 337.699H271.147C272.183 337.699 273.022 336.86 273.022 335.824V230.251C273.022 229.215 272.183 228.376 271.147 228.376Z" fill="#EBEBEB"/>
<path d="M272.821 337.865H88.5177L88.7126 236.552H272.821V337.865Z" fill="#FAFAFA"/>
<path d="M103.826 232.613C103.826 232.905 103.739 233.19 103.577 233.432C103.415 233.675 103.184 233.864 102.915 233.975C102.645 234.086 102.349 234.115 102.063 234.058C101.777 234.001 101.514 233.86 101.308 233.653C101.102 233.446 100.963 233.183 100.906 232.897C100.85 232.611 100.88 232.314 100.993 232.045C101.105 231.776 101.295 231.546 101.538 231.385C101.781 231.224 102.066 231.139 102.358 231.14C102.551 231.14 102.743 231.178 102.921 231.252C103.099 231.326 103.261 231.435 103.398 231.572C103.534 231.708 103.642 231.871 103.716 232.05C103.789 232.228 103.826 232.42 103.826 232.613Z" fill="#263238"/>
<path d="M94.9333 232.613C94.9333 232.905 94.8468 233.19 94.6846 233.432C94.5224 233.675 94.292 233.864 94.0224 233.975C93.7528 234.086 93.4563 234.115 93.1703 234.058C92.8843 234.001 92.6218 233.86 92.4159 233.653C92.2101 233.446 92.0702 233.183 92.014 232.897C91.9578 232.611 91.9878 232.314 92.1002 232.045C92.2126 231.776 92.4024 231.546 92.6454 231.385C92.8885 231.224 93.1739 231.139 93.4656 231.14C93.6588 231.14 93.8501 231.178 94.0286 231.252C94.207 231.326 94.3691 231.435 94.5055 231.572C94.6418 231.708 94.7498 231.871 94.8232 232.05C94.8967 232.228 94.9341 232.42 94.9333 232.613Z" fill="#263238"/>
<path d="M99.1874 232.613C99.1874 232.905 99.1008 233.19 98.9387 233.432C98.7765 233.675 98.5461 233.864 98.2765 233.975C98.0069 234.086 97.7103 234.115 97.4244 234.058C97.1384 234.001 96.8759 233.86 96.67 233.653C96.4642 233.446 96.3243 233.183 96.2681 232.897C96.2119 232.611 96.2419 232.314 96.3543 232.045C96.4667 231.776 96.6564 231.546 96.8995 231.385C97.1426 231.224 97.428 231.139 97.7197 231.14C98.1095 231.141 98.4828 231.297 98.7579 231.573C99.033 231.849 99.1874 232.223 99.1874 232.613Z" fill="#263238"/>
<path d="M280.854 343.691C280.854 343.766 235.733 343.823 180.085 343.823C124.437 343.823 79.3043 343.766 79.3043 343.691C79.3043 343.617 124.42 343.56 180.085 343.56C235.75 343.56 280.854 343.617 280.854 343.691Z" fill="#263238"/>
<path d="M204.394 318.091C204.394 318.172 193.34 318.241 179.706 318.241C166.072 318.241 155.019 318.172 155.019 318.091C155.019 318.011 166.072 317.942 179.706 317.942C193.34 317.942 204.394 318.04 204.394 318.091Z" fill="#E0E0E0"/>
<path d="M147.972 292.125H92.9725V333.462H147.972V292.125Z" fill="#F5F5F5"/>
<path d="M92.9954 333.491L112.179 307.777L124.093 323.842L132.16 315.242L147.995 333.44L92.9954 333.491Z" fill="#E0E0E0"/>
<path d="M129.127 304.613C129.128 305.469 128.875 306.306 128.401 307.019C127.926 307.731 127.251 308.287 126.46 308.616C125.67 308.944 124.799 309.031 123.959 308.865C123.12 308.699 122.348 308.288 121.741 307.684C121.135 307.079 120.722 306.308 120.554 305.469C120.386 304.629 120.47 303.759 120.797 302.968C121.123 302.176 121.677 301.499 122.389 301.023C123.1 300.546 123.936 300.291 124.793 300.29C125.361 300.289 125.925 300.399 126.45 300.616C126.976 300.832 127.454 301.151 127.857 301.552C128.259 301.954 128.579 302.431 128.797 302.956C129.015 303.481 129.127 304.044 129.127 304.613Z" fill="#E0E0E0"/>
<path d="M266.647 292.188H211.647V333.526H266.647V292.188Z" fill="#F5F5F5"/>
<path d="M211.664 333.555L230.853 307.841L242.767 323.906L250.828 315.306L266.664 333.503L211.664 333.555Z" fill="#E0E0E0"/>
<path d="M247.801 304.675C247.802 305.533 247.549 306.371 247.073 307.085C246.598 307.798 245.921 308.355 245.129 308.684C244.338 309.013 243.466 309.099 242.625 308.933C241.784 308.766 241.011 308.354 240.404 307.748C239.797 307.142 239.384 306.37 239.216 305.529C239.048 304.688 239.134 303.816 239.462 303.024C239.79 302.231 240.345 301.554 241.058 301.078C241.771 300.601 242.609 300.347 243.467 300.347C244.615 300.347 245.717 300.803 246.53 301.614C247.342 302.426 247.8 303.527 247.801 304.675Z" fill="#E0E0E0"/>
<path d="M257.943 283.972C258.453 283.887 258.97 283.853 259.486 283.869C260.437 283.869 261.779 283.823 263.207 283.823H264.823L264.68 283.967C264.68 282.906 264.709 281.994 264.737 281.347C264.725 281.002 264.754 280.658 264.823 280.32C264.894 280.658 264.925 281.002 264.915 281.347C264.915 281.994 264.955 282.906 264.967 283.967V284.11H263.207C261.756 284.11 260.437 284.11 259.486 284.064C258.97 284.085 258.453 284.054 257.943 283.972Z" fill="#E0E0E0"/>
<path d="M244.183 283.972C246.472 283.774 248.774 283.774 251.063 283.972C248.774 284.171 246.472 284.171 244.183 283.972Z" fill="#E0E0E0"/>
<path d="M230.423 283.972C232.712 283.774 235.014 283.774 237.303 283.972C235.014 284.171 232.712 284.171 230.423 283.972Z" fill="#E0E0E0"/>
<path d="M216.663 283.972C218.952 283.774 221.254 283.774 223.543 283.972C221.254 284.171 218.952 284.171 216.663 283.972Z" fill="#E0E0E0"/>
<path d="M202.903 283.972C205.192 283.774 207.494 283.774 209.783 283.972C207.494 284.171 205.192 284.171 202.903 283.972Z" fill="#E0E0E0"/>
<path d="M189.143 283.972C191.432 283.774 193.734 283.774 196.023 283.972C193.734 284.171 191.432 284.171 189.143 283.972Z" fill="#E0E0E0"/>
<path d="M175.383 283.972C177.672 283.774 179.974 283.774 182.263 283.972C179.974 284.171 177.672 284.171 175.383 283.972Z" fill="#E0E0E0"/>
<path d="M161.623 283.972C163.913 283.774 166.214 283.774 168.503 283.972C166.214 284.171 163.913 284.171 161.623 283.972Z" fill="#E0E0E0"/>
<path d="M147.863 283.973C149.004 283.825 150.155 283.775 151.303 283.824C152.452 283.775 153.603 283.825 154.743 283.973C153.603 284.12 152.452 284.17 151.303 284.122C150.155 284.17 149.004 284.12 147.863 283.973Z" fill="#E0E0E0"/>
<path d="M134.103 283.973C135.244 283.825 136.395 283.775 137.543 283.824C138.692 283.775 139.843 283.825 140.983 283.973C139.843 284.12 138.692 284.17 137.543 284.122C136.395 284.17 135.244 284.12 134.103 283.973Z" fill="#E0E0E0"/>
<path d="M120.343 283.973C121.484 283.825 122.635 283.775 123.783 283.824C124.932 283.775 126.083 283.825 127.223 283.973C126.083 284.12 124.932 284.17 123.783 284.122C122.635 284.17 121.484 284.12 120.343 283.973Z" fill="#E0E0E0"/>
<path d="M106.583 283.973C107.724 283.825 108.875 283.775 110.023 283.824C111.172 283.775 112.323 283.825 113.463 283.973C112.323 284.12 111.172 284.17 110.023 284.122C108.875 284.17 107.724 284.12 106.583 283.973Z" fill="#E0E0E0"/>
<path d="M92.8349 283.967C93.9757 283.825 95.1262 283.777 96.2749 283.824C97.4237 283.775 98.5746 283.825 99.7149 283.973C98.5746 284.12 97.4237 284.17 96.2749 284.122C95.1262 284.168 93.9757 284.12 92.8349 283.978V283.967Z" fill="#E0E0E0"/>
<path d="M92.8349 270.207C93.0337 272.496 93.0337 274.798 92.8349 277.087C92.6362 274.798 92.6362 272.496 92.8349 270.207Z" fill="#E0E0E0"/>
<path d="M92.8349 256.447C92.9825 257.588 93.0323 258.738 92.984 259.887C93.0321 261.036 92.9822 262.187 92.8349 263.327C92.6842 262.187 92.6343 261.036 92.6859 259.887C92.634 258.738 92.6839 257.587 92.8349 256.447Z" fill="#E0E0E0"/>
<path d="M92.8349 242.687C92.9825 243.827 93.0323 244.978 92.984 246.127C93.0321 247.275 92.9822 248.426 92.8349 249.567C92.6842 248.426 92.6343 247.275 92.6859 246.127C92.634 244.978 92.6839 243.827 92.8349 242.687Z" fill="#E0E0E0"/>
<path d="M104.772 240.863C103.631 241.011 102.481 241.06 101.332 241.012C100.183 241.061 99.0321 241.011 97.8917 240.863C99.0317 240.712 100.183 240.662 101.332 240.714C102.481 240.663 103.632 240.713 104.772 240.863Z" fill="#E0E0E0"/>
<path d="M118.532 240.863C117.391 241.011 116.241 241.06 115.092 241.012C113.943 241.061 112.792 241.011 111.652 240.863C112.792 240.712 113.943 240.662 115.092 240.714C116.241 240.663 117.392 240.713 118.532 240.863Z" fill="#E0E0E0"/>
<path d="M132.292 240.863C131.151 241.011 130.001 241.06 128.852 241.012C127.703 241.061 126.552 241.011 125.412 240.863C126.552 240.712 127.703 240.662 128.852 240.714C130.001 240.663 131.152 240.713 132.292 240.863Z" fill="#E0E0E0"/>
<path d="M146.052 240.863C144.911 241.011 143.761 241.06 142.612 241.012C141.463 241.061 140.312 241.011 139.172 240.863C140.312 240.712 141.463 240.662 142.612 240.714C143.761 240.663 144.912 240.713 146.052 240.863Z" fill="#E0E0E0"/>
<path d="M159.812 240.863C157.523 241.062 155.221 241.062 152.932 240.863C154.072 240.712 155.223 240.662 156.372 240.714C157.521 240.663 158.672 240.713 159.812 240.863Z" fill="#E0E0E0"/>
<path d="M173.572 240.864C171.283 241.063 168.981 241.063 166.692 240.864C168.981 240.665 171.283 240.665 173.572 240.864Z" fill="#E0E0E0"/>
<path d="M187.332 240.864C185.043 241.063 182.741 241.063 180.452 240.864C182.741 240.665 185.043 240.665 187.332 240.864Z" fill="#E0E0E0"/>
<path d="M201.092 240.864C198.803 241.063 196.501 241.063 194.212 240.864C196.501 240.665 198.803 240.665 201.092 240.864Z" fill="#E0E0E0"/>
<path d="M214.852 240.864C212.563 241.063 210.261 241.063 207.972 240.864C210.261 240.665 212.563 240.665 214.852 240.864Z" fill="#E0E0E0"/>
<path d="M228.612 240.864C226.323 241.063 224.021 241.063 221.732 240.864C224.021 240.665 226.323 240.665 228.612 240.864Z" fill="#E0E0E0"/>
<path d="M242.372 240.864C240.083 241.063 237.781 241.063 235.492 240.864C237.781 240.665 240.083 240.665 242.372 240.864Z" fill="#E0E0E0"/>
<path d="M256.132 240.864C253.843 241.063 251.541 241.063 249.252 240.864C251.541 240.665 253.843 240.665 256.132 240.864Z" fill="#E0E0E0"/>
<path d="M264.823 245.926C264.676 244.786 264.626 243.635 264.674 242.486C264.674 241.913 264.674 241.374 264.674 240.864L264.806 240.996C264.199 241.019 263.592 240.974 262.995 240.864C263.591 240.75 264.199 240.706 264.806 240.732H264.938V240.87C264.938 241.38 264.938 241.919 264.938 242.492C265.001 243.638 264.962 244.787 264.823 245.926Z" fill="#E0E0E0"/>
<path d="M264.823 259.687C264.676 258.546 264.626 257.395 264.674 256.247C264.626 255.098 264.676 253.947 264.823 252.807C264.974 253.947 265.024 255.098 264.973 256.247C265.024 257.395 264.974 258.547 264.823 259.687Z" fill="#E0E0E0"/>
<path d="M264.823 273.446C264.625 271.157 264.625 268.855 264.823 266.566C265.022 268.855 265.022 271.157 264.823 273.446Z" fill="#E0E0E0"/>
<path d="M204.394 332.029C204.394 332.115 193.34 332.178 179.706 332.178C166.072 332.178 155.019 332.115 155.019 332.029C155.019 331.943 166.072 331.88 179.706 331.88C193.34 331.88 204.394 331.949 204.394 332.029Z" fill="#E0E0E0"/>
<path d="M204.394 325.654C204.394 325.734 193.34 325.803 179.706 325.803C166.072 325.803 155.019 325.734 155.019 325.654C155.019 325.574 166.072 325.505 179.706 325.505C193.34 325.505 204.394 325.574 204.394 325.654Z" fill="#E0E0E0"/>
<path d="M283.217 239.936L115.003 253.44L118.924 302.275L287.138 288.77L283.217 239.936Z" fill="white"/>
<path d="M287.149 288.749C287.092 288.043 285.664 270.694 283.136 239.924L283.233 240.01L115.034 253.58L115.166 253.42C116.519 270.276 117.838 286.673 119.088 302.251L118.933 302.119L239.161 292.527L287.149 288.749L286.329 288.823L283.898 289.03L274.467 289.804L239.27 292.67L118.95 302.417H118.807V302.268C117.551 286.702 116.233 270.293 114.88 253.437V253.288H115.029L283.216 239.82H283.313V239.912C285.733 270.689 287.097 288.043 287.149 288.749Z" fill="#263238"/>
<path d="M172.739 254.691L119.619 258.409L122.414 298.336L175.533 294.618L172.739 254.691Z" fill="#5DA2EB"/>
<path d="M238.737 288.731C237.605 288.974 236.454 289.119 235.297 289.167L235.136 289.029V288.863V288.691C235.136 288.57 235.136 288.462 235.136 288.347C235.136 288.129 235.102 287.917 235.09 287.705C235.09 287.326 235.05 286.965 235.027 286.61C234.979 286.275 234.979 285.935 235.027 285.601C235.139 285.92 235.203 286.254 235.216 286.592C235.257 286.942 235.297 287.303 235.343 287.682C235.343 287.888 235.383 288.106 235.4 288.324L235.434 288.662V288.84V289L235.274 288.863C236.422 288.722 237.581 288.678 238.737 288.731Z" fill="#E0E0E0"/>
<path d="M254.32 287.418C253.042 287.672 251.746 287.831 250.444 287.894C249.15 288.057 247.844 288.116 246.54 288.072C247.818 287.818 249.114 287.659 250.416 287.596C251.71 287.434 253.016 287.374 254.32 287.418Z" fill="#E0E0E0"/>
<path d="M269.857 286.105C268.579 286.359 267.283 286.518 265.982 286.581C264.687 286.74 263.381 286.799 262.077 286.759C263.356 286.505 264.651 286.346 265.953 286.283C267.248 286.12 268.553 286.061 269.857 286.105Z" fill="#E0E0E0"/>
<path d="M280.774 281.73C281.022 282.852 281.17 283.994 281.215 285.142C280.94 285.469 281.135 285.234 281.077 285.308H280.9H280.728H280.384L279.742 285.354L278.652 285.417C278.316 285.466 277.974 285.466 277.637 285.417C277.959 285.306 278.295 285.243 278.635 285.228L279.719 285.102L280.361 285.039L280.705 285.01H280.877H281.049C280.991 285.079 281.186 284.849 280.917 285.17C280.772 284.03 280.724 282.879 280.774 281.73Z" fill="#E0E0E0"/>
<path d="M279.69 268.894C280.083 271.009 280.275 273.157 280.263 275.309C280.026 274.26 279.886 273.191 279.845 272.116C279.697 271.048 279.645 269.97 279.69 268.894Z" fill="#E0E0E0"/>
<path d="M278.606 256.062C278.847 257.111 278.989 258.181 279.031 259.256C279.169 260.324 279.209 261.403 279.151 262.478C278.911 261.427 278.771 260.356 278.732 259.279C278.594 258.213 278.552 257.136 278.606 256.062Z" fill="#E0E0E0"/>
<path d="M274.347 246.505C275.479 246.263 276.63 246.117 277.787 246.069L277.947 246.207V246.373V246.545C277.947 246.666 277.947 246.775 277.947 246.889C277.947 247.107 277.976 247.319 277.993 247.531C277.993 247.91 278.033 248.271 278.05 248.626C278.1 248.961 278.1 249.301 278.05 249.635C277.939 249.316 277.875 248.982 277.861 248.644C277.821 248.294 277.781 247.933 277.735 247.554C277.735 247.348 277.695 247.13 277.672 246.912L277.643 246.574V246.396V246.236L277.809 246.373C276.661 246.514 275.503 246.558 274.347 246.505Z" fill="#E0E0E0"/>
<path d="M258.792 247.818C260.07 247.563 261.366 247.404 262.668 247.342C263.961 247.18 265.264 247.12 266.566 247.165C265.288 247.419 263.993 247.578 262.691 247.64C261.398 247.803 260.094 247.862 258.792 247.818Z" fill="#E0E0E0"/>
<path d="M243.232 249.131C244.51 248.876 245.805 248.717 247.107 248.655C248.402 248.496 249.708 248.436 251.012 248.477C249.731 248.731 248.434 248.89 247.13 248.953C245.838 249.116 244.534 249.175 243.232 249.131Z" fill="#E0E0E0"/>
<path d="M232.31 253.506C232.068 252.383 231.922 251.242 231.874 250.094C232.143 249.768 231.948 250.003 232.012 249.934H232.184H232.361L232.7 249.905L233.342 249.859L234.437 249.796C234.773 249.748 235.115 249.748 235.452 249.796C235.13 249.906 234.794 249.97 234.454 249.985L233.365 250.112L232.722 250.175L232.384 250.203H232.212H232.034L232.172 250.043C232.322 251.191 232.368 252.35 232.31 253.506Z" fill="#E0E0E0"/>
<path d="M233.393 266.342C233.157 265.291 233.017 264.22 232.975 263.143C232.833 262.077 232.793 261 232.854 259.927C233.091 260.976 233.231 262.045 233.273 263.12C233.415 264.188 233.455 265.267 233.393 266.342Z" fill="#E0E0E0"/>
<path d="M234.477 279.173C234.24 278.124 234.1 277.055 234.058 275.98C233.917 274.912 233.876 273.833 233.938 272.758C234.175 273.809 234.315 274.88 234.357 275.957C234.498 277.023 234.539 278.1 234.477 279.173Z" fill="#E0E0E0"/>
<path d="M122.27 297.693L139.017 271.623L151.584 286.295L158.768 277.46L175.257 293.926L122.27 297.693Z" fill="#5DA2EB"/>
<path d="M155.133 267.426C155.192 268.252 155.005 269.076 154.596 269.796C154.186 270.515 153.572 271.097 152.832 271.468C152.092 271.838 151.258 271.981 150.437 271.878C149.616 271.774 148.843 271.43 148.218 270.888C147.592 270.346 147.141 269.63 146.922 268.832C146.703 268.033 146.726 267.188 146.988 266.403C147.249 265.617 147.738 264.927 148.392 264.419C149.046 263.911 149.836 263.609 150.661 263.55C151.768 263.473 152.86 263.837 153.698 264.564C154.537 265.29 155.053 266.32 155.133 267.426Z" fill="#5DA2EB"/>
<g opacity="0.2">
<path d="M122.27 297.693L139.017 271.623L151.584 286.295L158.768 277.46L175.257 293.926L122.27 297.693Z" fill="black"/>
</g>
<g opacity="0.2">
<path d="M155.133 267.426C155.192 268.252 155.005 269.076 154.596 269.796C154.186 270.515 153.572 271.097 152.832 271.468C152.092 271.838 151.258 271.981 150.437 271.878C149.616 271.774 148.843 271.43 148.218 270.888C147.592 270.346 147.141 269.63 146.922 268.832C146.703 268.033 146.726 267.188 146.988 266.403C147.249 265.617 147.738 264.927 148.392 264.419C149.046 263.911 149.836 263.609 150.661 263.55C151.768 263.473 152.86 263.837 153.698 264.564C154.537 265.29 155.053 266.32 155.133 267.426Z" fill="black"/>
</g>
<path d="M227.666 260.958C227.666 261.044 217.374 262.059 204.664 263.252C191.953 264.444 181.638 265.31 181.627 265.224C181.616 265.138 191.947 264.129 204.635 262.931C217.323 261.732 227.66 260.878 227.666 260.958Z" fill="#263238"/>
<path d="M229.002 268.618C229.002 268.704 218.59 269.731 205.741 270.912C192.893 272.093 182.458 272.993 182.447 272.913C182.435 272.832 192.853 271.8 205.713 270.619C218.573 269.438 228.99 268.538 229.002 268.618Z" fill="#263238"/>
<path d="M230.332 276.284C230.332 276.364 219.811 277.402 206.825 278.577C193.839 279.752 183.318 280.681 183.318 280.601C183.318 280.521 193.833 279.483 206.825 278.279C219.817 277.075 230.326 276.186 230.332 276.284Z" fill="#263238"/>
<path d="M230.607 283.875C230.607 283.961 220.075 285.022 207.072 286.203C194.068 287.384 183.508 288.307 183.502 288.227C183.496 288.146 194.034 287.08 207.043 285.905C220.052 284.729 230.601 283.795 230.607 283.875Z" fill="#263238"/>
<path d="M204.827 255.903L180.59 257.849L180.744 259.769L204.981 257.823L204.827 255.903Z" fill="#5DA2EB"/>
<path d="M257.083 273.613C257.003 273.613 256.688 270.792 256.384 267.306C256.08 263.82 255.902 260.971 255.988 260.965C256.074 260.959 256.378 263.786 256.682 267.272C256.986 270.757 257.187 273.607 257.083 273.613Z" fill="#E0E0E0"/>
<path d="M262.381 266.979C262.381 267.059 259.663 267.3 256.304 267.512C252.944 267.724 250.209 267.833 250.209 267.753C252.224 267.47 254.253 267.29 256.287 267.214C259.646 267.013 262.375 266.899 262.381 266.979Z" fill="#E0E0E0"/>
<path d="M283.227 239.912C283.227 239.912 283.09 239.872 282.82 239.769L281.674 239.321L277.156 237.567L260.455 231.025L204.681 209.044H204.801L197.743 212.547L139.263 241.517L121.536 250.261L116.72 252.623L115.459 253.231C115.178 253.368 115.029 253.431 115.029 253.431L115.447 253.202L116.691 252.571L121.496 250.157L139.189 241.322L197.623 212.272L204.681 208.769H204.738H204.801L260.541 230.836L277.167 237.464L281.662 239.27L282.809 239.746L283.227 239.912Z" fill="#263238"/>
<path d="M248.977 159.8C248.674 159.133 248.187 158.566 247.572 158.167C246.957 157.767 246.241 157.553 245.508 157.548C244.775 157.543 244.056 157.748 243.437 158.139C242.817 158.53 242.322 159.091 242.011 159.754L236.019 160.247L242.074 172.19L245.869 165.207C246.286 165.168 246.693 165.057 247.073 164.88C247.532 164.671 247.945 164.375 248.288 164.006C248.632 163.638 248.9 163.206 249.077 162.734C249.254 162.263 249.336 161.761 249.319 161.257C249.301 160.754 249.185 160.259 248.977 159.8Z" fill="#263238"/>
<path d="M214.393 142.508L218.303 140.84L208.872 138.466C208.455 137.816 207.851 137.306 207.14 137.004C206.428 136.703 205.642 136.623 204.885 136.776C204.127 136.928 203.434 137.306 202.895 137.86C202.355 138.414 201.996 139.117 201.864 139.878C201.731 140.64 201.832 141.423 202.152 142.126C202.473 142.83 202.998 143.42 203.66 143.819C204.321 144.219 205.088 144.409 205.859 144.365C206.631 144.322 207.371 144.046 207.983 143.574L216.939 149.056L214.393 142.508Z" fill="#263238"/>
<path d="M289.867 259.732V259.652L225.143 139L224.776 138.317L214.582 142.967L263.39 271.6L263.419 271.68L292.487 317.885L293.06 317.799L293.731 317.702L294.258 317.622L288.244 308.064L291.759 299.011L301.064 302.451L305.163 316.011L305.651 315.942L306.27 315.85L306.843 315.77L289.867 259.732ZM294.052 279.277L282.436 276.296L289.173 263.138L294.052 279.277ZM281.41 276.032L267.123 272.363L288.21 262.754L281.41 276.032ZM286.805 257.479L271.961 253.374L278.05 241.156L286.805 257.479ZM270.947 253.099L257.88 249.487L277.116 240.72L270.947 253.099ZM276.239 237.774L262.559 233.003L267.438 221.365L276.239 237.774ZM261.584 232.665L249.544 228.474L266.566 220.723L261.584 232.665ZM265.5 217.758L253.053 212.381L256.739 201.418L265.5 217.758ZM252.101 211.974L241.437 207.387L255.857 200.816L252.101 211.974ZM254.968 198.093L254.899 198.128L243.702 192.073L246.19 181.724L254.968 198.093ZM243.925 177.516L234.179 170.957L235.469 161.715L243.925 177.516ZM233.204 170.315L225.355 165.04L234.529 160.861L233.204 170.315ZM224.885 142.027L233.175 157.507L224.65 150.323L224.885 142.027ZM223.303 161.308L217.283 145.467L223.589 150.787L223.303 161.308ZM223.641 149.452L216.87 143.747L223.893 140.548L223.641 149.452ZM224.61 151.624L232.814 158.504L224.3 162.386L224.61 151.624ZM225.143 166.153L233.049 171.462L231.455 182.808L225.143 166.153ZM234.001 172.104L243.501 178.485L232.396 183.542L234.001 172.104ZM245.336 180.767L242.744 191.551L233.107 186.328L245.336 180.767ZM233.296 187.613L242.504 192.589L239.666 204.4L233.296 187.613ZM243.444 193.099L253.712 198.649L240.669 204.578L243.444 193.099ZM241.151 208.362L251.763 212.948L247.595 225.349L241.151 208.362ZM252.715 213.355L264.611 218.515L248.518 225.842L252.715 213.355ZM249.137 229.409L261.177 233.605L255.696 246.695L249.137 229.409ZM262.157 233.949L275.184 238.49L256.734 246.89L262.157 233.949ZM257.078 250.341L270.482 254.045L263.671 267.713L257.078 250.341ZM271.52 254.32L286.088 258.333L264.646 268.08L271.52 254.32ZM266.36 273.24L280.969 276.99L275.47 287.722L266.36 273.24ZM281.995 277.253L293.88 280.303L276.267 288.33L281.995 277.253ZM287.602 307.009L279.799 294.602L290.83 298.69L287.602 307.009ZM291.203 297.727L278.899 293.14L278.595 292.664L295.795 284.838L295.973 285.412L291.203 297.727ZM292.171 298.082L296.414 287.08L300.703 301.264L292.171 298.082Z" fill="#263238"/>
<path d="M204.641 196.086C204.641 196.086 204.641 195.742 204.641 195.066C204.641 194.389 204.641 193.391 204.641 192.084C204.641 189.464 204.641 185.611 204.606 180.675C204.606 170.796 204.578 156.595 204.555 139.223V139.114H204.664L222.787 137.193H222.85L222.896 137.245L270.167 190.078L338.967 267.088L359.813 290.44L365.466 296.804L366.928 298.461C367.255 298.833 367.421 299.034 367.421 299.034C367.421 299.034 367.244 298.85 366.905 298.461C366.567 298.071 366.068 297.543 365.421 296.821C364.113 295.376 362.198 293.243 359.727 290.514L338.835 267.214L269.949 190.273L222.706 137.44L222.815 137.486L204.652 139.366L204.755 139.252C204.755 156.612 204.721 170.825 204.704 180.704C204.704 185.64 204.704 189.493 204.704 192.113C204.704 193.42 204.704 194.406 204.704 195.094C204.704 195.782 204.641 196.086 204.641 196.086Z" fill="#263238"/>
<path d="M205.684 179.89H203.219C203.098 179.89 203.001 179.987 203.001 180.108V185.892C203.001 186.013 203.098 186.11 203.219 186.11H205.684C205.804 186.11 205.902 186.013 205.902 185.892V180.108C205.902 179.987 205.804 179.89 205.684 179.89Z" fill="#263238"/>
<path d="M209.376 187.073H199.853C199.572 187.073 199.302 186.962 199.103 186.763C198.904 186.564 198.793 186.294 198.793 186.013C198.793 185.732 198.904 185.462 199.103 185.263C199.302 185.064 199.572 184.952 199.853 184.952H209.382C209.663 184.952 209.933 185.064 210.132 185.263C210.331 185.462 210.443 185.732 210.443 186.013C210.443 186.153 210.415 186.291 210.362 186.42C210.308 186.549 210.229 186.666 210.13 186.765C210.031 186.863 209.913 186.941 209.784 186.994C209.655 187.047 209.516 187.074 209.376 187.073Z" fill="#263238"/>
<path d="M205.306 204.113L205.271 202.754L203.867 203.373C203.818 203.875 203.818 204.38 203.867 204.881C203.869 204.962 203.886 205.042 203.918 205.116C204.005 205.229 204.126 205.311 204.262 205.351C204.878 205.585 205.388 206.033 205.701 206.612C205.804 206.823 205.861 207.053 205.869 207.288C205.876 207.522 205.834 207.755 205.745 207.972C205.655 208.189 205.521 208.384 205.35 208.545C205.18 208.706 204.977 208.829 204.755 208.906C204.319 209.038 203.848 208.991 203.446 208.776C203.044 208.561 202.743 208.195 202.611 207.759C202.611 207.524 202.611 207.186 202.29 207.186C201.826 207.14 201.625 207.816 201.636 208.172C201.711 210.23 203.649 210.884 204.469 210.912C205.025 210.95 205.582 210.831 206.074 210.568C206.463 210.344 206.799 210.037 207.059 209.67C207.318 209.303 207.495 208.883 207.576 208.441C208.023 205.735 205.162 204.285 205.306 204.113Z" fill="#263238"/>
<path d="M206.504 203.436L212.593 188.788C212.719 188.482 212.768 188.15 212.735 187.821C212.703 187.492 212.59 187.176 212.406 186.901C212.223 186.626 211.974 186.401 211.683 186.245C211.391 186.089 211.066 186.007 210.735 186.007H198.563C198.232 186.006 197.906 186.087 197.614 186.242C197.322 186.398 197.072 186.624 196.888 186.899C196.705 187.174 196.592 187.491 196.56 187.82C196.528 188.15 196.578 188.482 196.706 188.788L202.789 203.436C202.942 203.803 203.2 204.116 203.53 204.337C203.861 204.557 204.249 204.675 204.646 204.675C205.044 204.675 205.432 204.557 205.763 204.337C206.093 204.116 206.351 203.803 206.504 203.436Z" fill="#E0E0E0"/>
<path d="M199.183 187.045L197.606 188.616C197.606 188.673 197.606 188.736 197.635 188.794L198.151 190.032L201.138 187.045H199.183Z" fill="#5DA2EB"/>
<path d="M205.059 187.045H203.098L198.724 191.419L199.303 192.801L205.059 187.045Z" fill="#5DA2EB"/>
<path d="M209.245 194.613L210.632 191.265L202.175 199.721L202.749 201.103L209.245 194.613Z" fill="#5DA2EB"/>
<path d="M207.88 197.967L203.356 202.49L203.505 202.857C203.571 203.021 203.671 203.169 203.798 203.291C203.926 203.412 204.078 203.505 204.245 203.563L206.487 201.315L207.88 197.967Z" fill="#5DA2EB"/>
<path d="M208.975 187.045H207.02L199.876 194.183L200.45 195.57L208.975 187.045Z" fill="#5DA2EB"/>
<path d="M211.75 188.186C211.73 187.937 211.633 187.702 211.471 187.512C211.309 187.323 211.092 187.189 210.85 187.131L201 196.952L201.573 198.34L211.75 188.186Z" fill="#5DA2EB"/>
<path d="M361.401 295.875H371.63C372.031 295.875 372.416 296.034 372.7 296.318C372.984 296.602 373.143 296.987 373.143 297.389V302.056H359.888V297.4C359.886 297.2 359.924 297.002 360 296.817C360.075 296.632 360.186 296.464 360.327 296.322C360.468 296.181 360.635 296.068 360.82 295.991C361.004 295.915 361.202 295.875 361.401 295.875Z" fill="#263238"/>
<path d="M336.725 300.519H334.552V287.596C334.553 287.024 334.642 286.455 334.816 285.91L335.911 282.528C335.918 282.514 335.928 282.503 335.941 282.495C335.953 282.488 335.968 282.483 335.983 282.483C335.998 282.483 336.012 282.488 336.025 282.495C336.037 282.503 336.048 282.514 336.054 282.528L337.333 284.821L336.995 285.87C336.817 286.426 336.726 287.006 336.725 287.59V300.519Z" fill="#263238"/>
<path d="M390.28 302.869C389.978 302.131 389.495 301.481 388.874 300.98C388.254 300.479 387.517 300.142 386.731 300.003L332.379 299.974V290.944C332.379 290.655 332.322 290.369 332.212 290.102C332.101 289.835 331.939 289.593 331.734 289.389C331.53 289.185 331.287 289.024 331.02 288.914C330.753 288.804 330.467 288.747 330.178 288.748H303.913C303.448 288.748 302.994 288.895 302.618 289.169C302.242 289.443 301.963 289.83 301.821 290.273L301.035 292.761H303.959C304.293 292.761 304.623 292.834 304.926 292.974C305.229 293.115 305.498 293.32 305.714 293.576C305.924 293.826 306.075 294.122 306.155 294.44C306.234 294.758 306.24 295.09 306.172 295.41L303.363 308.74C303.243 309.24 302.96 309.685 302.558 310.004C302.155 310.323 301.658 310.498 301.144 310.5H295.566C295.492 311.35 295.542 312.205 295.715 313.04L296.024 314.376L281.645 317.203C281.531 317.225 281.425 317.281 281.342 317.362C281.258 317.444 281.2 317.547 281.175 317.661L279.822 321.296C279.735 321.461 279.67 321.636 279.627 321.818C279.34 323.016 279.552 325.023 280.275 325.023H295.68L295.027 325.803L294.155 328.509H392.017C392.04 319.76 391.811 306.573 390.28 302.869ZM322.449 294.602L321.004 307.72C321.004 307.886 320.958 308.052 320.93 308.213C320.639 309.509 319.91 310.666 318.866 311.487C317.821 312.308 316.525 312.743 315.196 312.719H308.741C308.444 312.719 308.151 312.652 307.884 312.524C307.616 312.396 307.38 312.21 307.194 311.979C307.008 311.748 306.875 311.479 306.807 311.19C306.738 310.901 306.735 310.601 306.797 310.311L309.836 294.567C309.939 294.07 310.209 293.622 310.603 293.301C310.997 292.979 311.489 292.803 311.997 292.802H320.827C321.06 292.802 321.29 292.851 321.503 292.946C321.715 293.041 321.905 293.18 322.061 293.354C322.216 293.528 322.333 293.732 322.404 293.954C322.475 294.176 322.498 294.41 322.472 294.642L322.449 294.602Z" fill="#5DA2EB"/>
<path d="M346.518 335.033L304.865 335.607C304.596 335.607 304.114 334.804 304.114 334.534V329.885C304.114 329.754 304.166 329.628 304.258 329.536C304.351 329.444 304.476 329.392 304.607 329.392H346.518C346.582 329.392 346.646 329.404 346.706 329.429C346.765 329.454 346.819 329.491 346.864 329.536C346.91 329.582 346.945 329.637 346.97 329.696C346.994 329.756 347.006 329.82 347.005 329.885V334.534C347.007 334.599 346.995 334.664 346.971 334.724C346.948 334.785 346.912 334.84 346.866 334.886C346.821 334.933 346.767 334.97 346.707 334.995C346.647 335.02 346.583 335.033 346.518 335.033Z" fill="#455A64"/>
<path d="M322.449 294.602L321.004 307.72C321.004 307.886 320.959 308.046 320.93 308.213C320.644 309.511 319.916 310.67 318.87 311.491C317.825 312.312 316.526 312.744 315.197 312.713H308.752C308.455 312.712 308.162 312.645 307.895 312.516C307.627 312.388 307.392 312.201 307.205 311.97C307.019 311.738 306.887 311.468 306.818 311.179C306.75 310.891 306.746 310.59 306.809 310.3L309.847 294.556C309.951 294.059 310.222 293.612 310.616 293.291C311.009 292.969 311.501 292.792 312.009 292.79H320.827C321.06 292.791 321.29 292.841 321.503 292.937C321.716 293.033 321.906 293.172 322.061 293.346C322.216 293.521 322.333 293.725 322.404 293.948C322.475 294.17 322.498 294.404 322.472 294.636L322.449 294.602Z" fill="#5DA2EB"/>
<mask id="mask0_3412_44158" style="mask-type:luminance" maskUnits="userSpaceOnUse" x="306" y="292" width="17" height="21">
<path d="M322.449 294.602L321.004 307.72C321.004 307.886 320.959 308.046 320.93 308.213C320.644 309.511 319.916 310.67 318.87 311.491C317.825 312.312 316.526 312.744 315.197 312.713H308.752C308.455 312.712 308.162 312.645 307.895 312.516C307.627 312.388 307.392 312.201 307.205 311.97C307.019 311.738 306.887 311.468 306.818 311.179C306.75 310.891 306.746 310.59 306.809 310.3L309.847 294.556C309.951 294.059 310.222 293.612 310.616 293.291C311.009 292.969 311.501 292.792 312.009 292.79H320.827C321.06 292.791 321.29 292.841 321.503 292.937C321.716 293.033 321.906 293.172 322.061 293.346C322.216 293.521 322.333 293.725 322.404 293.948C322.475 294.17 322.498 294.404 322.472 294.636L322.449 294.602Z" fill="white"/>
</mask>
<g mask="url(#mask0_3412_44158)">
<path d="M301.821 290.267L295.944 308.528C295.473 309.986 295.394 311.542 295.715 313.04L298.232 324.713H332.379V290.944C332.379 290.36 332.147 289.8 331.734 289.387C331.322 288.974 330.762 288.742 330.178 288.742H303.913C303.448 288.744 302.996 288.892 302.62 289.166C302.244 289.439 301.964 289.825 301.821 290.267Z" fill="#5DA2EB"/>
</g>
<path d="M308.752 312.679C308.456 312.679 308.163 312.613 307.895 312.485C307.627 312.357 307.392 312.17 307.206 311.939C307.019 311.709 306.887 311.439 306.818 311.15C306.75 310.862 306.746 310.561 306.809 310.271L309.847 294.528C309.95 294.03 310.221 293.583 310.615 293.261C311.008 292.939 311.501 292.763 312.009 292.762H320.827C321.061 292.764 321.292 292.817 321.505 292.916C321.717 293.014 321.906 293.157 322.059 293.335C322.215 293.509 322.331 293.714 322.403 293.936C322.474 294.158 322.497 294.393 322.472 294.625L321.004 307.72C321.004 307.886 320.959 308.053 320.93 308.213C320.64 309.51 319.91 310.666 318.866 311.487C317.821 312.308 316.525 312.744 315.197 312.719L308.752 312.679Z" fill="#455A64"/>
<path d="M295.566 310.529C295.621 309.885 295.752 309.25 295.955 308.637L301.058 292.79H303.976C304.31 292.789 304.64 292.861 304.943 293.001C305.246 293.14 305.515 293.344 305.731 293.598C305.943 293.85 306.095 294.146 306.175 294.465C306.256 294.784 306.262 295.117 306.195 295.439L303.38 308.763C303.262 309.263 302.98 309.708 302.579 310.028C302.177 310.348 301.68 310.525 301.167 310.529H295.566Z" fill="#455A64"/>
<path d="M392.098 331.095H294.264C293.519 331.095 293.519 328.389 294.264 328.389H392.098C392.849 328.389 392.849 331.095 392.098 331.095Z" fill="#263238"/>
<path d="M332.465 300.69C332.465 300.69 332.465 300.742 332.465 300.84V301.264C332.465 301.659 332.465 302.204 332.431 302.892C332.385 304.331 332.322 306.372 332.247 308.883C332.173 311.395 332.053 314.433 331.938 317.77C331.903 318.607 331.875 319.49 331.84 320.339C331.855 321.257 331.659 322.167 331.267 322.999C331.025 323.421 330.701 323.791 330.314 324.087C329.927 324.382 329.485 324.597 329.014 324.719C328.08 324.97 327.114 325.086 326.147 325.063L306.361 324.69L300.37 324.541L298.742 324.484H298.318C298.27 324.491 298.222 324.491 298.174 324.484C298.222 324.475 298.27 324.475 298.318 324.484H300.37L306.367 324.541L326.147 324.822C327.087 324.85 328.025 324.742 328.934 324.501C329.366 324.394 329.773 324.202 330.13 323.936C330.487 323.671 330.788 323.336 331.015 322.953C331.397 322.163 331.593 321.296 331.588 320.419C331.628 319.547 331.663 318.699 331.697 317.85C331.835 314.514 331.961 311.503 332.07 308.969C332.179 306.435 332.282 304.417 332.351 302.978C332.385 302.29 332.419 301.745 332.437 301.35C332.437 301.178 332.437 301.04 332.471 300.931C332.445 300.853 332.443 300.769 332.465 300.69Z" fill="#263238"/>
<path d="M304.584 324.851C304.498 324.851 304.435 321.984 304.435 318.447C304.435 314.91 304.498 312.037 304.584 312.037C304.67 312.037 304.733 314.904 304.733 318.447C304.733 321.99 304.664 324.851 304.584 324.851Z" fill="#263238"/>
<path d="M309.704 288.852C309.689 289.161 309.653 289.47 309.595 289.775C309.509 290.348 309.366 291.225 309.177 292.28C308.804 294.39 308.236 297.297 307.525 300.485C306.814 303.672 306.081 306.55 305.519 308.614C305.238 309.652 305.003 310.483 304.825 311.057C304.753 311.36 304.653 311.655 304.527 311.94C304.568 311.632 304.631 311.327 304.716 311.028C304.871 310.397 305.071 309.566 305.318 308.563C305.823 306.482 306.516 303.609 307.233 300.421C307.95 297.234 308.546 294.338 308.953 292.24L309.463 289.757C309.513 289.448 309.593 289.145 309.704 288.852Z" fill="#263238"/>
<path d="M321.027 317.891C321.215 317.846 321.395 317.773 321.561 317.673C321.737 317.54 321.866 317.352 321.927 317.14C321.998 316.861 321.961 316.567 321.824 316.314C321.738 316.168 321.613 316.05 321.463 315.971C321.313 315.892 321.145 315.856 320.976 315.867H319.674H316.699C316.477 315.87 316.265 315.956 316.104 316.108C315.943 316.26 315.844 316.466 315.827 316.687C315.794 316.893 315.833 317.104 315.937 317.285C316.042 317.465 316.205 317.605 316.401 317.678C316.492 317.713 316.589 317.73 316.687 317.73H317.645H318.791C319.485 317.73 320.047 317.759 320.431 317.776C320.633 317.767 320.836 317.787 321.033 317.833C320.836 317.88 320.633 317.899 320.431 317.891C320.047 317.891 319.485 317.925 318.791 317.936H317.645H316.699C316.57 317.938 316.443 317.918 316.32 317.879C316.063 317.787 315.845 317.611 315.703 317.378C315.56 317.146 315.501 316.871 315.535 316.601C315.548 316.306 315.675 316.027 315.888 315.823C316.102 315.619 316.386 315.505 316.681 315.506H319.657H320.959C321.166 315.499 321.372 315.548 321.554 315.649C321.736 315.75 321.887 315.899 321.991 316.079C322.076 316.24 322.123 316.418 322.128 316.601C322.138 316.758 322.119 316.915 322.071 317.065C321.987 317.304 321.823 317.507 321.606 317.638C321.476 317.723 321.326 317.772 321.171 317.782C321.079 317.914 321.027 317.896 321.027 317.891Z" fill="#5DA2EB"/>
<path d="M385.665 303.821C385.665 303.907 381.652 303.97 376.732 303.97C371.813 303.97 367.8 303.907 367.8 303.821C367.8 303.735 371.813 303.672 376.732 303.672C381.652 303.672 385.665 303.741 385.665 303.821Z" fill="#263238"/>
<path d="M385.665 305.598C385.665 305.684 381.652 305.753 376.732 305.753C371.813 305.753 367.8 305.684 367.8 305.598C367.8 305.512 371.813 305.449 376.732 305.449C381.652 305.449 385.665 305.518 385.665 305.598Z" fill="#263238"/>
<path d="M385.665 307.381C385.665 307.462 381.652 307.531 376.732 307.531C371.813 307.531 367.8 307.462 367.8 307.381C367.8 307.301 371.813 307.232 376.732 307.232C381.652 307.232 385.665 307.295 385.665 307.381Z" fill="#263238"/>
<path d="M385.665 309.159C385.665 309.239 381.652 309.308 376.732 309.308C371.813 309.308 367.8 309.239 367.8 309.159C367.8 309.079 371.813 309.01 376.732 309.01C381.652 309.01 385.665 309.073 385.665 309.159Z" fill="#263238"/>
<path d="M385.665 310.936C385.665 311.016 381.652 311.085 376.732 311.085C371.813 311.085 367.8 311.016 367.8 310.936C367.8 310.856 371.813 310.787 376.732 310.787C381.652 310.787 385.665 310.85 385.665 310.936Z" fill="#263238"/>
<path d="M385.665 312.714C385.665 312.794 381.652 312.863 376.732 312.863C371.813 312.863 367.8 312.794 367.8 312.714C367.8 312.633 371.813 312.564 376.732 312.564C381.652 312.564 385.665 312.628 385.665 312.714Z" fill="#263238"/>
<path d="M385.665 314.491C385.665 314.571 381.652 314.64 376.732 314.64C371.813 314.64 367.8 314.571 367.8 314.491C367.8 314.411 371.813 314.342 376.732 314.342C381.652 314.342 385.665 314.405 385.665 314.491Z" fill="#263238"/>
<path d="M284.248 356.717C278.887 356.717 274.375 351.557 274.375 346.179C274.375 340.801 279.094 336.295 284.454 336.295L370.816 332.373C373.008 332.253 375.189 332.757 377.106 333.826C379.023 334.896 380.597 336.487 381.646 338.416C382.924 340.878 383.266 343.719 382.609 346.414C380.316 356.849 371.653 356.734 368.276 356.499C364.899 356.264 284.248 356.717 284.248 356.717Z" fill="#263238"/>
<path d="M284.248 354.182C288.703 354.182 292.315 350.571 292.315 346.116C292.315 341.66 288.703 338.049 284.248 338.049C279.793 338.049 276.181 341.66 276.181 346.116C276.181 350.571 279.793 354.182 284.248 354.182Z" fill="#455A64"/>
<path d="M370.271 354.911C376.034 354.911 380.706 350.24 380.706 344.477C380.706 338.714 376.034 334.042 370.271 334.042C364.508 334.042 359.836 338.714 359.836 344.477C359.836 350.24 364.508 354.911 370.271 354.911Z" fill="#455A64"/>
<path d="M371.435 334.374L371.211 334.408L370.552 334.483L368.018 334.735C365.81 334.953 362.623 335.24 358.672 335.561C350.783 336.209 339.867 336.96 327.798 337.493C315.73 338.026 304.779 338.238 296.838 338.284C292.877 338.284 289.677 338.284 287.459 338.284L284.913 338.25H284.248C284.174 338.259 284.099 338.259 284.024 338.25H284.248H284.913H287.459L296.838 338.158C304.75 338.055 315.69 337.808 327.758 337.281C339.827 336.753 350.743 336.031 358.632 335.435L367.983 334.707L370.523 334.506L371.188 334.466C371.266 334.424 371.349 334.393 371.435 334.374Z" fill="#455A64"/>
<path d="M368.115 353.924C368.115 354.005 349.339 354.074 326.176 354.074C303.013 354.074 284.237 354.005 284.237 353.924C284.237 353.844 303.007 353.775 326.176 353.775C349.344 353.775 368.115 353.838 368.115 353.924Z" fill="#455A64"/>
<path d="M298.633 324.57C298.405 323.905 298.214 323.227 298.06 322.541C297.71 321.285 297.2 319.554 296.684 317.622C296.218 315.98 295.858 314.31 295.606 312.622C295.54 312.107 295.509 311.588 295.514 311.068C295.51 310.875 295.535 310.681 295.589 310.495C295.634 310.495 295.589 311.304 295.812 312.582C296.036 313.861 296.454 315.621 296.959 317.541C297.463 319.462 297.956 321.205 298.255 322.484C298.404 323.12 298.518 323.63 298.576 323.997C298.622 324.184 298.642 324.378 298.633 324.57Z" fill="#5DA2EB"/>
<path d="M364.526 350.921C364.309 350.816 364.106 350.683 363.924 350.525C363.415 350.116 362.964 349.64 362.583 349.109C362.009 348.319 361.584 347.431 361.327 346.489C360.993 345.334 360.938 344.116 361.167 342.936C361.396 341.755 361.903 340.647 362.646 339.701C363.238 338.926 363.964 338.264 364.79 337.746C365.345 337.397 365.945 337.125 366.573 336.937C366.799 336.86 367.034 336.812 367.272 336.794C366.442 337.086 365.648 337.471 364.905 337.941C364.12 338.469 363.43 339.127 362.863 339.884C362.16 340.804 361.679 341.875 361.458 343.012C361.237 344.148 361.283 345.321 361.591 346.437C361.821 347.352 362.209 348.219 362.737 349C363.256 349.709 363.856 350.353 364.526 350.921Z" fill="#FAFAFA"/>
<path d="M319.198 301.895C317.763 303.116 316.266 304.264 314.715 305.335C313.221 306.478 311.667 307.54 310.059 308.517C311.495 307.295 312.991 306.147 314.543 305.077C316.037 303.933 317.591 302.871 319.198 301.895Z" fill="white"/>
<path d="M319.886 299.458C318.645 300.507 317.341 301.479 315.982 302.371C314.679 303.342 313.318 304.232 311.906 305.037C313.149 303.99 314.453 303.018 315.81 302.124C317.114 301.154 318.475 300.263 319.886 299.458Z" fill="white"/>
<path d="M303.053 303.219C302.46 303.817 301.796 304.341 301.075 304.778C300.411 305.301 299.687 305.743 298.92 306.097C299.519 305.503 300.185 304.98 300.903 304.537C301.565 304.015 302.287 303.572 303.053 303.219Z" fill="white"/>
<path d="M304.229 300.938C302.784 302.307 301.207 303.53 299.522 304.59C300.963 303.216 302.54 301.993 304.229 300.938Z" fill="white"/>
<path d="M322.231 314.886C320.099 315.085 317.953 315.085 315.821 314.886C317.953 314.688 320.099 314.688 322.231 314.886Z" fill="#5DA2EB"/>
<path d="M282.643 352.962C282.403 352.947 282.168 352.896 281.943 352.813C281.315 352.613 280.72 352.321 280.177 351.947C279.371 351.389 278.68 350.68 278.142 349.86C277.462 348.858 277.059 347.694 276.974 346.486C276.888 345.278 277.123 344.068 277.655 342.98C278.069 342.092 278.653 341.293 279.375 340.629C279.859 340.181 280.408 339.808 281.003 339.523C281.215 339.413 281.441 339.33 281.674 339.276C280.895 339.684 280.172 340.19 279.524 340.784C278.845 341.441 278.295 342.219 277.901 343.078C277.402 344.128 277.183 345.289 277.265 346.449C277.346 347.61 277.725 348.729 278.366 349.7C278.875 350.503 279.53 351.203 280.298 351.764C281.023 352.265 281.811 352.668 282.643 352.962Z" fill="#FAFAFA"/>
<path d="M294.878 321.135C294.878 321.216 291.77 321.284 287.935 321.284C284.099 321.284 280.986 321.216 280.986 321.135C280.986 321.055 284.093 320.986 287.935 320.986C291.776 320.986 294.878 321.055 294.878 321.135Z" fill="white"/>
<path d="M232.258 151.257L227.029 140.026C226.645 139.2 226.101 138.457 225.43 137.841C224.758 137.226 223.972 136.748 223.116 136.436C222.26 136.124 221.35 135.984 220.44 136.023C219.53 136.063 218.636 136.281 217.81 136.666C216.984 137.05 216.242 137.594 215.626 138.266C215.01 138.937 214.532 139.723 214.22 140.579C213.908 141.436 213.768 142.345 213.808 143.255C213.847 144.165 214.065 145.059 214.45 145.885L219.685 157.111C219.708 157.163 219.741 157.21 219.782 157.249C219.824 157.288 219.873 157.319 219.927 157.338C219.981 157.357 220.038 157.365 220.095 157.362C220.152 157.358 220.207 157.343 220.258 157.317L232.069 151.813C232.167 151.764 232.242 151.678 232.277 151.574C232.313 151.47 232.306 151.356 232.258 151.257Z" fill="#5DA2EB"/>
</svg>
