<svg xmlns="http://www.w3.org/2000/svg" width="359.307" height="224.516" viewBox="0 0 359.307 224.516">
  <g id="Vecteur_3" data-name="Vecteur 3" transform="translate(-260.523 -240.134)">
    <path id="Tracé_20058" data-name="Tracé 20058" d="M227.559,394.54s-41.864-50.43-21.4-102.345c13.336-33.841,63.362-52.384,91.594-33.841,12.024,7.9,50.6.266,71.2-32.431,40.027-63.538,179.723-24.951,154.291,72.6-12.308,47.208,37.457,48.925,12.1,96.114Z" transform="translate(60 69.498)" fill="#ebf3fa"/>
    <g id="Groupe_188" data-name="Groupe 188" transform="translate(279.15 346.732)">
      <g id="Groupe_183" data-name="Groupe 183" transform="translate(32.261 24.094)">
        <path id="Tracé_20059" data-name="Tracé 20059" d="M652.922,1060.646s-4.222-4.925-.26-8.055c0,0,2.894-1.751,5.254-1.609,0,0-3.343,5.606-2.262,6.164s3.275-6.516,3.275-6.516,6.586-.638,8.7.38c0,0-5.63,4.607-4.444,4.881s7.267-4.247,7.267-4.247,6.129,1.043,5.8,4.782-2.438,4.893-3.367,4.795-6.358-2.172-6.476-1.411,3.15,3.246,5.439,3.362c0,0-4.322,4.766-7.193,3.391s-3.117-3.555-4.907-4.373-3.318-.815-2.579.019,3.979,1.645,5,3.455,1.942,3.033-1.029,2.586-7.8-2.622-8.014-5.111Z" transform="translate(-645.786 -1050.432)" fill="#c8dbf4"/>
        <g id="Groupe_182" data-name="Groupe 182" transform="translate(0 6.066)">
          <path id="Tracé_20060" data-name="Tracé 20060" d="M660.949,1099.2s-16.647-.641-20.324,4.119a12.041,12.041,0,0,1-3.315,4.653l-.39,1.063s2.885-3.042,3.917-3.225C640.836,1105.805,639.223,1099.908,660.949,1099.2Z" transform="translate(-633.488 -1099.168)" fill="#c8dbf4"/>
          <path id="Tracé_20061" data-name="Tracé 20061" d="M613.171,1166.923a10.451,10.451,0,0,0-3.821,7.364l.648.059s1.141-4.882,3.2-6.792S613.171,1166.923,613.171,1166.923Z" transform="translate(-609.35 -1158.123)" fill="#c8dbf4"/>
        </g>
      </g>
      <g id="Groupe_185" data-name="Groupe 185" transform="translate(0 10.721)">
        <path id="Tracé_20062" data-name="Tracé 20062" d="M374.807,960.386s6.717-3.761,3.582-8.865c0,0-2.507-3.134-5.194-3.94,0,0,1.433,7.612,0,7.791s-.985-8.6-.985-8.6-7.075-3.4-9.851-3.134c0,0,4.388,7.432,2.955,7.253s-6.358-7.7-6.358-7.7-7.253-1.343-8.418,2.955.717,6.448,1.791,6.717,7.97.179,7.791,1.074-4.836,2.329-7.432,1.522c0,0,2.865,7.074,6.627,6.717s4.925-2.686,7.253-2.865,4.029.448,2.865,1.074-5.1.205-6.986,1.8-3.4,2.584.09,3.3,9.761.269,11.015-2.417Z" transform="translate(-350.171 -942.994)" fill="#c8dbf4"/>
        <g id="Groupe_184" data-name="Groupe 184" transform="translate(3.681 4.498)">
          <path id="Tracé_20063" data-name="Tracé 20063" d="M379.74,979.13s18.806,6.089,20.955,12.9a14.286,14.286,0,0,0,1.791,6.537v1.343s-1.97-4.567-3.045-5.194C399.441,994.712,403.65,988.8,379.74,979.13Z" transform="translate(-379.74 -979.13)" fill="#c8dbf4"/>
          <path id="Tracé_20064" data-name="Tracé 20064" d="M556.156,1129.361a12.4,12.4,0,0,1,1.247,9.765l-.746-.2s.724-5.905-.793-8.875S556.156,1129.361,556.156,1129.361Z" transform="translate(-533.411 -1109.929)" fill="#c8dbf4"/>
        </g>
      </g>
      <g id="Groupe_187" data-name="Groupe 187" transform="translate(29.5 0)">
        <path id="Tracé_20065" data-name="Tracé 20065" d="M592.992,879.791s-8.854-4.958-4.721-11.687c0,0,3.3-4.131,6.846-5.194,0,0-1.888,10.034,0,10.27s1.3-11.332,1.3-11.332,9.326-4.486,12.985-4.131c0,0-5.784,9.8-3.9,9.562s8.381-10.152,8.381-10.152,9.562-1.771,11.1,3.9-.945,8.5-2.361,8.854-10.506.237-10.27,1.417,6.374,3.069,9.8,2.007c0,0-3.778,9.326-8.736,8.854s-6.493-3.541-9.562-3.778-5.312.59-3.778,1.417,6.729.271,9.207,2.379,4.486,3.406-.118,4.35-12.867.354-14.52-3.188Z" transform="translate(-587.171 -856.865)" fill="#d4e4f8"/>
        <g id="Groupe_186" data-name="Groupe 186" transform="translate(1.144 5.928)">
          <path id="Tracé_20066" data-name="Tracé 20066" d="M644.943,904.49s-24.789,8.027-27.622,17a18.829,18.829,0,0,1-2.361,8.617v1.771s2.6-6.021,4.013-6.846C618.974,925.03,613.425,917.239,644.943,904.49Z" transform="translate(-612.645 -904.49)" fill="#d4e4f8"/>
          <path id="Tracé_20067" data-name="Tracé 20067" d="M598.679,1102.53a16.35,16.35,0,0,0-1.643,12.872l.983-.264s-.955-7.783,1.046-11.7S598.679,1102.53,598.679,1102.53Z" transform="translate(-596.364 -1076.914)" fill="#d4e4f8"/>
        </g>
      </g>
      <path id="Tracé_20068" data-name="Tracé 20068" d="M509.552,1214.823a17.342,17.342,0,0,0,17.342-17.343H492.21A17.343,17.343,0,0,0,509.552,1214.823Z" transform="translate(-474.53 -1155.082)" fill="#d4e4f8"/>
      <path id="Tracé_20069" data-name="Tracé 20069" d="M525.444,1328.85H490.28a2.14,2.14,0,0,1,2.14-2.14H523.3a2.139,2.139,0,0,1,2.14,2.14Z" transform="translate(-472.84 -1268.226)" fill="#d4e4f8"/>
      <rect id="Rectangle_1489" data-name="Rectangle 1489" width="35.649" height="0.532" transform="translate(17.11 42.398)" fill="#9fc1f4"/>
    </g>
    <g id="Groupe_192" data-name="Groupe 192" transform="translate(306.851 310.268)">
      <g id="Groupe_189" data-name="Groupe 189" transform="translate(64.224 83.926)">
        <path id="Tracé_20070" data-name="Tracé 20070" d="M1301.053,1480.344l.124,0a1.677,1.677,0,0,0,1.695-1.793l-6.736-67.259-5.876.523,9.671,67.621A1.092,1.092,0,0,0,1301.053,1480.344Z" transform="translate(-1290.26 -1411.29)" fill="#8cb4f4"/>
      </g>
      <g id="Groupe_190" data-name="Groupe 190" transform="translate(8.345 83.926)">
        <path id="Tracé_20071" data-name="Tracé 20071" d="M980.472,1480.344l-.124,0a1.677,1.677,0,0,1-1.695-1.793l6.735-67.259,5.876.523-9.671,67.621A1.094,1.094,0,0,1,980.472,1480.344Z" transform="translate(-978.646 -1411.29)" fill="#8cb4f4"/>
      </g>
      <g id="Groupe_191" data-name="Groupe 191" transform="translate(111.736 83.926)">
        <path id="Tracé_20072" data-name="Tracé 20072" d="M1566,1480.344l.124,0a1.677,1.677,0,0,0,1.695-1.793l-6.735-67.259-5.876.523,9.671,67.621A1.092,1.092,0,0,0,1566,1480.344Z" transform="translate(-1555.21 -1411.29)" fill="#8cb4f4"/>
      </g>
      <path id="Tracé_20073" data-name="Tracé 20073" d="M944.288,1017.422l-11.954-59.035c-1.535-7.993,5.089-15.3,13.688-15.1l23.056.527a18.213,18.213,0,0,1,17.079,13.146l17.489,60.466Z" transform="translate(-932.112 -943.278)" fill="#8cb4f4"/>
      <path id="Tracé_20074" data-name="Tracé 20074" d="M984.618,1017.422l-11.954-59.035c-1.535-7.993,5.089-15.3,13.688-15.1l23.056.527a18.213,18.213,0,0,1,17.079,13.146l17.489,60.466Z" transform="translate(-965.21 -943.278)" fill="#8cb4f4"/>
      <path id="Tracé_20075" data-name="Tracé 20075" d="M1003.342,1367.507h91.215a3.341,3.341,0,0,0,3.332-3.332v-4.1a3.341,3.341,0,0,0-3.332-3.332H1000.01v7.435A3.341,3.341,0,0,0,1003.342,1367.507Z" transform="translate(-987.834 -1282.597)" fill="#8cb4f4"/>
      <path id="Tracé_20076" data-name="Tracé 20076" d="M1245,1367.5h58.147a2.693,2.693,0,0,0,2.685-2.685v-5.4a2.693,2.693,0,0,0-2.685-2.684H1245a2.693,2.693,0,0,0-2.685,2.684v5.4A2.693,2.693,0,0,0,1245,1367.5Z" transform="translate(-1186.692 -1282.588)" fill="#8cb4f4"/>
    </g>
    <g id="Groupe_197" data-name="Groupe 197" transform="translate(289.426 407.531)">
      <path id="Tracé_20077" data-name="Tracé 20077" d="M484.45,1346.2v1.4c0,.489-.158.889-.352.889H433.082c-.193,0-.352-.4-.352-.889v-1.4c0-.489.158-.889.352-.889H484.1C484.291,1345.31,484.45,1345.71,484.45,1346.2Z" transform="translate(-432.73 -1345.31)" fill="#9abfe2"/>
      <path id="Tracé_20078" data-name="Tracé 20078" d="M558.817,1346.2v1.4c0,.489-.146.889-.322.889h-40.5c-.178,0-.322-.4-.322-.889v-1.4c0-.489.146-.889.322-.889h40.5C558.672,1345.31,558.817,1345.71,558.817,1346.2Z" transform="translate(-507.097 -1345.31)" fill="#bad4f4"/>
      <rect id="Rectangle_1490" data-name="Rectangle 1490" width="36.218" height="52.791" transform="translate(2.589 3.177)" fill="#c8dbf4"/>
      <rect id="Rectangle_1491" data-name="Rectangle 1491" width="36.218" height="52.791" transform="translate(12.739 3.177)" fill="#dfebfd"/>
      <g id="Groupe_196" data-name="Groupe 196" transform="translate(14.685 4.668)">
        <g id="Groupe_193" data-name="Groupe 193">
          <path id="Tracé_20079" data-name="Tracé 20079" d="M583.036,1431.195H550.71V1382.81h32.326Zm-31.976-.35h31.628v-47.687H551.06Z" transform="translate(-550.71 -1382.81)" fill="#b7d3f3"/>
        </g>
        <g id="Groupe_194" data-name="Groupe 194" transform="translate(0.174 16.006)">
          <rect id="Rectangle_1492" data-name="Rectangle 1492" width="31.977" height="0.349" fill="#b7d3f3"/>
        </g>
        <g id="Groupe_195" data-name="Groupe 195" transform="translate(0.174 32.324)">
          <rect id="Rectangle_1493" data-name="Rectangle 1493" width="31.977" height="0.349" fill="#b7d3f3"/>
        </g>
        <path id="Tracé_20080" data-name="Tracé 20080" d="M661.468,1400.508h-5.934a.526.526,0,0,1-.524-.524h0a.525.525,0,0,1,.524-.524h5.934a.525.525,0,0,1,.524.524h0A.527.527,0,0,1,661.468,1400.508Z" transform="translate(-642.027 -1397.388)" fill="#b7d3f3"/>
        <path id="Tracé_20081" data-name="Tracé 20081" d="M661.468,1528.7h-5.934a.526.526,0,0,1-.524-.524h0a.526.526,0,0,1,.524-.524h5.934a.526.526,0,0,1,.524.524h0A.526.526,0,0,1,661.468,1528.7Z" transform="translate(-642.027 -1509.621)" fill="#b7d3f3"/>
        <path id="Tracé_20082" data-name="Tracé 20082" d="M661.468,1662.338h-5.934a.526.526,0,0,1-.524-.524h0a.526.526,0,0,1,.524-.524h5.934a.526.526,0,0,1,.524.524h0A.526.526,0,0,1,661.468,1662.338Z" transform="translate(-642.027 -1626.626)" fill="#b7d3f3"/>
      </g>
    </g>
    <g id="Groupe_204" data-name="Groupe 204" transform="translate(458.457 289.8)">
      <path id="Tracé_20083" data-name="Tracé 20083" d="M1815.563,425.47h-22.957a1.921,1.921,0,0,1-1.916-1.916V401.4a1.921,1.921,0,0,1,1.916-1.916h22.957a1.921,1.921,0,0,1,1.916,1.916v22.158A1.921,1.921,0,0,1,1815.563,425.47Z" transform="translate(-1790.69 -399.48)" fill="#c0d8fb"/>
      <path id="Tracé_20084" data-name="Tracé 20084" d="M1822.728,432.267H1801.76a1.755,1.755,0,0,1-1.75-1.75V410.28a1.756,1.756,0,0,1,1.75-1.75h20.968a1.756,1.756,0,0,1,1.75,1.75v20.238A1.754,1.754,0,0,1,1822.728,432.267Z" transform="translate(-1798.85 -407.403)" fill="#dfebfd"/>
      <g id="Groupe_200" data-name="Groupe 200" transform="translate(3.162 2.943)">
        <g id="Groupe_198" data-name="Groupe 198" transform="translate(9.677)">
          <ellipse id="Ellipse_4" data-name="Ellipse 4" cx="0.555" cy="0.555" rx="0.555" ry="0.555" fill="#b7d3f3"/>
          <path id="Tracé_20085" data-name="Tracé 20085" d="M1929.316,431.872a.555.555,0,1,1,.215.754A.555.555,0,0,1,1929.316,431.872Z" transform="translate(-1924.838 -430.532)" fill="#b7d3f3"/>
          <path id="Tracé_20086" data-name="Tracé 20086" d="M1958.844,457.748a.555.555,0,1,1-.166.767A.554.554,0,0,1,1958.844,457.748Z" transform="translate(-1950.529 -453.36)" fill="#b7d3f3"/>
          <path id="Tracé_20087" data-name="Tracé 20087" d="M1972,496.27a.555.555,0,1,1-.555.555A.556.556,0,0,1,1972,496.27Z" transform="translate(-1961.78 -487.165)" fill="#b7d3f3"/>
          <path id="Tracé_20088" data-name="Tracé 20088" d="M1961.442,539.107a.555.555,0,1,1-.784,0A.555.555,0,0,1,1961.442,539.107Z" transform="translate(-1952.197 -524.528)" fill="#b7d3f3"/>
          <path id="Tracé_20089" data-name="Tracé 20089" d="M1933.451,567.177a.554.554,0,1,1-.784,0A.554.554,0,0,1,1933.451,567.177Z" transform="translate(-1927.691 -549.104)" fill="#b7d3f3"/>
          <path id="Tracé_20090" data-name="Tracé 20090" d="M1893.84,578.875a.555.555,0,1,1,.555.555A.556.556,0,0,1,1893.84,578.875Z" transform="translate(-1893.839 -559.002)" fill="#b7d3f3"/>
        </g>
        <g id="Groupe_199" data-name="Groupe 199" transform="translate(0 1.054)">
          <path id="Tracé_20091" data-name="Tracé 20091" d="M1859.326,431.872a.555.555,0,1,0-.215.754A.554.554,0,0,0,1859.326,431.872Z" transform="translate(-1853.034 -431.586)" fill="#b7d3f3"/>
          <path id="Tracé_20092" data-name="Tracé 20092" d="M1829.8,457.748a.555.555,0,1,0,.166.767A.555.555,0,0,0,1829.8,457.748Z" transform="translate(-1827.349 -454.414)" fill="#b7d3f3"/>
          <path id="Tracé_20093" data-name="Tracé 20093" d="M1816.645,496.27a.555.555,0,1,0,.555.555A.556.556,0,0,0,1816.645,496.27Z" transform="translate(-1816.09 -488.219)" fill="#b7d3f3"/>
          <path id="Tracé_20094" data-name="Tracé 20094" d="M1827.208,539.107a.555.555,0,1,0,.784,0A.554.554,0,0,0,1827.208,539.107Z" transform="translate(-1825.682 -525.582)" fill="#b7d3f3"/>
          <ellipse id="Ellipse_5" data-name="Ellipse 5" cx="0.555" cy="0.555" rx="0.555" ry="0.555" transform="translate(4.847 16.857)" fill="#b7d3f3"/>
        </g>
      </g>
      <g id="Groupe_203" data-name="Groupe 203" transform="translate(13.244 5.67)">
        <path id="Tracé_20095" data-name="Tracé 20095" d="M1897.09,496.815a.555.555,0,1,1,.555.555A.556.556,0,0,1,1897.09,496.815Z" transform="translate(-1897.09 -489.883)" fill="#b7d3f3"/>
        <g id="Groupe_201" data-name="Groupe 201" transform="translate(0.479)">
          <rect id="Rectangle_1494" data-name="Rectangle 1494" width="0.152" height="6.933" fill="#b7d3f3"/>
        </g>
        <g id="Groupe_202" data-name="Groupe 202" transform="translate(0.348 3.853)">
          <rect id="Rectangle_1495" data-name="Rectangle 1495" width="4.673" height="0.454" transform="translate(0 2.885) rotate(-38.133)" fill="#b7d3f3"/>
        </g>
      </g>
    </g>
    <path id="Tracé_20096" data-name="Tracé 20096" d="M1273.972,1281.4c-4.935,8.588-11.142,11.9-11.142,11.9H1237.01S1277.736,1274.852,1273.972,1281.4Z" transform="translate(-875.484 -909.346)" fill="#233862"/>
    <path id="Tracé_20097" data-name="Tracé 20097" d="M1614.819,1675.659c-.28,2.709,3.49,3.409,7.86,3.674s3.04,1.146,9.02,2.3,8.4-.464,8.843-1.27c.395-.713-2.38-1.867-5.335-3.168-.373-.163-.744-.33-1.117-.5-3.326-1.5-5.168-4.522-7.743-7.329-2.439-2.658-4.693-11.109-4.693-11.109l-8.123-1.825s2.206,7.609,2.964,10.854c.447,1.91-.265,4.031-.9,5.645A10.7,10.7,0,0,0,1614.819,1675.659Z" transform="translate(-1184.485 -1218.277)" fill="#c67866"/>
    <path id="Tracé_20098" data-name="Tracé 20098" d="M1628.521,1754.836c4.37.265,3.04,1.146,9.02,2.3s8.4-.464,8.843-1.27c.395-.714-2.379-1.867-5.335-3.168l-.047.05a17.054,17.054,0,0,1-9.077.01c-3.952-1.119-7.76-3.529-10.483-4.323a10.639,10.639,0,0,0-.778,2.731C1620.384,1753.871,1624.151,1754.57,1628.521,1754.836Z" transform="translate(-1190.327 -1293.779)" fill="#0f2549"/>
    <path id="Tracé_20099" data-name="Tracé 20099" d="M1193.5,1127.644c-4.372-3.07-33.29-8.541-48.046-10.125l-16.311-14.159s-13.883,20.563-13.994,36.3c-.052,7.336,3.326,8.064,3.328,8.066s52.287.387,54.581.624c3.751.387,8.7,9.734,9.937,18.246s23.041,43.135,23.041,43.135,4.548,1.456,6.649,1.334a6.654,6.654,0,0,0,3.309-.889S1203.359,1134.568,1193.5,1127.644Z" transform="translate(-775.473 -764.386)" fill="#233862"/>
    <path id="Tracé_20100" data-name="Tracé 20100" d="M1539.391,1675.659c-.28,2.709,3.49,3.409,7.86,3.674s3.04,1.146,9.02,2.3,8.4-.464,8.843-1.27c.395-.713-2.38-1.867-5.335-3.168-.371-.163-.744-.33-1.117-.5-3.326-1.5-5.168-4.522-7.743-7.329-2.439-2.658-4.693-11.109-4.693-11.109l-8.125-1.825s2.206,7.609,2.964,10.854c.447,1.91-.265,4.031-.895,5.645A10.694,10.694,0,0,0,1539.391,1675.659Z" transform="translate(-1122.581 -1218.277)" fill="#c67866"/>
    <path id="Tracé_20101" data-name="Tracé 20101" d="M1553.1,1754.836c4.37.265,3.04,1.146,9.02,2.3s8.4-.464,8.843-1.27c.395-.714-2.38-1.867-5.335-3.168l-.047.05a17.054,17.054,0,0,1-9.078.01c-3.952-1.119-7.759-3.529-10.483-4.323a10.649,10.649,0,0,0-.778,2.731C1544.963,1753.871,1548.731,1754.57,1553.1,1754.836Z" transform="translate(-1128.431 -1293.779)" fill="#233862"/>
    <path id="Tracé_20102" data-name="Tracé 20102" d="M1117.419,1127.644c-3.8-2.667-15.221-4.734-27.829-6.269a8.483,8.483,0,0,1-7.2-6.366h0l-29.328-11.649s-13.883,20.563-13.994,36.3c-.052,7.336,3.326,8.064,3.328,8.066s52.287.387,54.581.624c3.751.387,8.7,9.734,9.936,18.246s23.041,43.135,23.041,43.135,4.548,1.456,6.65,1.334a6.653,6.653,0,0,0,3.308-.889S1127.277,1134.568,1117.419,1127.644Z" transform="translate(-713.036 -764.386)" fill="#2b478b"/>
    <path id="Tracé_20103" data-name="Tracé 20103" d="M1013.1,614.839c-4.029-2.116-10.162-2.4-11.159-2.536-11.922-1.6-19.1,15.721-19.52,20.97-.778,9.675-5.9,11.15-13.1,17.21-14.445,12.149-10.209,26.267-2.31,31.513,4.74,3.147,13.092,0,13.092,0,.118.083,22.846-12.705,34.048-18.874C1030.945,660.734,1023.367,620.232,1013.1,614.839Z" transform="translate(-647.959 -361.302)" fill="#233862"/>
    <path id="Tracé_20104" data-name="Tracé 20104" d="M1170.319,787.453c.052.027-5.3,2.46-9.16,1.183-3.633-1.2-6.832-6.665-6.782-6.674,1.576-.228,3.179-1.784,3.628-11l.7.176,11.74,2.968s-.464,3.719-.656,7.236C1169.627,784.293,1169.661,787.1,1170.319,787.453Z" transform="translate(-807.669 -491.593)" fill="#c67866"/>
    <path id="Tracé_20105" data-name="Tracé 20105" d="M1188.732,778.552s0,.766-.439,4.225c-6.64-1.675-9.567-3.877-11.633-6.4Z" transform="translate(-825.956 -496.041)" fill="#aa6550"/>
    <path id="Tracé_20106" data-name="Tracé 20106" d="M1173.277,673.529s-15.524,2.529-16.95-7.164-4.388-15.893,5.462-17.918,12.327,1.391,13.589,4.51S1177.277,672.622,1173.277,673.529Z" transform="translate(-807.995 -390.55)" fill="#c67866"/>
    <path id="Tracé_20107" data-name="Tracé 20107" d="M1154.009,641.032s-7.049,11.129-13.344,13.765-9.386,1.3-9.386,1.3a26.5,26.5,0,0,0,3.61-10.171,4.774,4.774,0,0,1,2.948-3.836C1142.353,640.279,1151.09,637.426,1154.009,641.032Z" transform="translate(-788.714 -383.541)" fill="#233862"/>
    <path id="Tracé_20108" data-name="Tracé 20108" d="M1223.5,641.348s4.132,2.118,5.833,4.1c1.643,1.915,3.54,7.116,3.4,9.45,0,0,2.039-11.19-2.207-15.036C1226.027,635.787,1223.5,641.348,1223.5,641.348Z" transform="translate(-864.396 -382.78)" fill="#233862"/>
    <path id="Tracé_20109" data-name="Tracé 20109" d="M1121.1,856.029c-.472,31.557-.129,24.962-3.581,27.957-.832.721-3.171,1.151-6.248,1.354-9.676.642-26.685-.952-27.332-2.74-2.233-6.187-.656-8.109-2.518-17.583-.193-1.008-.434-2.1-.715-3.285-1.553-6.506-3.063-8.72,2.444-19.172,5-9.468,10.869-17.16,11.337-16.883,13.179,7.824,13.63,1.266,13.63,1.266S1121.328,840.638,1121.1,856.029Z" transform="translate(-746.026 -536.492)" fill="#fff"/>
    <path id="Tracé_20110" data-name="Tracé 20110" d="M1240.13,832.77s13.489,2.286,15.081,8.125,10.964,40.163,10.964,40.163-6.893,1.239-10.078-1.946-11.082-29.547-11.082-29.547Z" transform="translate(-878.044 -542.319)" fill="#fff"/>
    <path id="Tracé_20111" data-name="Tracé 20111" d="M1121.12,1005.266c-9.676.642-26.685-.952-27.333-2.74-2.233-6.187-.656-8.109-2.518-17.583l4.668-13.143s-.771,14.635,3.543,18.485,17.671,7.431,19.769,10.646A11.779,11.779,0,0,1,1121.12,1005.266Z" transform="translate(-755.878 -656.417)" fill="#ebf3ff"/>
    <path id="Tracé_20112" data-name="Tracé 20112" d="M1195.91,1117.337s9.547-2.125,11.086-1.279,5.3,3.933,5.776,5.007-3.429-.814-4.7-1.155c-.821-.22-2.984.531-4.054.888-4.5,1.5-7.266.73-7.266.73Z" transform="translate(-841.754 -774.643)" fill="#c67866"/>
    <path id="Tracé_20113" data-name="Tracé 20113" d="M1019.425,825.71s-13.51.789-17.949,6.979c-6.246,8.712-18.637,45.84-11.536,50.792,8,5.577,36.4,1.46,36.4,1.46s.945-4.417-.369-6.554-22.685-5.59-23.671-6.576,12.328-19.233,12.328-22.191S1019.425,825.71,1019.425,825.71Z" transform="translate(-670.97 -536.525)" fill="#fff"/>
    <path id="Tracé_20114" data-name="Tracé 20114" d="M1260.31,1131.79a18.437,18.437,0,0,0,2.656,2.889,1.954,1.954,0,0,0,1.08.231l-1.349-2.426Z" transform="translate(-894.606 -787.718)" fill="#c67866"/>
    <path id="Tracé_20115" data-name="Tracé 20115" d="M1257.73,1116.97l5.816,2.824a1.037,1.037,0,0,1-.963.373,13.846,13.846,0,0,1-2.523-.694Z" transform="translate(-892.488 -775.555)" fill="#c67866"/>
    <path id="Tracé_20116" data-name="Tracé 20116" d="M1253.59,1144.444h-27.01a2.154,2.154,0,0,1,2.153-2.154h24.856Z" transform="translate(-866.924 -796.335)" fill="#ed7d2b"/>
    <path id="Tracé_20117" data-name="Tracé 20117" d="M1329.686,990.27h41.759l-10.017,29.415H1319.4Z" transform="translate(-943.099 -671.575)" fill="#ed7d2b"/>
    <path id="Tracé_20118" data-name="Tracé 20118" d="M1374.875,990.26l-10.017,29.416H1322.83l10.288-29.416Z" transform="translate(-945.914 -671.567)" fill="#f99746"/>
    <g id="Groupe_208" data-name="Groupe 208" transform="translate(342.617 348.111)">
      <path id="Tracé_20119" data-name="Tracé 20119" d="M1168.143,1160.927h183a1.393,1.393,0,0,0,1.393-1.393v-3.83a1.393,1.393,0,0,0-1.393-1.393h-183a1.394,1.394,0,0,0-1.393,1.393v3.83A1.394,1.394,0,0,0,1168.143,1160.927Z" transform="translate(-1160.44 -1154.31)" fill="#182d4f"/>
      <g id="Groupe_205" data-name="Groupe 205" transform="translate(174.465 3.368)">
        <path id="Tracé_20120" data-name="Tracé 20120" d="M2125.186,1285.352l.079-.009a1.681,1.681,0,0,0,1.483-1.869L2110.44,1173.09l-5.97.17,19.188,110.982A1.37,1.37,0,0,0,2125.186,1285.352Z" transform="translate(-2104.47 -1173.09)" fill="#182d4f"/>
      </g>
      <g id="Groupe_206" data-name="Groupe 206" transform="translate(0 3.368)">
        <path id="Tracé_20121" data-name="Tracé 20121" d="M1133.14,1285.352l-.079-.009a1.68,1.68,0,0,1-1.483-1.869l16.308-110.385,5.97.17-19.187,110.982A1.371,1.371,0,0,1,1133.14,1285.352Z" transform="translate(-1131.564 -1173.09)" fill="#182d4f"/>
      </g>
      <g id="Groupe_207" data-name="Groupe 207" transform="translate(37.751 3.368)">
        <path id="Tracé_20122" data-name="Tracé 20122" d="M1343.66,1285.352l-.079-.009a1.681,1.681,0,0,1-1.483-1.869l16.308-110.385,5.97.17-19.188,110.982A1.371,1.371,0,0,1,1343.66,1285.352Z" transform="translate(-1342.084 -1173.09)" fill="#182d4f"/>
      </g>
    </g>
    <path id="Tracé_20123" data-name="Tracé 20123" d="M552.808,1794.664H201.01a.482.482,0,0,1-.48-.48v-.393a.482.482,0,0,1,.48-.48h351.8a.482.482,0,0,1,.481.48v.393A.482.482,0,0,1,552.808,1794.664Z" transform="translate(59.995 -1330.014)" fill="#2e3552"/>
    <path id="Tracé_20124" data-name="Tracé 20124" d="M1887.37,1722.883h32.361c1.557-1.9.983-8.907.748-11.2-.049-.461-.083-.73-.083-.73s-11.05-8.839-12.569-2.071c-.046.212-.1.42-.163.624-1.912,6.33-10.49,9.207-15.443,10.008C1889,1720.043,1887.811,1721.716,1887.37,1722.883Z" transform="translate(-1409.219 -1259.232)" fill="#233862"/>
    <path id="Tracé_20125" data-name="Tracé 20125" d="M2061.446,1212.26c-1.167,0-55.431,10.188-64.406,21.3-4.483,5.55-5.15,69.651-5.15,69.651s5.547,6.877,17.527,2.884c0,0,8.783-43.857,8.136-57.158-.179-3.678,37.075-.533,43.893-2.3s23.479-16.6,19.808-23.823S2061.446,1212.26,2061.446,1212.26Z" transform="translate(-1494.996 -853.757)" fill="#233862"/>
    <path id="Tracé_20126" data-name="Tracé 20126" d="M1929.442,1124.73s-10.946.147-13.533,1.257-7.84,3.656-6.434,4.047,8.111-.161,9.56.061a24.364,24.364,0,0,0,4.123-.061h5.027Z" transform="translate(-1427.166 -781.923)" fill="#b78876"/>
    <path id="Tracé_20127" data-name="Tracé 20127" d="M1848.938,911.536a20.009,20.009,0,0,0-7.356-3.185,31.806,31.806,0,0,1-5.29-1.092c-3.344-1.178-10.035-7.195-9.527-7.9,1.623-2.261,9.434,2.525,10.8,2.01s-2.62-3.346-1.236-4.343c.725-.52,2.417,2.087,3.8,2.349,1.872.355,3.335,3,3.9,3.136,1.1.269,5.9,3.843,5.9,3.843Z" transform="translate(-1359.459 -594.997)" fill="#b78876"/>
    <path id="Tracé_20128" data-name="Tracé 20128" d="M2074.917,804.59s-8.331,2.582-16.541,25.188-11.326,23.827-14.31,24.713-29.176,6.1-29.176,6.1V867.3h40.357s15.133-14.4,19.67-24.087S2074.917,804.59,2074.917,804.59Z" transform="translate(-1513.871 -519.192)" fill="#ed7d2b"/>
    <path id="Tracé_20129" data-name="Tracé 20129" d="M1807.62,1722.883h32.359c1.557-1.9.983-8.907.748-11.2-.048-.461-.083-.73-.083-.73s-11.05-8.839-12.569-2.071c-.047.212-.1.42-.163.624-1.912,6.33-10.49,9.207-15.443,10.008C1809.25,1720.043,1808.059,1721.716,1807.62,1722.883Z" transform="translate(-1343.77 -1259.232)" fill="#1b3051"/>
    <path id="Tracé_20130" data-name="Tracé 20130" d="M1972.276,1212.26c-1.169,0-55.431,10.188-64.406,21.3-4.483,5.55-5.15,69.651-5.15,69.651s5.548,6.877,17.527,2.884c0,0,8.783-43.857,8.136-57.158-.179-3.678,37.075-.533,43.893-2.3s23.479-16.6,19.808-23.823S1972.276,1212.26,1972.276,1212.26Z" transform="translate(-1421.816 -853.757)" fill="#2b478b"/>
    <path id="Tracé_20131" data-name="Tracé 20131" d="M2294,711.722a52.7,52.7,0,0,0,11.534-2.51c4.422-1.435,7.985-3.533,5.69-7.573-2.116-3.725-5.543-12.045-5.312-18.938l-8.228,6.631-5.589,4.5a67.012,67.012,0,0,0,.635,7.309c.111.848.242,1.765.4,2.742a1.993,1.993,0,0,1-.918,2l-.125.079A3.12,3.12,0,0,0,2294,711.722Z" transform="translate(-1740.144 -419.16)" fill="#b78876"/>
    <path id="Tracé_20132" data-name="Tracé 20132" d="M2298.533,722.828s-.285.965.207,4.524c4.983-.812,9.64-4.788,9.64-4.788-2.537-.7-3.459-3.438-5.349-3.181Z" transform="translate(-1746.583 -449.251)" fill="#aa6550"/>
    <path id="Tracé_20133" data-name="Tracé 20133" d="M2256.093,598.08s19.166,3.185,20.966-8.783,5.485-19.615-6.676-22.154-15.232,1.67-16.8,5.518S2251.152,596.943,2256.093,598.08Z" transform="translate(-1708.751 -323.691)" fill="#b78876"/>
    <path id="Tracé_20134" data-name="Tracé 20134" d="M2242.683,555.715c-.823,2.882,1.379,6.391,5.077,7.548,5.489,1.714,4.275,8.448,6.746,8.357s3.466-3.87,5.672-.852c1.881,2.575-1.565,5.627-1.329,7.04.407,2.425,4.205,7.385,7.627,7.135s9.825-16.512,8.545-21.544-6.4-10.338-11.253-11.07-11.582,1.361-13.137,1.361S2243.127,554.159,2242.683,555.715Z" transform="translate(-1700.674 -312.041)" fill="#2b478b"/>
    <path id="Tracé_20135" data-name="Tracé 20135" d="M2272.417,792.681c-2.77-11.15-10.427-22.849-15.6-22.84-8.823.016-21.5,2.345-26.624,14.977-3.771,9.3-8.8,62.819-3.116,66.624,13,8.7,43.12,26.461,48.471,8.349C2280.448,843.194,2277.225,812.031,2272.417,792.681Z" transform="translate(-1685.904 -490.674)" fill="#f99746"/>
    <path id="Tracé_20136" data-name="Tracé 20136" d="M1996.173,804.626a10.448,10.448,0,0,0-16.17-4.5,98.837,98.837,0,0,0-11.089,10.363c-16.464,17.532-19.81,17.423-22.9,17.061s-29.215-5.907-29.215-5.907a7.891,7.891,0,0,0-2.125,2.582,4.868,4.868,0,0,0-.522,3.583c-1.024-.662,9.26,6.427,14.378,9.253,6.76,3.732,16.946,7.232,21,8.561a5.424,5.424,0,0,0,3.529-.052c6.022-2.17,26.242-10.08,42.7-23.8C2000.1,818.147,1998.506,810.7,1996.173,804.626Z" transform="translate(-1431.087 -513.716)" fill="#f99746"/>
    <path id="Tracé_20137" data-name="Tracé 20137" d="M2304.862,749.849l-2-4.5s-17.878,1.458-20.884,11.633C2281.982,756.983,2295.84,750.066,2304.862,749.849Z" transform="translate(-1733.066 -470.575)" fill="#fff"/>
    <g id="Groupe_212" data-name="Groupe 212" transform="translate(513.635 310.586)">
      <g id="Groupe_209" data-name="Groupe 209" transform="translate(90.774 83.608)">
        <path id="Tracé_20138" data-name="Tracé 20138" d="M2602.244,1480.344l.124,0a1.677,1.677,0,0,0,1.695-1.793l-6.736-67.259-5.876.523,9.671,67.621A1.092,1.092,0,0,0,2602.244,1480.344Z" transform="translate(-2591.45 -1411.29)" fill="#8cb4f4"/>
      </g>
      <g id="Groupe_210" data-name="Groupe 210" transform="translate(56.111 83.608)">
        <path id="Tracé_20139" data-name="Tracé 20139" d="M2408.942,1480.344l.124,0a1.677,1.677,0,0,0,1.694-1.793l-6.734-67.259-5.876.523,9.671,67.621A1.089,1.089,0,0,0,2408.942,1480.344Z" transform="translate(-2398.15 -1411.29)" fill="#8cb4f4"/>
      </g>
      <g id="Groupe_211" data-name="Groupe 211" transform="translate(0 83.608)">
        <path id="Tracé_20140" data-name="Tracé 20140" d="M2087.073,1480.344l-.124,0a1.677,1.677,0,0,1-1.694-1.793l6.735-67.259,5.876.523-9.671,67.621A1.09,1.09,0,0,1,2087.073,1480.344Z" transform="translate(-2085.247 -1411.29)" fill="#73a2e5"/>
      </g>
      <path id="Tracé_20141" data-name="Tracé 20141" d="M2370.388,1019.131l6.391-56.175c.837-8.095-1.87-16.023-13.553-16.636l-20.552-1.252c-12.181-.5-17.68,9.635-19.222,17.439l-12.2,61.75Z" transform="translate(-2270.722 -945.05)" fill="#8cb4f4"/>
      <path id="Tracé_20142" data-name="Tracé 20142" d="M2189.177,1367.507h-91.215a3.341,3.341,0,0,1-3.332-3.332v-4.1a3.341,3.341,0,0,1,3.332-3.332h94.547v7.435A3.341,3.341,0,0,1,2189.177,1367.507Z" transform="translate(-2092.948 -1282.914)" fill="#73a2e5"/>
      <path id="Tracé_20143" data-name="Tracé 20143" d="M2367.7,1367.507h-53.858a2.6,2.6,0,0,1-2.588-2.588v-5.591a2.6,2.6,0,0,1,2.588-2.588h56.446v8.179A2.6,2.6,0,0,1,2367.7,1367.507Z" transform="translate(-2270.722 -1282.914)" fill="#8cb4f4"/>
    </g>
    <text id="Monbarra" transform="translate(388.668 336.082) rotate(-0.188)" fill="#fafafa" font-size="4" font-family="Helvetica"><tspan x="0" y="0">Monbarra</tspan></text>
  </g>
</svg>
