<svg id="vecteur-1" xmlns="http://www.w3.org/2000/svg" width="536" height="965" viewBox="0 0 536 965">
  <rect id="Rectangle_1419" data-name="Rectangle 1419" width="536" height="965" opacity="0.7"/>
  <g id="vecteeur-1">
    <path id="Tracé_19305" data-name="Tracé 19305" d="M244.579,535.793c100.06,5.38,104.361,112.97,93.6,154.93s71.009,51.64,80.689,120.5-53.79,97.91-98.98,98.98-80.69-25.82-88.22-59.17-29.05-49.49-66.7-55.95-105.439-57.02-93.6-122.65c0,0,2.77-69.83,68.319-116.2C183.8,525.033,244.579,535.793,244.579,535.793Z" transform="translate(0 2)" fill="#82b8e8" opacity="0.53"/>
    <path id="Tracé_19306" data-name="Tracé 19306" d="M179.86,700.663s-2.73-34.76,7.5-57.93c4.09-5.45,6.82-3.41,6.82-3.41s1.36,14.31-2.04,27.94-5.45,40.21-5.45,40.21Z" transform="translate(0 1.429)" fill="#61a27d"/>
    <path id="Tracé_19307" data-name="Tracé 19307" d="M177.82,697.943s-.68-16.36-17.72-30.67-20.45-14.31-20.45-14.31,13.63-.68,23.17,5.45,12.95,23.17,13.63,25.9,4.77,13.63,4.77,13.63Z" transform="translate(0 1.422)" fill="#578b71"/>
    <path id="Tracé_19308" data-name="Tracé 19308" d="M188.87,700.443s3.19-16.06,22.23-27.57,22.41-10.99,22.41-10.99-13.36-2.77-23.74,1.82-16.37,20.9-17.46,23.49-6.81,12.73-6.81,12.73Z" transform="translate(0 1.432)" fill="#578b71"/>
    <path id="Tracé_19309" data-name="Tracé 19309" d="M181.22,697.943s-17.72-58.62-33.4-72.25c.68-2.04,19.08,4.09,24.54,19.08s6.82,37.49,8.86,43.62a99.926,99.926,0,0,0,4.77,11.59" transform="translate(0 1.408)" fill="#7cc97d"/>
    <path id="Tracé_19310" data-name="Tracé 19310" d="M179.861,700.663s6.82-32.03,24.54-42.94c1.36,4.09-18.4,37.49-16.36,52.48S179.861,700.663,179.861,700.663Z" transform="translate(0 1.453)" fill="#7cc97d"/>
    <path id="Tracé_19311" data-name="Tracé 19311" d="M170.131,736.773h26.21c1.61-10.93,2.97-20.76,3.22-24.52a35.571,35.571,0,0,0-3.39-17.04H170.3a35.54,35.54,0,0,0-3.39,17.04C167.161,716.013,168.521,725.843,170.131,736.773Z" transform="translate(0 1.509)" fill="#a9a7e7"/>
    <path id="Tracé_19312" data-name="Tracé 19312" d="M408.8,671.493h-48.07v65.04H408.8Z" transform="translate(0 1.496)" fill="#24adb2"/>
    <path id="Tracé_19313" data-name="Tracé 19313" d="M403.859,671.493h-48.07v65.04h48.07Z" transform="translate(0 1.496)" fill="#26c6da"/>
    <path id="Tracé_19314" data-name="Tracé 19314" d="M391.84,664.9H343.77v71.63h48.07Z" transform="translate(0 1.492)" fill="#e1543c"/>
    <path id="Tracé_19315" data-name="Tracé 19315" d="M386.89,664.9H331.75v71.63h55.14Z" transform="translate(0 1.492)" fill="#ff634d"/>
    <path id="Tracé_19316" data-name="Tracé 19316" d="M386.9,664.9h-9.43v71.63h9.43Z" transform="translate(0 1.492)" fill="#eb594d"/>
    <path id="Tracé_19317" data-name="Tracé 19317" d="M111.66,682.8s-7.54,3.77-10.84,14.61,14.61,40.06,14.61,38.64,17.91-9.43,17.91-9.43l-8.95-32.99Z" transform="translate(0 1.501)" fill="#3679c1"/>
    <path id="Tracé_19318" data-name="Tracé 19318" d="M300.01,740.013l-9.96-26.31H265.16l9.96,26.31" transform="translate(0 1.524)" fill="#4f57a0"/>
    <path id="Tracé_19319" data-name="Tracé 19319" d="M209.689,718.913h141.52l2.48-13.27H212.159" transform="translate(0 1.486)" fill="#e2e7ff"/>
    <path id="Tracé_19320" data-name="Tracé 19320" d="M224.69,638.463l-12.53,67.18H353.69l12.24-65.63a4.242,4.242,0,0,0-4.17-5.02H228.86A4.236,4.236,0,0,0,224.69,638.463Z" transform="translate(0 1.423)"/>
    <path id="Tracé_19321" data-name="Tracé 19321" d="M294.4,730.523l37.47-27.92-36.76-2.12-34.64,26.86Z" transform="translate(0 1.501)" fill="#fff"/>
    <path id="Tracé_19322" data-name="Tracé 19322" d="M283.919,721.453l9.43-5.18s9.1-3.77,9.37-3.77,1.06.88.09,2.74-3.53,2.3-3.53,2.3l-1.68,4.68,8.72-1.24,2-.47a39.371,39.371,0,0,1-2,4.36,26.232,26.232,0,0,1-3.89,2.95s-6.24,5.18-8.48,5.77-10.01.94-10.01.94l-4.95-.12-4.6.94a21.286,21.286,0,0,1-2-10.49Z" transform="translate(0 1.516)" fill="#b78876"/>
    <path id="Tracé_19323" data-name="Tracé 19323" d="M339.76,743.133l27.34,178.14h6.59l-17.9-179.08Z" transform="translate(0 2)" fill="#82b8e8"/>
    <path id="Tracé_19324" data-name="Tracé 19324" d="M395.369,743.133l27.34,178.14h6.6L411.4,742.193Z" transform="translate(0 2)" fill="#82b8e8"/>
    <path id="Tracé_19325" data-name="Tracé 19325" d="M235.139,743.133,207.8,921.273h-6.59l17.9-179.08Z" transform="translate(0 2)" fill="#82b8e8"/>
    <path id="Tracé_19326" data-name="Tracé 19326" d="M179.53,743.133l-27.34,178.14H145.6l17.9-179.08Z" transform="translate(0 2)" fill="#82b8e8"/>
    <path id="Tracé_19327" data-name="Tracé 19327" d="M415.17,741.243H169.16v8.48H415.17Z" transform="translate(0 1.553)" fill="#3679c1"/>
    <path id="Tracé_19328" data-name="Tracé 19328" d="M419.88,745.013H176.7a4.71,4.71,0,1,1,0-9.42H419.88a4.71,4.71,0,1,1,0,9.42Z" transform="translate(0 1.543)" fill="#ffc757"/>
    <path id="Tracé_19329" data-name="Tracé 19329" d="M184.85,903.373s1.55-3.79,8.01-3.11,7.26,1.87,8.16,5.04,3.29,6.52,4.8,7.18,7.12,4.1,11.6,4.63,5.1,3.21,4.18,4.49-17.65,3.09-21.38,2.78c0,0-12.59.37-15.6-.47S184.66,904.613,184.85,903.373Z" transform="translate(0 2)" fill="#3679c1"/>
    <path id="Tracé_19330" data-name="Tracé 19330" d="M186.561,876.233l-1.94,29.54a32.927,32.927,0,0,1,8.11,4.05c5.18,3.8,9.42-.8,9.42-.8l1.17-18.59Z" transform="translate(0 2)" fill="#b78876"/>
    <path id="Tracé_19331" data-name="Tracé 19331" d="M224.061,824.193l-19.09,82s-9.9,1.41-21.91-4.24c0,0,10.6-77.05,11.31-82S222.651,819.953,224.061,824.193Z" transform="translate(0 2)" fill="#3679c1"/>
    <path id="Tracé_19332" data-name="Tracé 19332" d="M146.691,612.033s7.84,1.46,12.99,13,3.91,36.87,1.2,40.02-11.63,2.61-24.15-.62c-13.23-3.41-18.5-16.59-21.41-25.31C109.751,622.413,123.381,603.933,146.691,612.033Z" transform="translate(0 1.347)" fill="#b78876"/>
    <path id="Tracé_19333" data-name="Tracé 19333" d="M124.941,679.583l4.51-21.59s11.6-4.24,19.52,3.16l2.69,3.29.92,13.8A79.545,79.545,0,0,1,124.941,679.583Z" transform="translate(0 1.398)" fill="#b78876"/>
    <path id="Tracé_19334" data-name="Tracé 19334" d="M124.691,812.343a195.682,195.682,0,0,0,55.21,6.37c29.96-1.02,33.92-9.51,34.85-17.61s-22.37-13.02-32.5-15.68-44.79-12.63-54.16-2.52S116.531,805.433,124.691,812.343Z" transform="translate(0 2)" fill="#3679c1"/>
    <path id="Tracé_19335" data-name="Tracé 19335" d="M254.83,903.373s1.55-3.79,8.01-3.11,7.26,1.87,8.16,5.04,3.29,6.52,4.8,7.18,7.12,4.1,11.6,4.63,5.1,3.21,4.18,4.49-17.65,3.09-21.38,2.78c0,0-12.59.37-15.6-.47S254.64,904.613,254.83,903.373Z" transform="translate(0 2)" fill="#3679c1"/>
    <path id="Tracé_19336" data-name="Tracé 19336" d="M247.391,878.393l7.07,28.75s5.66-1.41,8.95,1.41,9.43.94,9.43.94l-5.18-22.62Z" transform="translate(0 2)" fill="#b78876"/>
    <path id="Tracé_19337" data-name="Tracé 19337" d="M188.951,782.253c1.41,0,49.48,16.02,58.91,23.09,9.43,7.54,24.51,91.55,25.45,93.43s-13.67,7.07-23.09,5.66c-.47-1.89-22.62-72.7-22.62-77.41,0,0-37.7-1.89-53.73-4.71s-26.86-3.3-33.46-20.74,32.05-18.85,32.05-18.85Z" transform="translate(0 2)" fill="#67a4f4"/>
    <path id="Tracé_19338" data-name="Tracé 19338" d="M271.189,720.273s9.19-.24,9.9.71,4.01,9.43.94,12.96l-2.59,1.89h-8.01Z" transform="translate(0 1.521)" fill="#e2e7ff"/>
    <path id="Tracé_19339" data-name="Tracé 19339" d="M123.33,676.443l2.47-6.36s14.85-4.6,27.57,1.06a25.308,25.308,0,0,1,4.95,8.13Z" transform="translate(0 1.404)" fill="#e2e7ff"/>
    <path id="Tracé_19340" data-name="Tracé 19340" d="M120.15,677.153s1.89-3.3,5.18-3.77,18.38-2.36,28.28.47a16.876,16.876,0,0,1,5.66,3.3s14.14,4.71,18.85,7.54,6.13,24.51,7.07,31.58-1.89,14.61-1.89,14.61,11.31,46.19,11.31,52.78-3.77,14.14-16.97,18.85-49.01,2.83-61.27-4.71c-3.77-7.54-9.43-97.08-10.37-105.57S120.15,677.153,120.15,677.153Z" transform="translate(0 1.62)" fill="#67a4f4"/>
    <path id="Tracé_19341" data-name="Tracé 19341" d="M170.341,682.8s3.53-2.12,12.02,3.53,31.81,26.86,34.64,28.28,57.26,4.24,57.26,4.24,7.78,9.9-.71,17.67c0,0-52.55,2.12-62.44,1.41s-42.89-19.79-42.89-19.79S154.791,698.363,170.341,682.8Z" transform="translate(0 1.504)" fill="#67a4f4"/>
    <path id="Tracé_19342" data-name="Tracé 19342" d="M159.01,714s44.07,23.14,49.21,23.87,24.61,0,24.61,0" transform="translate(0 1.521)" fill="none" stroke="#3679c1" stroke-miterlimit="10" stroke-width="0.826"/>
    <path id="Tracé_19343" data-name="Tracé 19343" d="M218.5,719.873s1.47,8.08-3.67,12.85" transform="translate(0 1.515)" fill="none" stroke="#3679c1" stroke-miterlimit="10" stroke-width="0.826"/>
    <path id="Tracé_19344" data-name="Tracé 19344" d="M221.809,717.673s4.41,6.98,2.2,12.12" transform="translate(0 1.509)" fill="none" stroke="#3679c1" stroke-miterlimit="10" stroke-width="0.826"/>
    <path id="Tracé_19345" data-name="Tracé 19345" d="M158.639,704.823s-3.67-12.85,9.18-21.3" transform="translate(0 1.452)" fill="none" stroke="#3679c1" stroke-miterlimit="10" stroke-width="0.826"/>
    <path id="Tracé_19346" data-name="Tracé 19346" d="M111.259,692.7s-2.57,22.77-2.57,33.42" transform="translate(0 1.49)" fill="none" stroke="#3679c1" stroke-miterlimit="10" stroke-width="0.826"/>
    <path id="Tracé_19347" data-name="Tracé 19347" d="M124.49,677.643s16.89-1.47,30.85,0" transform="translate(0 1.407)" fill="none" stroke="#3679c1" stroke-miterlimit="10" stroke-width="0.826"/>
    <path id="Tracé_19348" data-name="Tracé 19348" d="M235.029,825.643s8.08-2.57,11.02-15.06" transform="translate(0 2)" fill="none" stroke="#3679c1" stroke-miterlimit="10" stroke-width="0.826"/>
    <path id="Tracé_19349" data-name="Tracé 19349" d="M240.539,826.743s4.77-1.47,6.98-8.08" transform="translate(0 2)" fill="none" stroke="#3679c1" stroke-miterlimit="10" stroke-width="0.826"/>
    <path id="Tracé_19350" data-name="Tracé 19350" d="M211.159,841.073l-12.12,60.59" transform="translate(0 2)" fill="none" stroke="#3679c1" stroke-miterlimit="10" stroke-width="0.826"/>
    <path id="Tracé_19351" data-name="Tracé 19351" d="M157.969,627.313a10.9,10.9,0,0,1-4.24,10.6l.35,7.07s2.12,6.36.71,7.07-1.77-.35-1.77-.35-4.6-7.42-6.01-7.78,3.18,9.9,3.18,9.9-4.6,7.07-13.08,8.13l1.77-2.47a17.834,17.834,0,0,1-9.9,2.12c-6.01-.35-10.6-9.54-10.6-9.54s1.06,2.47,0,3.53-7.07-8.13-7.42-19.79l-1.77,3.53a68.055,68.055,0,0,1,3.53-17.32c3.18-9.19,17.32-15.91,25.1-15.91s15.55.71,17.67,0,1.06,5.3,1.06,5.3a23.805,23.805,0,0,0,1.41-4.59c1.41-1.06,3.53,7.42,2.83,10.6l-.71,3.18s2.47-3.18,2.83-4.95C164.329,615.293,163.969,623.073,157.969,627.313Z" transform="translate(0 1.336)"/>
    <path id="Tracé_19352" data-name="Tracé 19352" d="M152.84,644.923s-1.43-4.73-5.35-2.24,1.65,13.63,4.93,12.67S153.7,646.723,152.84,644.923Z" transform="translate(0 1.352)" fill="#b78876"/>
    <path id="Tracé_19353" data-name="Tracé 19353" d="M296.289,726.873l10.01-2,2-4.36" transform="translate(0 1.506)" fill="none" stroke="#a36957" stroke-miterlimit="10" stroke-width="1.281"/>
    <path id="Tracé_19354" data-name="Tracé 19354" d="M305.949,725.1s-5.07,4.24-5.77,4.59-3.89,1.18-3.89,1.18" transform="translate(0 1.515)" fill="none" stroke="#a36957" stroke-miterlimit="10" stroke-width="1.281"/>
    <path id="Tracé_19355" data-name="Tracé 19355" d="M151.25,656.883s-1.41,4.95,7.07,7.78" transform="translate(0 1.375)" fill="none" stroke="#a36957" stroke-miterlimit="10" stroke-width="1.281"/>
    <path id="Tracé_19356" data-name="Tracé 19356" d="M350.279,702.193l-133.4-.55,11.8-63.48,133.36.64Z" transform="translate(0 1.42)" fill="#fff" opacity="0.46"/>
    <path id="Tracé_19357" data-name="Tracé 19357" d="M244.84,662.073a2.284,2.284,0,0,0,2.24,2.71h82.09a2.291,2.291,0,0,0,2.24-1.85l1.21-6.28H245.89Z" transform="translate(0 1.375)" fill="#26c6f8"/>
    <path id="Tracé_19358" data-name="Tracé 19358" d="M339.131,608.4h-82.09a2.29,2.29,0,0,0-2.24,1.85l-8.92,46.4h86.73l8.76-45.54A2.284,2.284,0,0,0,339.131,608.4Z" transform="translate(0 1.33)" fill="#cae5ff"/>
    <path id="Tracé_19359" data-name="Tracé 19359" d="M346.6,617.36c7.957-7.026,9.965-17.753,4.485-23.959s-16.372-5.54-24.329,1.486-9.965,17.752-4.486,23.958S338.644,624.386,346.6,617.36Z" transform="translate(0 1.268)" fill="#3679c1"/>
    <path id="Tracé_19360" data-name="Tracé 19360" d="M357.1,624.353a6.336,6.336,0,0,1-5.8,4.64,3.507,3.507,0,0,1-3.49-4.64,6.336,6.336,0,0,1,5.8-4.64A3.508,3.508,0,0,1,357.1,624.353Z" transform="translate(0 1.3)" fill="#3679c1"/>
    <path id="Tracé_19361" data-name="Tracé 19361" d="M332.309,614.743a1.591,1.591,0,0,1-1.32-.61l-4.39-5.84a2.233,2.233,0,0,1,.74-2.95,2.063,2.063,0,0,1,2.95,0l3.28,4.37,11.71-9.37a2.063,2.063,0,0,1,2.95,0,2.233,2.233,0,0,1-.74,2.95l-13.56,10.85A2.71,2.71,0,0,1,332.309,614.743Z" transform="translate(0 1.265)" fill="#fff"/>
    <path id="Tracé_19362" data-name="Tracé 19362" d="M211.98,577.823h-5.55a1.9,1.9,0,0,1-1.89-2.52l1.38-5.55a3.451,3.451,0,0,1,3.15-2.52h5.55a1.9,1.9,0,0,1,1.89,2.52l-1.38,5.55A3.451,3.451,0,0,1,211.98,577.823Z" transform="translate(0 1.191)" fill="#67a4f4"/>
    <path id="Tracé_19363" data-name="Tracé 19363" d="M207.919,594.1h-5.55a1.9,1.9,0,0,1-1.89-2.52l1.38-5.55a3.451,3.451,0,0,1,3.15-2.52h5.55a1.9,1.9,0,0,1,1.89,2.52l-1.38,5.55A3.451,3.451,0,0,1,207.919,594.1Z" transform="translate(0 1.225)" fill="none" stroke="#3679c1" stroke-miterlimit="10" stroke-width="0.75"/>
    <path id="Tracé_19364" data-name="Tracé 19364" d="M225.579,594.1h-5.55a1.9,1.9,0,0,1-1.89-2.52l1.38-5.55a3.451,3.451,0,0,1,3.15-2.52h5.55a1.9,1.9,0,0,1,1.89,2.52l-1.38,5.55A3.451,3.451,0,0,1,225.579,594.1Z" transform="translate(0 1.225)" fill="#3679c1"/>
    <path id="Tracé_19365" data-name="Tracé 19365" d="M243.239,594.1h-5.55a1.9,1.9,0,0,1-1.89-2.52l1.38-5.55a3.451,3.451,0,0,1,3.15-2.52h5.55a1.9,1.9,0,0,1,1.89,2.52l-1.38,5.55A3.431,3.431,0,0,1,243.239,594.1Z" transform="translate(0 1.225)" fill="#fff"/>
    <path id="Tracé_19366" data-name="Tracé 19366" d="M203.769,610.753h-5.55a1.9,1.9,0,0,1-1.89-2.52l1.38-5.55a3.451,3.451,0,0,1,3.15-2.52h5.55a1.9,1.9,0,0,1,1.89,2.52l-1.38,5.55A3.451,3.451,0,0,1,203.769,610.753Z" transform="translate(0 1.26)" fill="#67a4f4"/>
    <path id="Tracé_19367" data-name="Tracé 19367" d="M199.329,628.543h-5.55a1.9,1.9,0,0,1-1.89-2.52l1.38-5.55a3.451,3.451,0,0,1,3.15-2.52h5.55a1.9,1.9,0,0,1,1.89,2.52l-1.38,5.55A3.441,3.441,0,0,1,199.329,628.543Z" transform="translate(0 1.298)" fill="#fff"/>
    <path id="Tracé_19368" data-name="Tracé 19368" d="M221.429,610.753h-5.55a1.9,1.9,0,0,1-1.89-2.52l1.38-5.55a3.451,3.451,0,0,1,3.15-2.52h5.55a1.9,1.9,0,0,1,1.89,2.52l-1.38,5.55A3.451,3.451,0,0,1,221.429,610.753Z" transform="translate(0 1.26)" fill="#edf4ff"/>
    <path id="Tracé_19369" data-name="Tracé 19369" d="M213.689,641.793h-5.55a1.9,1.9,0,0,1-1.89-2.52l1.38-5.55a3.451,3.451,0,0,1,3.15-2.52h5.55a1.9,1.9,0,0,1,1.89,2.52l-1.38,5.55A3.441,3.441,0,0,1,213.689,641.793Z" transform="translate(0 1.326)" fill="none" stroke="#3679c1" stroke-miterlimit="10" stroke-width="0.75"/>
    <path id="Tracé_19370" data-name="Tracé 19370" d="M380.68,620.223h-2.04a.706.706,0,0,1-.7-.93l.51-2.04a1.278,1.278,0,0,1,1.16-.93h2.04a.706.706,0,0,1,.7.93l-.51,2.04A1.256,1.256,0,0,1,380.68,620.223Z" transform="translate(0 1.285)" fill="#82b8e8"/>
    <path id="Tracé_19371" data-name="Tracé 19371" d="M379.19,626.2h-2.04a.706.706,0,0,1-.7-.93l.51-2.04a1.278,1.278,0,0,1,1.16-.93h2.04a.706.706,0,0,1,.7.93l-.51,2.04A1.268,1.268,0,0,1,379.19,626.2Z" transform="translate(0 1.298)" fill="#82b8e8"/>
    <path id="Tracé_19372" data-name="Tracé 19372" d="M385.68,626.2h-2.04a.706.706,0,0,1-.7-.93l.51-2.04a1.278,1.278,0,0,1,1.16-.93h2.04a.706.706,0,0,1,.7.93l-.51,2.04A1.278,1.278,0,0,1,385.68,626.2Z" transform="translate(0 1.298)" fill="#82b8e8"/>
    <path id="Tracé_19373" data-name="Tracé 19373" d="M392.16,626.2h-2.04a.706.706,0,0,1-.7-.93l.51-2.04a1.278,1.278,0,0,1,1.16-.93h2.04a.706.706,0,0,1,.7.93l-.51,2.04A1.278,1.278,0,0,1,392.16,626.2Z" transform="translate(0 1.298)" fill="#82b8e8"/>
    <path id="Tracé_19374" data-name="Tracé 19374" d="M377.67,632.313h-2.04a.706.706,0,0,1-.7-.93l.51-2.04a1.278,1.278,0,0,1,1.16-.93h2.04a.706.706,0,0,1,.7.93l-.51,2.04A1.266,1.266,0,0,1,377.67,632.313Z" transform="translate(0 1.311)" fill="#82b8e8"/>
    <path id="Tracé_19375" data-name="Tracé 19375" d="M376.039,638.842H374a.706.706,0,0,1-.7-.93l.51-2.04a1.278,1.278,0,0,1,1.16-.93h2.04a.706.706,0,0,1,.7.93l-.51,2.04A1.266,1.266,0,0,1,376.039,638.842Z" transform="translate(0 1.324)" fill="#82b8e8"/>
    <path id="Tracé_19376" data-name="Tracé 19376" d="M384.149,632.313h-2.04a.706.706,0,0,1-.7-.93l.51-2.04a1.278,1.278,0,0,1,1.16-.93h2.04a.706.706,0,0,1,.7.93l-.51,2.04A1.256,1.256,0,0,1,384.149,632.313Z" transform="translate(0 1.311)" fill="#82b8e8"/>
    <path id="Tracé_19377" data-name="Tracé 19377" d="M381.309,643.7h-2.04a.706.706,0,0,1-.7-.93l.51-2.04a1.278,1.278,0,0,1,1.16-.93h2.04a.706.706,0,0,1,.7.93l-.51,2.04A1.266,1.266,0,0,1,381.309,643.7Z" transform="translate(0 1.334)" fill="#82b8e8"/>
    <path id="Tracé_19378" data-name="Tracé 19378" d="M380.029,697.433h-67a1.079,1.079,0,0,1-1.04-1.35l6.25-24.03a1.072,1.072,0,0,1,1.04-.8h67a1.079,1.079,0,0,1,1.04,1.35l-6.25,24.03A1.072,1.072,0,0,1,380.029,697.433Z" transform="translate(0 1.433)" fill="#bfd9ff" opacity="0.9"/>
    <path id="Tracé_19379" data-name="Tracé 19379" d="M322.219,676.394h23.31" transform="translate(0 1.405)" fill="none" stroke="#a9c2ff" stroke-linecap="round" stroke-linejoin="round" stroke-miterlimit="10" stroke-width="1.076"/>
    <path id="Tracé_19380" data-name="Tracé 19380" d="M320.43,687.153h23.31" transform="translate(0 1.427)" fill="none" stroke="#a9c2ff" stroke-linecap="round" stroke-linejoin="round" stroke-miterlimit="10" stroke-width="1.076"/>
    <path id="Tracé_19381" data-name="Tracé 19381" d="M330.23,683.094h23.31" transform="translate(0 1.418)" fill="none" stroke="#a9c2ff" stroke-linecap="round" stroke-linejoin="round" stroke-miterlimit="10" stroke-width="1.076"/>
    <path id="Tracé_19382" data-name="Tracé 19382" d="M321.619,679.983h7" transform="translate(0 1.412)" fill="none" stroke="#a9c2ff" stroke-linecap="round" stroke-linejoin="round" stroke-miterlimit="10" stroke-width="1.076"/>
    <path id="Tracé_19383" data-name="Tracé 19383" d="M320.67,683.094h6.99" transform="translate(0 1.418)" fill="none" stroke="#a9c2ff" stroke-linecap="round" stroke-linejoin="round" stroke-miterlimit="10" stroke-width="1.076"/>
    <path id="Tracé_19384" data-name="Tracé 19384" d="M349.24,676.394h8.31" transform="translate(0 1.405)" fill="none" stroke="#a9c2ff" stroke-linecap="round" stroke-linejoin="round" stroke-miterlimit="10" stroke-width="1.076"/>
    <path id="Tracé_19385" data-name="Tracé 19385" d="M353.309,692.2H340.9a.094.094,0,0,1-.09-.12l.56-2.13a.1.1,0,0,1,.09-.07h12.41a.094.094,0,0,1,.09.12l-.56,2.13A.088.088,0,0,1,353.309,692.2Z" transform="translate(0 1.436)" fill="none" stroke="#84aee5" stroke-miterlimit="10" stroke-width="0.359"/>
    <path id="Tracé_19386" data-name="Tracé 19386" d="M337.889,692.2h-12.41a.094.094,0,0,1-.09-.12l.56-2.13a.1.1,0,0,1,.09-.07h12.41a.094.094,0,0,1,.09.12l-.56,2.13A.1.1,0,0,1,337.889,692.2Z" transform="translate(0 1.436)" fill="none" stroke="#84aee5" stroke-miterlimit="10" stroke-width="0.359"/>
    <path id="Tracé_19387" data-name="Tracé 19387" d="M375.119,689.114c-.64-.85-3.22-1.46-3.93-2.31a2.738,2.738,0,0,1-.28-1.92,2.816,2.816,0,0,0,.59-.47,11.43,11.43,0,0,0,.7-1.23.377.377,0,0,0,.3.12c.34-.01,1.63-1.77,1.3-2.17-.19-.23-.5-.03-.73.18.34-.78.58-1.38.58-1.38h-.01l.09-.3a2.813,2.813,0,0,0-2.79-3.72,5.068,5.068,0,0,0-4.64,3.72c-.03.1-.04.2-.06.3h-.01s-.06.6-.11,1.38c-.12-.22-.33-.42-.63-.18-.54.41-.12,2.16.21,2.17a.7.7,0,0,0,.36-.12,8.236,8.236,0,0,0,.08,1.23,1.432,1.432,0,0,0,.48.58,4.19,4.19,0,0,1-1.19,1.81c-1.14.85-4.02,1.46-5.08,2.31a9.811,9.811,0,0,0-1.96,3.43h17C375.429,692.094,375.689,689.874,375.119,689.114Z" transform="translate(0 1.428)" fill="#387ab6"/>
    <path id="Tracé_19388" data-name="Tracé 19388" d="M289.19,688.863H234.21c-4.83,0-7.76-3.91-6.56-8.74a11.93,11.93,0,0,1,10.92-8.74h54.98c4.83,0,7.76,3.91,6.56,8.74S294.01,688.863,289.19,688.863Z" transform="translate(0 1.42)" fill="#fff"/>
    <path id="Tracé_19389" data-name="Tracé 19389" d="M240.04,682.413l-2.36,1.1c-.22.1-.41-.06-.32-.28l.98-2.32a.226.226,0,0,0-.02-.24l-1.28-1.64c-.12-.15.03-.42.26-.46l2.41-.34a.368.368,0,0,0,.24-.15l1.57-2.11c.15-.2.43-.2.48,0l.52,2.11a.2.2,0,0,0,.16.15l2.25.34c.21.03.23.3.03.46l-2.1,1.64a.354.354,0,0,0-.14.24l-.18,2.32a.341.341,0,0,1-.46.28l-1.81-1.1A.232.232,0,0,0,240.04,682.413Z" transform="translate(0 1.415)" fill="#ffa402"/>
    <path id="Tracé_19390" data-name="Tracé 19390" d="M251.65,682.413l-2.36,1.1c-.22.1-.41-.06-.32-.28l.98-2.32a.226.226,0,0,0-.02-.24l-1.28-1.64c-.12-.15.03-.42.26-.46l2.41-.34a.368.368,0,0,0,.24-.15l1.57-2.11c.15-.2.43-.2.48,0l.52,2.11a.2.2,0,0,0,.16.15l2.25.34c.21.03.23.3.03.46l-2.1,1.64a.354.354,0,0,0-.14.24l-.18,2.32a.341.341,0,0,1-.46.28l-1.81-1.1A.232.232,0,0,0,251.65,682.413Z" transform="translate(0 1.415)" fill="#ffa402"/>
    <path id="Tracé_19391" data-name="Tracé 19391" d="M263.261,682.413l-2.36,1.1c-.22.1-.41-.06-.32-.28l.98-2.32a.226.226,0,0,0-.02-.24l-1.28-1.64c-.12-.15.03-.42.26-.46l2.41-.34a.368.368,0,0,0,.24-.15l1.57-2.11c.15-.2.43-.2.48,0l.52,2.11a.2.2,0,0,0,.16.15l2.25.34c.21.03.23.3.03.46l-2.1,1.64a.354.354,0,0,0-.14.24l-.18,2.32a.341.341,0,0,1-.46.28l-1.81-1.1A.232.232,0,0,0,263.261,682.413Z" transform="translate(0 1.415)" fill="#ffa402"/>
    <path id="Tracé_19392" data-name="Tracé 19392" d="M274.861,682.413l-2.36,1.1c-.22.1-.41-.06-.32-.28l.98-2.32a.226.226,0,0,0-.02-.24l-1.28-1.64c-.12-.15.03-.42.26-.46l2.41-.34a.368.368,0,0,0,.24-.15l1.57-2.11c.15-.2.43-.2.48,0l.52,2.11a.2.2,0,0,0,.16.15l2.25.34c.21.03.23.3.03.46l-2.1,1.64a.355.355,0,0,0-.14.24l-.18,2.32a.341.341,0,0,1-.46.28l-1.81-1.1A.23.23,0,0,0,274.861,682.413Z" transform="translate(0 1.415)" fill="#ffa402"/>
    <path id="Tracé_19393" data-name="Tracé 19393" d="M286.47,682.413l-2.36,1.1c-.22.1-.41-.06-.32-.28l.98-2.32a.226.226,0,0,0-.02-.24l-1.28-1.64c-.12-.15.03-.42.26-.46l2.41-.34a.368.368,0,0,0,.24-.15l1.57-2.11c.15-.2.43-.2.48,0l.52,2.11a.2.2,0,0,0,.16.15l2.25.34c.21.03.23.3.03.46l-2.1,1.64a.354.354,0,0,0-.14.24l-.18,2.32a.341.341,0,0,1-.46.28l-1.81-1.1A.232.232,0,0,0,286.47,682.413Z" transform="translate(0 1.415)" fill="#ffa402"/>
    <path id="Tracé_19394" data-name="Tracé 19394" d="M154,655.153c2.507,0,4.54-2.838,4.54-6.34s-2.033-6.34-4.54-6.34-4.54,2.839-4.54,6.34S151.492,655.153,154,655.153Z" transform="translate(0 1.352)" fill="#ff8177"/>
    <path id="Tracé_19395" data-name="Tracé 19395" d="M154.689,649.363s12.67,14.05,12.67,16.25-4.13,1.93-4.13,1.93" transform="translate(0 1.375)" fill="none" stroke="#ff8177" stroke-miterlimit="10" stroke-width="1.102"/>
    <path id="Tracé_19396" data-name="Tracé 19396" d="M164.2,667.543a1.65,1.65,0,1,1-1.65-1.65A1.652,1.652,0,0,1,164.2,667.543Z" transform="translate(0 1.388)"/>
    <path id="Tracé_19397" data-name="Tracé 19397" d="M132.16,831.973c4.5,7.76,18.62,13.43,35.35,13.43s30.85-5.67,35.35-13.43Z" transform="translate(0 2)" fill="#17233f"/>
    <path id="Tracé_19398" data-name="Tracé 19398" d="M227.6,792.143l-8.49,39.12h-5.18l4.71-38.18Z" transform="translate(0 2)" fill="#404a69"/>
    <path id="Tracé_19399" data-name="Tracé 19399" d="M243.149,795.443h-75.94v-9.43h68.4a7.545,7.545,0,0,1,7.54,7.54Z" transform="translate(0 2)" fill="#404a69"/>
    <path id="Tracé_19400" data-name="Tracé 19400" d="M105.069,827.023l-18.38-88.39a5.659,5.659,0,0,1,5.54-6.81h60.82a7.065,7.065,0,0,1,6.92,5.63l18.62,89.57" transform="translate(0 2)" fill="#404a69"/>
    <path id="Tracé_19401" data-name="Tracé 19401" d="M229.959,836.713H114.469a8.766,8.766,0,0,1-8.42-6.31l-.99-3.38h124.9Z" transform="translate(0 2)" fill="#404a69"/>
    <path id="Tracé_19402" data-name="Tracé 19402" d="M173.161,841.163h-9.19v82h9.19Z" transform="translate(0 2)" fill="#e2e7ff"/>
    <path id="Tracé_19403" data-name="Tracé 19403" d="M173.161,856.353l-9.19,7.43v-22.62h9.19Z" transform="translate(0 2)" fill="#17233f"/>
    <path id="Tracé_19404" data-name="Tracé 19404" d="M172.879,910.943h-7.56l-34.45,13.67h76.46Z" transform="translate(0 2)" fill="#e2e7ff"/>
    <path id="Tracé_19405" data-name="Tracé 19405" d="M94.789,737.863h54.66" transform="translate(0 1.532)" fill="none" stroke="#5d73a8" stroke-miterlimit="10" stroke-width="1"/>
    <path id="Tracé_19406" data-name="Tracé 19406" d="M155.119,744.2l9.33,47" transform="translate(0 1.625)" fill="none" stroke="#5d73a8" stroke-miterlimit="10" stroke-width="1"/>
    <path id="Tracé_19407" data-name="Tracé 19407" d="M166.119,799.533l2,13.67" transform="translate(0 2)" fill="none" stroke="#5d73a8" stroke-miterlimit="10" stroke-width="1"/>
    <path id="Tracé_19408" data-name="Tracé 19408" d="M420.959,658.863h-44.02a3.7,3.7,0,0,1-3.65-4.27l.33-2.11a3.689,3.689,0,0,1,3.65-3.12h44.02a3.7,3.7,0,0,1,3.65,4.27l-.33,2.11A3.689,3.689,0,0,1,420.959,658.863Z" transform="translate(0 1.362)" fill="#82b8e8"/>
    <path id="Tracé_19409" data-name="Tracé 19409" d="M378.789,654.2h38" transform="translate(0 1.359)" fill="none" stroke="#fff" stroke-miterlimit="10" stroke-width="2"/>
    <path id="Tracé_19410" data-name="Tracé 19410" d="M260.62,604.2h-12c-5.71,0-11.32,4.63-12.53,10.33s2.43,10.33,8.14,10.33h2.6a9.593,9.593,0,0,0,9.79,6,13.206,13.206,0,0,1-1.57-6h1.18c5.71,0,11.32-4.63,12.53-10.33S266.33,604.2,260.62,604.2Z" transform="translate(0 1.291)" fill="#ff634d"/>
    <path id="Tracé_19411" data-name="Tracé 19411" d="M243.52,612.533h11.33" transform="translate(0 1.272)" fill="none" stroke="#fff" stroke-miterlimit="10" stroke-width="2"/>
    <path id="Tracé_19412" data-name="Tracé 19412" d="M242.559,617.033h18.42" transform="translate(0 1.281)" fill="none" stroke="#fff" stroke-miterlimit="10" stroke-width="2"/>
    <path id="Tracé_19413" data-name="Tracé 19413" d="M263.055,634.657l.859-.014,2.1,4.9h.069l1.939-4.969.859-.014.1,5.945-.674.011L268.234,636h-.058l-1.783,4.548-.65.011-1.933-4.486h-.058l.075,4.517-.673.011Zm9.092,5.89a1.883,1.883,0,0,1-1.786-1.063,2.724,2.724,0,0,1-.273-1.2,2.76,2.76,0,0,1,.232-1.221,1.882,1.882,0,0,1,1.75-1.124A1.881,1.881,0,0,1,273.854,637a3.009,3.009,0,0,1,.04,2.424,1.885,1.885,0,0,1-1.747,1.121Zm-.01-.616a1.174,1.174,0,0,0,.75-.248,1.388,1.388,0,0,0,.429-.625,2.509,2.509,0,0,0-.028-1.664,1.407,1.407,0,0,0-.449-.617,1.317,1.317,0,0,0-1.509.025,1.4,1.4,0,0,0-.428.632,2.5,2.5,0,0,0,.027,1.663,1.392,1.392,0,0,0,.449.612A1.18,1.18,0,0,0,272.137,639.931Zm3.715-2.222.045,2.682-.685.012-.074-4.459.662-.011.011.7h.058a1.279,1.279,0,0,1,.467-.553,1.483,1.483,0,0,1,.821-.223,1.63,1.63,0,0,1,.8.173,1.248,1.248,0,0,1,.537.548,2.067,2.067,0,0,1,.205.938l.047,2.833-.685.012-.047-2.787a1.155,1.155,0,0,0-.286-.815.967.967,0,0,0-.754-.283,1.186,1.186,0,0,0-.584.152,1.013,1.013,0,0,0-.4.422A1.381,1.381,0,0,0,275.852,637.709Zm4.235,2.613-.1-5.946.685-.011.037,2.2h.058c.049-.079.117-.178.2-.3a1.244,1.244,0,0,1,.383-.332,1.413,1.413,0,0,1,.689-.156,1.77,1.77,0,0,1,1,.265,1.867,1.867,0,0,1,.684.787,2.857,2.857,0,0,1,.262,1.216,2.911,2.911,0,0,1-.221,1.232,1.908,1.908,0,0,1-.654.812,1.75,1.75,0,0,1-.98.3,1.421,1.421,0,0,1-.69-.131,1.285,1.285,0,0,1-.4-.321c-.094-.123-.168-.224-.219-.3l-.082,0,.012.685Zm.636-2.241a2.489,2.489,0,0,0,.163.889,1.348,1.348,0,0,0,.443.594,1.243,1.243,0,0,0,1.413-.035,1.4,1.4,0,0,0,.426-.623,2.431,2.431,0,0,0,.133-.868,2.341,2.341,0,0,0-.159-.845,1.312,1.312,0,0,0-.443-.594,1.277,1.277,0,0,0-1.425.012,1.269,1.269,0,0,0-.42.594A2.41,2.41,0,0,0,280.723,638.081Zm5.662,2.241a1.8,1.8,0,0,1-.772-.147,1.266,1.266,0,0,1-.772-1.2,1.146,1.146,0,0,1,.141-.624,1.068,1.068,0,0,1,.4-.384,2.127,2.127,0,0,1,.554-.213c.2-.049.41-.09.617-.12q.405-.059.658-.089a1.05,1.05,0,0,0,.37-.1.245.245,0,0,0,.115-.235v-.023a.909.909,0,0,0-.246-.664.946.946,0,0,0-.709-.226,1.225,1.225,0,0,0-.766.228,1.251,1.251,0,0,0-.384.465l-.655-.222a1.561,1.561,0,0,1,.454-.64,1.752,1.752,0,0,1,.634-.33,2.612,2.612,0,0,1,.683-.1,2.646,2.646,0,0,1,.495.044,1.558,1.558,0,0,1,.546.2,1.2,1.2,0,0,1,.446.466,1.754,1.754,0,0,1,.189.844l.048,2.938-.685.012-.01-.6H287.7a1.168,1.168,0,0,1-.227.315,1.343,1.343,0,0,1-.428.289A1.663,1.663,0,0,1,286.385,640.322Zm.1-.617a1.368,1.368,0,0,0,.682-.171,1.091,1.091,0,0,0,.417-.42,1.041,1.041,0,0,0,.136-.533l-.01-.627a.414.414,0,0,1-.19.1q-.144.042-.336.078c-.125.021-.248.041-.367.058l-.287.04a2.592,2.592,0,0,0-.5.121.861.861,0,0,0-.367.236.579.579,0,0,0-.133.414.616.616,0,0,0,.273.536A1.192,1.192,0,0,0,286.48,639.705Zm3.2.458-.074-4.46.662-.011.011.674h.046a1.072,1.072,0,0,1,.433-.544,1.292,1.292,0,0,1,.716-.218h.189q.114,0,.171.006l.012.7c-.023-.005-.077-.013-.16-.023a1.446,1.446,0,0,0-.259-.016,1.2,1.2,0,0,0-.578.146,1.033,1.033,0,0,0-.395.378,1,1,0,0,0-.136.539l.047,2.822Zm3.042-.051-.074-4.459.662-.011.011.673h.046a1.074,1.074,0,0,1,.433-.545,1.3,1.3,0,0,1,.716-.218h.189q.113,0,.171.006l.012.7c-.024-.006-.077-.014-.16-.024a1.653,1.653,0,0,0-.259-.016,1.211,1.211,0,0,0-.578.146,1.032,1.032,0,0,0-.4.378,1.01,1.01,0,0,0-.136.54l.047,2.822Zm4.355.032A1.8,1.8,0,0,1,296.3,640a1.266,1.266,0,0,1-.772-1.2,1.144,1.144,0,0,1,.141-.623,1.063,1.063,0,0,1,.4-.385,2.16,2.16,0,0,1,.554-.212c.205-.05.41-.09.617-.121q.405-.059.658-.089a1.01,1.01,0,0,0,.37-.1.245.245,0,0,0,.115-.234v-.023a.907.907,0,0,0-.246-.664.946.946,0,0,0-.709-.227,1.238,1.238,0,0,0-.766.228,1.251,1.251,0,0,0-.384.465l-.655-.221a1.565,1.565,0,0,1,.454-.641,1.752,1.752,0,0,1,.634-.33,2.7,2.7,0,0,1,.683-.1,2.732,2.732,0,0,1,.495.044,1.6,1.6,0,0,1,.546.2,1.209,1.209,0,0,1,.446.466,1.758,1.758,0,0,1,.189.845l.048,2.938-.685.011-.01-.6h-.035a1.184,1.184,0,0,1-.227.315,1.326,1.326,0,0,1-.428.288A1.645,1.645,0,0,1,297.075,640.144Zm.1-.617a1.347,1.347,0,0,0,.682-.171,1.082,1.082,0,0,0,.417-.419,1.042,1.042,0,0,0,.136-.534l-.01-.627a.415.415,0,0,1-.19.1,3.023,3.023,0,0,1-.336.078c-.125.022-.248.041-.367.059s-.214.028-.287.039a2.592,2.592,0,0,0-.5.122.86.86,0,0,0-.367.235.581.581,0,0,0-.133.415.614.614,0,0,0,.273.535A1.184,1.184,0,0,0,297.17,639.527Zm3.7.5a.527.527,0,1,1,.446-.268.531.531,0,0,1-.186.194A.49.49,0,0,1,300.868,640.023Zm3.564-.012a1.868,1.868,0,0,1-1.8-1.083,3.015,3.015,0,0,1-.034-2.386,1.988,1.988,0,0,1,.689-.828,1.888,1.888,0,0,1,1.052-.313,1.989,1.989,0,0,1,.851.16,1.628,1.628,0,0,1,.626.477,1.523,1.523,0,0,1,.311.727l-.685.011a1.057,1.057,0,0,0-.357-.534,1.042,1.042,0,0,0-.724-.226,1.2,1.2,0,0,0-.7.221,1.354,1.354,0,0,0-.458.591,2.173,2.173,0,0,0-.151.882,2.293,2.293,0,0,0,.178.9,1.381,1.381,0,0,0,.474.587,1.2,1.2,0,0,0,.712.2,1.211,1.211,0,0,0,.483-.1.992.992,0,0,0,.365-.273,1.032,1.032,0,0,0,.208-.422l.685-.011a1.585,1.585,0,0,1-.869,1.225A1.941,1.941,0,0,1,304.432,640.011Zm4.567-.076a1.887,1.887,0,0,1-1.786-1.062,2.728,2.728,0,0,1-.273-1.2,2.764,2.764,0,0,1,.233-1.221,1.954,1.954,0,0,1,3.533-.058,2.714,2.714,0,0,1,.275,1.212,2.682,2.682,0,0,1-.235,1.212A1.885,1.885,0,0,1,309,639.935Zm-.01-.616a1.176,1.176,0,0,0,.751-.247,1.4,1.4,0,0,0,.428-.626,2.506,2.506,0,0,0-.028-1.663,1.4,1.4,0,0,0-.449-.617,1.313,1.313,0,0,0-1.509.025,1.4,1.4,0,0,0-.428.631,2.5,2.5,0,0,0,.027,1.664,1.389,1.389,0,0,0,.449.611A1.18,1.18,0,0,0,308.989,639.319Zm3.075.472-.074-4.459.662-.011.011.7h.058a1.119,1.119,0,0,1,.441-.562,1.35,1.35,0,0,1,.743-.213,1.276,1.276,0,0,1,.738.188,1.319,1.319,0,0,1,.471.547h.046a1.3,1.3,0,0,1,.505-.557,1.564,1.564,0,0,1,.818-.22,1.333,1.333,0,0,1,.984.358,1.559,1.559,0,0,1,.4,1.152l.05,2.985-.686.011-.049-2.984a.846.846,0,0,0-.282-.7,1,1,0,0,0-.639-.2.938.938,0,0,0-.724.3,1.02,1.02,0,0,0-.247.718l.049,2.9-.7.011-.051-3.054a.8.8,0,0,0-.257-.608.885.885,0,0,0-.64-.225.931.931,0,0,0-.5.151,1.075,1.075,0,0,0-.366.4,1.162,1.162,0,0,0-.129.58l.046,2.787Z" transform="translate(0 1.326)" fill="#3679c1"/>
  </g>
  <path id="Tracé_19414" data-name="Tracé 19414" d="M62.528,277h6.151V264.983H80.511v-5.071H68.679V252.98H81.79v-5.071H62.528Zm23.285,0h6.051V255.182H85.813Zm3.04-24.631a3.068,3.068,0,1,0-3.267-3.068A3.188,3.188,0,0,0,88.853,252.369Zm13.91,12.017c.014-2.812,1.69-4.46,4.133-4.46s3.892,1.591,3.878,4.262V277h6.051V263.108c0-5.085-2.983-8.21-7.528-8.21-3.239,0-5.583,1.591-6.563,4.133h-.255v-3.849H96.712V277h6.051Zm26.871,12.969a6.448,6.448,0,0,0,6.193-3.849h.256V277h5.966V247.909h-6.037v10.938h-.185a6.426,6.426,0,0,0-6.207-3.949c-4.787,0-8.835,3.721-8.835,11.221C120.785,273.42,124.663,277.355,129.634,277.355Zm1.918-4.815c-2.969,0-4.588-2.642-4.588-6.449,0-3.779,1.591-6.378,4.588-6.378,2.94,0,4.588,2.486,4.588,6.378S134.464,272.54,131.552,272.54Zm28.466,12.642c4.5,0,6.889-2.3,8.125-5.824l8.48-24.148-6.406-.028-4.56,16.023h-.227l-4.517-16.023h-6.364l7.827,22.443-.355.923c-.8,2.046-2.316,2.145-4.446,1.492l-1.364,4.517A10.452,10.452,0,0,0,160.018,285.182Zm28.817-7.756c6.62,0,10.739-4.531,10.739-11.25,0-6.761-4.119-11.278-10.739-11.278S178.1,259.415,178.1,266.176C178.1,272.895,182.216,277.426,188.835,277.426Zm.029-4.687c-3.054,0-4.617-2.8-4.617-6.605s1.563-6.62,4.617-6.62c3,0,4.559,2.813,4.559,6.62S191.861,272.739,188.864,272.739ZM217.5,267.71a4.11,4.11,0,0,1-4.162,4.46c-2.287,0-3.764-1.605-3.778-4.176V255.182h-6.051v13.892c.014,5.1,3,8.21,7.386,8.21a6.7,6.7,0,0,0,6.619-4.247h.227V277h5.81V255.182H217.5ZM228.391,277h6.051V264.656a4.406,4.406,0,0,1,4.631-4.531,10.162,10.162,0,0,1,2.557.327v-5.37a9.142,9.142,0,0,0-1.9-.213,5.3,5.3,0,0,0-5.242,4.12h-.227v-3.807h-5.867Zm25.739,0H260.1v-3.494h.27a6.448,6.448,0,0,0,6.193,3.849c4.972,0,8.849-3.935,8.849-11.236,0-7.5-4.048-11.221-8.835-11.221a6.427,6.427,0,0,0-6.207,3.949h-.185V247.909H254.13Zm5.923-10.909c0-3.892,1.648-6.378,4.588-6.378,3,0,4.588,2.6,4.588,6.378,0,3.807-1.619,6.449-4.588,6.449C261.729,272.54,260.053,269.983,260.053,266.091Zm29.336,11.335c5.4,0,9.034-2.628,9.887-6.676l-5.6-.369a4.108,4.108,0,0,1-4.19,2.528c-3.026,0-4.944-2-4.944-5.256v-.014H299.4v-1.662c0-7.415-4.488-11.079-10.255-11.079-6.421,0-10.583,4.559-10.583,11.292C278.565,273.108,282.67,277.426,289.389,277.426Zm-4.844-13.537a4.608,4.608,0,0,1,4.7-4.474,4.3,4.3,0,0,1,4.46,4.474Zm36.961-2.486c-.54-4.019-3.779-6.505-9.29-6.505-5.582,0-9.261,2.585-9.247,6.79-.014,3.267,2.045,5.383,6.307,6.235l3.778.753c1.9.384,2.77,1.08,2.8,2.173-.028,1.293-1.434,2.216-3.551,2.216-2.159,0-3.594-.923-3.963-2.7l-5.952.313c.569,4.176,4.12,6.747,9.9,6.747,5.653,0,9.7-2.883,9.716-7.187-.014-3.154-2.074-5.043-6.307-5.909l-3.949-.8c-2.031-.44-2.784-1.136-2.77-2.187-.014-1.307,1.463-2.159,3.338-2.159a3.408,3.408,0,0,1,3.651,2.556Zm15.912-6.221h-4.105v-5.227h-6.051v5.227h-2.983v4.545h2.983v11.364c-.028,4.275,2.884,6.392,7.273,6.207a11.778,11.778,0,0,0,3.281-.568l-.952-4.5a8.238,8.238,0,0,1-1.505.2c-1.208,0-2.046-.454-2.046-2.131V259.727h4.105Zm13.2,0v22.8c0,1.648-.7,2.472-2.642,2.472a7.845,7.845,0,0,1-.8-.029v4.73c.441.015.8.029,1.222.029,5.142,0,8.267-2.046,8.267-7.1v-22.9Zm3.011-2.813a3.067,3.067,0,1,0-3.267-3.068A3.189,3.189,0,0,0,353.629,252.369Zm17.745,25.057c6.62,0,10.739-4.531,10.739-11.25,0-6.761-4.119-11.278-10.739-11.278s-10.738,4.517-10.738,11.278C360.636,272.895,364.755,277.426,371.374,277.426Zm.029-4.687c-3.054,0-4.617-2.8-4.617-6.605s1.563-6.62,4.617-6.62c3,0,4.559,2.813,4.559,6.62S374.4,272.739,371.4,272.739ZM386.161,277h5.966v-3.494h.27a6.448,6.448,0,0,0,6.193,3.849c4.972,0,8.85-3.935,8.85-11.236,0-7.5-4.049-11.221-8.836-11.221a6.428,6.428,0,0,0-6.207,3.949h-.185V247.909h-6.051Zm5.924-10.909c0-3.892,1.647-6.378,4.588-6.378,3,0,4.588,2.6,4.588,6.378,0,3.807-1.62,6.449-4.588,6.449C393.761,272.54,392.085,269.983,392.085,266.091ZM68.636,321.412c3.224,0,5.313-1.406,6.378-3.438h.171V321h5.739V306.284c0-5.2-4.4-7.386-9.261-7.386-5.227,0-8.665,2.5-9.5,6.477l5.6.455c.412-1.449,1.7-2.515,3.878-2.515,2.06,0,3.239,1.037,3.239,2.827v.085c0,1.407-1.492,1.591-5.284,1.961-4.318.4-8.2,1.846-8.2,6.718C61.392,319.224,64.474,321.412,68.636,321.412Zm1.733-4.176c-1.861,0-3.2-.867-3.2-2.529,0-1.7,1.406-2.542,3.537-2.841a14.529,14.529,0,0,0,4.2-.98V313.2C74.915,315.489,73.026,317.236,70.369,317.236Zm21.3-25.327H85.618V321h6.051Zm10.9,0H96.516V321h6.051Zm20.327,29.5c3.225,0,5.313-1.406,6.378-3.438h.17V321h5.739V306.284c0-5.2-4.4-7.386-9.261-7.386-5.228,0-8.665,2.5-9.5,6.477l5.6.455c.412-1.449,1.705-2.515,3.878-2.515,2.06,0,3.239,1.037,3.239,2.827v.085c0,1.407-1.492,1.591-5.284,1.961-4.318.4-8.2,1.846-8.2,6.718C115.65,319.224,118.732,321.412,122.894,321.412Zm1.733-4.176c-1.861,0-3.2-.867-3.2-2.529,0-1.7,1.406-2.542,3.537-2.841a14.536,14.536,0,0,0,4.205-.98V313.2C129.173,315.489,127.283,317.236,124.627,317.236ZM139.876,321h6.051V308.656a4.405,4.405,0,0,1,4.631-4.531,10.154,10.154,0,0,1,2.556.327v-5.37a9.126,9.126,0,0,0-1.9-.213,5.3,5.3,0,0,0-5.242,4.12h-.227v-3.807h-5.866Zm25.209.426c6.62,0,10.739-4.531,10.739-11.25,0-6.761-4.119-11.278-10.739-11.278s-10.738,4.517-10.738,11.278C154.347,316.895,158.466,321.426,165.085,321.426Zm.029-4.687c-3.054,0-4.617-2.8-4.617-6.605s1.563-6.62,4.617-6.62c3,0,4.559,2.813,4.559,6.62S168.111,316.739,165.114,316.739Zm28.636-5.029a4.11,4.11,0,0,1-4.162,4.46c-2.287,0-3.764-1.605-3.778-4.176V299.182h-6.051v13.892c.014,5.1,3,8.21,7.386,8.21a6.7,6.7,0,0,0,6.619-4.247h.227V321h5.81V299.182H193.75Zm16.942-3.324c.015-2.812,1.691-4.46,4.134-4.46s3.892,1.591,3.878,4.262V321h6.051V307.108c0-5.085-2.983-8.21-7.528-8.21-3.239,0-5.583,1.591-6.563,4.133h-.256v-3.849h-5.767V321h6.051Zm26.872,12.969a6.448,6.448,0,0,0,6.193-3.849h.256V321h5.966V291.909h-6.037v10.938h-.185a6.428,6.428,0,0,0-6.207-3.949c-4.787,0-8.836,3.721-8.836,11.221C228.714,317.42,232.592,321.355,237.564,321.355Zm1.918-4.815c-2.969,0-4.589-2.642-4.589-6.449,0-3.779,1.591-6.378,4.589-6.378,2.94,0,4.588,2.486,4.588,6.378S242.393,316.54,239.482,316.54Zm36.335-17.358h-4.1v-5.227h-6.051v5.227h-2.983v4.545h2.983v11.364c-.029,4.275,2.883,6.392,7.272,6.207a11.762,11.762,0,0,0,3.281-.568l-.951-4.5a8.264,8.264,0,0,1-1.506.2c-1.207,0-2.045-.454-2.045-2.131V303.727h4.1Zm10.461,9.2c.015-2.812,1.733-4.46,4.2-4.46,2.457,0,3.906,1.577,3.892,4.262V321h6.051V307.108c.014-5.114-3-8.21-7.542-8.21-3.31,0-5.526,1.562-6.52,4.133h-.256V291.909h-5.881V321h6.051Zm28.853,13.04c5.4,0,9.034-2.628,9.887-6.676l-5.6-.369a4.108,4.108,0,0,1-4.19,2.528c-3.026,0-4.943-2-4.943-5.256v-.014h14.858v-1.662c0-7.415-4.489-11.079-10.256-11.079-6.421,0-10.582,4.559-10.582,11.292C304.308,317.108,308.413,321.426,315.131,321.426Zm-4.843-13.537a4.607,4.607,0,0,1,4.7-4.474,4.3,4.3,0,0,1,4.461,4.474ZM66.719,365h6.392l3.75-13.722h.27L80.881,365h6.406l5.923-21.818H87.1l-3.324,14.574h-.185l-3.58-14.574H74.006l-3.523,14.659h-.2L66.9,343.182H60.781Zm39.03.426c6.62,0,10.739-4.531,10.739-11.25,0-6.761-4.119-11.278-10.739-11.278s-10.738,4.517-10.738,11.278C95.011,360.895,99.13,365.426,105.749,365.426Zm.029-4.687c-3.054,0-4.617-2.8-4.617-6.605s1.563-6.62,4.617-6.62c3,0,4.559,2.813,4.559,6.62S108.775,360.739,105.778,360.739ZM120.423,365h6.051V352.656a4.4,4.4,0,0,1,4.63-4.531,10.162,10.162,0,0,1,2.557.327v-5.37a9.134,9.134,0,0,0-1.9-.213,5.3,5.3,0,0,0-5.242,4.12h-.227v-3.807h-5.866Zm22.418-29.091H136.79V365h6.051Zm12.887,29.446a6.448,6.448,0,0,0,6.193-3.849h.256V365h5.966V335.909h-6.037v10.938h-.185a6.427,6.427,0,0,0-6.207-3.949c-4.787,0-8.835,3.721-8.835,11.221C146.879,361.42,150.756,365.355,155.728,365.355Zm1.918-4.815c-2.969,0-4.588-2.642-4.588-6.449,0-3.779,1.59-6.378,4.588-6.378,2.94,0,4.588,2.486,4.588,6.378S160.558,360.54,157.646,360.54Z" transform="translate(0 0.584)" fill="#fff"/>
  <path id="Tracé_19415" data-name="Tracé 19415" d="M63.963,412l-3.58-13.091h1.611l2.736,10.662h.128l2.787-10.662h1.79l2.787,10.662h.128l2.736-10.662H76.7L73.117,412H71.48l-2.889-10.432h-.1L65.6,412Zm17.706.2a4.615,4.615,0,0,1-2.448-.627,4.207,4.207,0,0,1-1.579-1.764,6.02,6.02,0,0,1-.55-2.646,6.1,6.1,0,0,1,.55-2.659,4.332,4.332,0,0,1,1.547-1.8,4.152,4.152,0,0,1,2.327-.652,4.64,4.64,0,0,1,1.515.256,3.74,3.74,0,0,1,1.361.831,3.975,3.975,0,0,1,.978,1.508,6.434,6.434,0,0,1,.364,2.314v.639H78.166v-1.3H84.2a3.22,3.22,0,0,0-.332-1.483,2.512,2.512,0,0,0-.933-1.029,2.617,2.617,0,0,0-1.419-.377,2.7,2.7,0,0,0-1.56.448,2.942,2.942,0,0,0-1,1.15,3.379,3.379,0,0,0-.352,1.521v.87a4.21,4.21,0,0,0,.383,1.885,2.761,2.761,0,0,0,1.08,1.17,3.168,3.168,0,0,0,1.6.4,3.26,3.26,0,0,0,1.074-.166,2.3,2.3,0,0,0,.837-.511,2.325,2.325,0,0,0,.543-.857l1.457.409a3.227,3.227,0,0,1-.773,1.3,3.771,3.771,0,0,1-1.342.87A4.991,4.991,0,0,1,81.669,412.2ZM94.6,406.094V412H93.092V398.909H94.6v4.807h.128a2.774,2.774,0,0,1,1.035-1.208,3.349,3.349,0,0,1,1.854-.454,3.671,3.671,0,0,1,1.758.4,2.708,2.708,0,0,1,1.17,1.221,4.532,4.532,0,0,1,.422,2.083V412H99.458v-6.136a2.523,2.523,0,0,0-.607-1.809,2.165,2.165,0,0,0-1.668-.646,2.781,2.781,0,0,0-1.33.313,2.294,2.294,0,0,0-.92.914A2.974,2.974,0,0,0,94.6,406.094Zm13.243,6.111a4.614,4.614,0,0,1-2.448-.627,4.207,4.207,0,0,1-1.579-1.764,6.011,6.011,0,0,1-.55-2.646,6.091,6.091,0,0,1,.55-2.659,4.33,4.33,0,0,1,1.547-1.8,4.151,4.151,0,0,1,2.326-.652,4.636,4.636,0,0,1,1.515.256,3.739,3.739,0,0,1,1.362.831,3.977,3.977,0,0,1,.978,1.508,6.432,6.432,0,0,1,.364,2.314v.639H104.34v-1.3h6.034a3.227,3.227,0,0,0-.332-1.483,2.517,2.517,0,0,0-.934-1.029,2.614,2.614,0,0,0-1.419-.377,2.7,2.7,0,0,0-1.559.448,2.945,2.945,0,0,0-1,1.15,3.384,3.384,0,0,0-.351,1.521v.87a4.219,4.219,0,0,0,.383,1.885,2.762,2.762,0,0,0,1.08,1.17,3.17,3.17,0,0,0,1.605.4,3.263,3.263,0,0,0,1.074-.166,2.29,2.29,0,0,0,.837-.511,2.317,2.317,0,0,0,.543-.857l1.458.409a3.226,3.226,0,0,1-.774,1.3,3.765,3.765,0,0,1-1.342.87A4.99,4.99,0,0,1,107.843,412.2Zm7.868-13.3V412H114.2V398.909Zm2.763,16.773v-13.5h1.458v1.559h.179q.167-.255.46-.652a2.688,2.688,0,0,1,.857-.715,3.082,3.082,0,0,1,1.521-.32,3.9,3.9,0,0,1,2.186.62,4.121,4.121,0,0,1,1.477,1.758,6.306,6.306,0,0,1,.53,2.684,6.385,6.385,0,0,1-.53,2.7,4.188,4.188,0,0,1-1.471,1.765,3.844,3.844,0,0,1-2.167.62,3.136,3.136,0,0,1-1.514-.314,2.8,2.8,0,0,1-.876-.722c-.205-.273-.362-.5-.473-.678h-.128v5.191Zm1.483-8.591a5.463,5.463,0,0,0,.326,1.962,2.96,2.96,0,0,0,.953,1.323,2.738,2.738,0,0,0,3.113-.025,3.063,3.063,0,0,0,.959-1.355,5.325,5.325,0,0,0,.326-1.9,5.171,5.171,0,0,0-.32-1.867,2.887,2.887,0,0,0-.952-1.323,2.809,2.809,0,0,0-3.139-.025,2.8,2.8,0,0,0-.946,1.291A5.309,5.309,0,0,0,119.957,407.091Zm15.52,8.591a3.288,3.288,0,0,1-.684-.064,1.81,1.81,0,0,1-.415-.115l.383-1.33a2.919,2.919,0,0,0,.972.1,1.169,1.169,0,0,0,.748-.378,3,3,0,0,0,.607-1.08l.281-.767-3.63-9.869h1.636l2.71,7.824h.1l2.71-7.824h1.636l-4.168,11.25a4.238,4.238,0,0,1-.7,1.259,2.611,2.611,0,0,1-.965.748A2.981,2.981,0,0,1,135.477,415.682Zm12.685-3.477a4.148,4.148,0,0,1-3.892-2.4,5.984,5.984,0,0,1-.557-2.659,6.057,6.057,0,0,1,.557-2.678,4.423,4.423,0,0,1,6.219-1.777,4.234,4.234,0,0,1,1.56,1.777,6,6,0,0,1,.562,2.678,5.93,5.93,0,0,1-.562,2.659,4.15,4.15,0,0,1-3.887,2.4Zm0-1.356a2.588,2.588,0,0,0,1.662-.517,3.041,3.041,0,0,0,.965-1.362,5.5,5.5,0,0,0,0-3.662,3.086,3.086,0,0,0-.965-1.375,2.9,2.9,0,0,0-3.324,0,3.1,3.1,0,0,0-.965,1.375,5.512,5.512,0,0,0,0,3.662,3.056,3.056,0,0,0,.965,1.362A2.592,2.592,0,0,0,148.162,410.849Zm12.939-2.863v-5.8h1.509V412H161.1v-1.662H161a3.213,3.213,0,0,1-1.074,1.272,3.1,3.1,0,0,1-1.841.518,3.274,3.274,0,0,1-1.636-.4,2.825,2.825,0,0,1-1.125-1.227,4.659,4.659,0,0,1-.409-2.078v-6.238h1.508v6.136a2.4,2.4,0,0,0,.6,1.713,2.042,2.042,0,0,0,1.547.639,2.56,2.56,0,0,0,1.144-.287,2.5,2.5,0,0,0,.985-.882A2.652,2.652,0,0,0,161.1,407.986Zm13.6-5.8v1.278h-5.088v-1.278Zm-3.6-2.352h1.509v9.358a1.949,1.949,0,0,0,.185.958.959.959,0,0,0,.486.422,1.953,1.953,0,0,0,.633.1,2.7,2.7,0,0,0,.409-.025l.255-.051.307,1.355a3.064,3.064,0,0,1-.428.115,3.132,3.132,0,0,1-.7.064,3.041,3.041,0,0,1-1.253-.275,2.5,2.5,0,0,1-1.01-.837,2.406,2.406,0,0,1-.4-1.419Zm9.758,12.375a4.151,4.151,0,0,1-3.893-2.4,5.984,5.984,0,0,1-.556-2.659,6.057,6.057,0,0,1,.556-2.678,4.143,4.143,0,0,1,3.893-2.41,4.143,4.143,0,0,1,3.886,2.41,6,6,0,0,1,.562,2.678,5.93,5.93,0,0,1-.562,2.659,4.15,4.15,0,0,1-3.886,2.4Zm0-1.356a2.592,2.592,0,0,0,1.662-.517,3.057,3.057,0,0,0,.965-1.362,5.512,5.512,0,0,0,0-3.662,3.1,3.1,0,0,0-.965-1.375,2.9,2.9,0,0,0-3.324,0,3.1,3.1,0,0,0-.966,1.375,5.512,5.512,0,0,0,0,3.662,3.051,3.051,0,0,0,.966,1.362A2.588,2.588,0,0,0,180.858,410.849Zm13.322-11.94V412h-1.508V398.909Zm5.652,13.321a4,4,0,0,1-1.694-.351,2.787,2.787,0,0,1-1.655-2.666,2.528,2.528,0,0,1,.332-1.368,2.344,2.344,0,0,1,.889-.831,4.686,4.686,0,0,1,1.227-.447c.452-.1.906-.183,1.362-.243q.894-.115,1.451-.173a2.222,2.222,0,0,0,.818-.211.535.535,0,0,0,.262-.511v-.051a2,2,0,0,0-.518-1.47,2.079,2.079,0,0,0-1.553-.524,2.709,2.709,0,0,0-1.694.473,2.8,2.8,0,0,0-.863,1.009l-1.432-.511a3.442,3.442,0,0,1,1.023-1.393,3.822,3.822,0,0,1,1.406-.7,5.816,5.816,0,0,1,1.509-.205,5.947,5.947,0,0,1,1.086.115,3.474,3.474,0,0,1,1.2.454,2.672,2.672,0,0,1,.965,1.042,3.869,3.869,0,0,1,.383,1.866V412h-1.508v-1.33h-.077a2.631,2.631,0,0,1-.511.684,2.942,2.942,0,0,1-.953.62A3.659,3.659,0,0,1,199.832,412.23Zm.23-1.355a2.987,2.987,0,0,0,1.509-.352,2.391,2.391,0,0,0,.933-.907,2.316,2.316,0,0,0,.32-1.17v-1.381a.9.9,0,0,1-.422.211,7.056,7.056,0,0,1-.741.16q-.415.064-.812.115t-.633.077a5.763,5.763,0,0,0-1.1.249,1.9,1.9,0,0,0-.818.5,1.29,1.29,0,0,0-.307.908,1.353,1.353,0,0,0,.582,1.189A2.612,2.612,0,0,0,200.062,410.875Zm8.532-4.781V412h-1.508v-9.818h1.457v1.534h.128a2.808,2.808,0,0,1,1.048-1.2,3.259,3.259,0,0,1,1.816-.46,3.58,3.58,0,0,1,1.745.409,2.763,2.763,0,0,1,1.163,1.227,4.561,4.561,0,0,1,.415,2.071V412H213.35v-6.136a2.542,2.542,0,0,0-.6-1.8,2.129,2.129,0,0,0-1.649-.652,2.628,2.628,0,0,0-1.291.313,2.251,2.251,0,0,0-.889.914A3.026,3.026,0,0,0,208.594,406.094Zm12.728,6.111a3.843,3.843,0,0,1-2.166-.62,4.188,4.188,0,0,1-1.471-1.765,6.385,6.385,0,0,1-.53-2.7,6.306,6.306,0,0,1,.53-2.684,4.122,4.122,0,0,1,1.477-1.758,3.9,3.9,0,0,1,2.186-.62,3.047,3.047,0,0,1,1.515.32,2.6,2.6,0,0,1,.856.715c.2.265.356.482.467.652h.128v-4.832h1.508V412h-1.457v-1.509h-.179c-.111.179-.268.4-.473.678a2.8,2.8,0,0,1-.876.722A3.138,3.138,0,0,1,221.322,412.2Zm.2-1.356a2.469,2.469,0,0,0,1.534-.473,2.951,2.951,0,0,0,.952-1.323,5.441,5.441,0,0,0,.326-1.962,5.31,5.31,0,0,0-.319-1.924,2.8,2.8,0,0,0-.946-1.291,2.819,2.819,0,0,0-3.145.025,2.946,2.946,0,0,0-.952,1.323,5.26,5.26,0,0,0-.314,1.867,5.415,5.415,0,0,0,.32,1.9,3.119,3.119,0,0,0,.959,1.355A2.5,2.5,0,0,0,221.527,410.849Zm13.3,4.833a3.274,3.274,0,0,1-.684-.064,1.822,1.822,0,0,1-.416-.115l.384-1.33a2.914,2.914,0,0,0,.972.1,1.165,1.165,0,0,0,.747-.378,3,3,0,0,0,.608-1.08l.281-.767-3.631-9.869h1.637l2.71,7.824h.1l2.71-7.824h1.637l-4.168,11.25a4.239,4.239,0,0,1-.7,1.259,2.6,2.6,0,0,1-.965.748A2.973,2.973,0,0,1,234.829,415.682Zm12.685-3.477a4.151,4.151,0,0,1-3.893-2.4,5.984,5.984,0,0,1-.556-2.659,6.057,6.057,0,0,1,.556-2.678,4.424,4.424,0,0,1,6.22-1.777,4.232,4.232,0,0,1,1.559,1.777,6,6,0,0,1,.563,2.678,5.93,5.93,0,0,1-.563,2.659,4.148,4.148,0,0,1-3.886,2.4Zm0-1.356a2.592,2.592,0,0,0,1.662-.517,3.056,3.056,0,0,0,.965-1.362,5.512,5.512,0,0,0,0-3.662,3.1,3.1,0,0,0-.965-1.375,2.9,2.9,0,0,0-3.324,0,3.094,3.094,0,0,0-.965,1.375,5.512,5.512,0,0,0,0,3.662,3.049,3.049,0,0,0,.965,1.362A2.592,2.592,0,0,0,247.514,410.849Zm12.939-2.863v-5.8h1.508V412h-1.508v-1.662h-.1a3.213,3.213,0,0,1-1.074,1.272,3.1,3.1,0,0,1-1.841.518,3.272,3.272,0,0,1-1.636-.4,2.813,2.813,0,0,1-1.125-1.227,4.658,4.658,0,0,1-.41-2.078v-6.238h1.509v6.136a2.4,2.4,0,0,0,.6,1.713,2.041,2.041,0,0,0,1.547.639,2.564,2.564,0,0,0,1.144-.287,2.5,2.5,0,0,0,.984-.882A2.645,2.645,0,0,0,260.453,407.986ZM264.724,412v-9.818h1.458v1.483h.1a2.359,2.359,0,0,1,.972-1.183,2.862,2.862,0,0,1,1.585-.454c.111,0,.249,0,.415.007s.292.01.378.019v1.534c-.052-.013-.169-.032-.352-.057a3.445,3.445,0,0,0-.569-.045,2.673,2.673,0,0,0-1.278.3,2.264,2.264,0,0,0-.882.818,2.2,2.2,0,0,0-.32,1.183V412Zm11.965,0V398.909H278.2v4.832h.128q.166-.255.46-.652a2.7,2.7,0,0,1,.857-.715,3.082,3.082,0,0,1,1.521-.32,3.9,3.9,0,0,1,2.186.62,4.121,4.121,0,0,1,1.477,1.758,6.291,6.291,0,0,1,.53,2.684,6.369,6.369,0,0,1-.53,2.7,4.193,4.193,0,0,1-1.47,1.765,3.849,3.849,0,0,1-2.167.62,3.138,3.138,0,0,1-1.515-.314,2.822,2.822,0,0,1-.876-.722q-.306-.41-.473-.678h-.179V412Zm1.483-4.909a5.442,5.442,0,0,0,.326,1.962,2.951,2.951,0,0,0,.952,1.323,2.738,2.738,0,0,0,3.113-.025,3.055,3.055,0,0,0,.959-1.355,5.325,5.325,0,0,0,.326-1.9,5.172,5.172,0,0,0-.32-1.867,2.887,2.887,0,0,0-.952-1.323,2.809,2.809,0,0,0-3.139-.025,2.8,2.8,0,0,0-.946,1.291A5.31,5.31,0,0,0,278.172,407.091ZM291.78,412.2a4.614,4.614,0,0,1-2.448-.627,4.207,4.207,0,0,1-1.579-1.764,6.025,6.025,0,0,1-.549-2.646,6.106,6.106,0,0,1,.549-2.659,4.337,4.337,0,0,1,1.547-1.8,4.155,4.155,0,0,1,2.327-.652,4.644,4.644,0,0,1,1.515.256,3.743,3.743,0,0,1,1.361.831,3.977,3.977,0,0,1,.978,1.508,6.431,6.431,0,0,1,.365,2.314v.639h-7.568v-1.3h6.034a3.215,3.215,0,0,0-.333-1.483,2.508,2.508,0,0,0-.933-1.029,2.619,2.619,0,0,0-1.419-.377,2.7,2.7,0,0,0-1.56.448,2.943,2.943,0,0,0-1,1.15,3.372,3.372,0,0,0-.352,1.521v.87a4.205,4.205,0,0,0,.384,1.885,2.762,2.762,0,0,0,1.08,1.17,3.166,3.166,0,0,0,1.6.4,3.255,3.255,0,0,0,1.074-.166,2.3,2.3,0,0,0,.838-.511,2.33,2.33,0,0,0,.543-.857l1.457.409a3.224,3.224,0,0,1-.773,1.3,3.774,3.774,0,0,1-1.342.87A5,5,0,0,1,291.78,412.2Zm10.63-10.023v1.278h-5.088v-1.278ZM298.8,399.83h1.509v9.358a1.96,1.96,0,0,0,.185.958.959.959,0,0,0,.486.422,1.953,1.953,0,0,0,.633.1,2.694,2.694,0,0,0,.409-.025l.255-.051.307,1.355a3.064,3.064,0,0,1-.428.115,3.126,3.126,0,0,1-.7.064,3.044,3.044,0,0,1-1.253-.275,2.486,2.486,0,0,1-1.009-.837,2.4,2.4,0,0,1-.4-1.419Zm10.144,2.352v1.278h-5.088v-1.278Zm-3.605-2.352h1.509v9.358a1.96,1.96,0,0,0,.185.958.959.959,0,0,0,.486.422,1.953,1.953,0,0,0,.633.1,2.694,2.694,0,0,0,.409-.025l.256-.051.306,1.355a3.064,3.064,0,0,1-.428.115,3.126,3.126,0,0,1-.7.064,3.036,3.036,0,0,1-1.252-.275,2.482,2.482,0,0,1-1.01-.837,2.4,2.4,0,0,1-.4-1.419ZM315.23,412.2a4.62,4.62,0,0,1-2.449-.627,4.205,4.205,0,0,1-1.578-1.764,6.011,6.011,0,0,1-.55-2.646,6.091,6.091,0,0,1,.55-2.659,4.328,4.328,0,0,1,1.546-1.8,4.155,4.155,0,0,1,2.327-.652,4.636,4.636,0,0,1,1.515.256,3.739,3.739,0,0,1,1.362.831,3.977,3.977,0,0,1,.978,1.508,6.454,6.454,0,0,1,.364,2.314v.639h-7.568v-1.3h6.034a3.215,3.215,0,0,0-.333-1.483,2.508,2.508,0,0,0-.933-1.029,2.614,2.614,0,0,0-1.419-.377,2.7,2.7,0,0,0-1.559.448,2.937,2.937,0,0,0-1,1.15,3.385,3.385,0,0,0-.352,1.521v.87a4.205,4.205,0,0,0,.384,1.885,2.762,2.762,0,0,0,1.08,1.17,3.168,3.168,0,0,0,1.605.4,3.253,3.253,0,0,0,1.073-.166,2.3,2.3,0,0,0,.838-.511,2.33,2.33,0,0,0,.543-.857l1.458.409a3.237,3.237,0,0,1-.774,1.3,3.774,3.774,0,0,1-1.342.87A4.994,4.994,0,0,1,315.23,412.2Zm6.36-.2v-9.818h1.457v1.483h.1a2.36,2.36,0,0,1,.972-1.183,2.865,2.865,0,0,1,1.585-.454c.111,0,.249,0,.416.007s.292.01.377.019v1.534c-.051-.013-.169-.032-.352-.057a3.436,3.436,0,0,0-.569-.045,2.673,2.673,0,0,0-1.278.3,2.264,2.264,0,0,0-.882.818,2.21,2.21,0,0,0-.32,1.183V412Zm11.759-9.818h1.509v10.534a3.653,3.653,0,0,1-.313,1.572,2.252,2.252,0,0,1-.933,1.029,3.056,3.056,0,0,1-1.567.365h-.306v-1.406h.281a1.2,1.2,0,0,0,1.01-.41,1.812,1.812,0,0,0,.319-1.15Zm.742-1.637a1.074,1.074,0,0,1-.761-.3.99.99,0,0,1,0-1.445,1.074,1.074,0,0,1,.761-.3,1.051,1.051,0,0,1,.754.3.976.976,0,0,1,0,1.445A1.051,1.051,0,0,1,334.091,400.545Zm7.519,11.66a4.148,4.148,0,0,1-3.893-2.4,5.984,5.984,0,0,1-.556-2.659,6.057,6.057,0,0,1,.556-2.678,4.141,4.141,0,0,1,3.893-2.41,4.143,4.143,0,0,1,3.886,2.41,6,6,0,0,1,.562,2.678,5.93,5.93,0,0,1-.562,2.659,4.15,4.15,0,0,1-3.886,2.4Zm0-1.356a2.587,2.587,0,0,0,1.661-.517,3.051,3.051,0,0,0,.966-1.362,5.512,5.512,0,0,0,0-3.662,3.1,3.1,0,0,0-.966-1.375,2.9,2.9,0,0,0-3.323,0,3.1,3.1,0,0,0-.966,1.375,5.512,5.512,0,0,0,0,3.662,3.051,3.051,0,0,0,.966,1.362A2.588,2.588,0,0,0,341.61,410.849ZM348.566,412V398.909h1.508v4.832h.128q.166-.255.46-.652a2.7,2.7,0,0,1,.857-.715,3.082,3.082,0,0,1,1.521-.32,3.9,3.9,0,0,1,2.186.62,4.122,4.122,0,0,1,1.477,1.758,6.306,6.306,0,0,1,.53,2.684,6.385,6.385,0,0,1-.53,2.7,4.193,4.193,0,0,1-1.47,1.765,3.849,3.849,0,0,1-2.167.62,3.138,3.138,0,0,1-1.515-.314,2.822,2.822,0,0,1-.876-.722q-.306-.41-.473-.678h-.179V412Zm1.483-4.909a5.442,5.442,0,0,0,.326,1.962,2.951,2.951,0,0,0,.952,1.323,2.738,2.738,0,0,0,3.113-.025A3.055,3.055,0,0,0,355.4,409a5.325,5.325,0,0,0,.326-1.9,5.171,5.171,0,0,0-.32-1.867,2.887,2.887,0,0,0-.952-1.323,2.809,2.809,0,0,0-3.139-.025,2.8,2.8,0,0,0-.946,1.291A5.31,5.31,0,0,0,350.049,407.091Zm18.926-4.909v1.278h-5.292v-1.278ZM365.268,412V400.827a2.385,2.385,0,0,1,.4-1.407,2.457,2.457,0,0,1,1.03-.843,3.241,3.241,0,0,1,1.335-.282,3.761,3.761,0,0,1,.908.09,3.554,3.554,0,0,1,.524.166l-.434,1.3c-.077-.025-.184-.057-.32-.1a1.955,1.955,0,0,0-.524-.057,1.369,1.369,0,0,0-1.08.377,1.643,1.643,0,0,0-.326,1.106V412Zm9.406.2a4.151,4.151,0,0,1-3.893-2.4,6,6,0,0,1-.556-2.659,6.071,6.071,0,0,1,.556-2.678,4.424,4.424,0,0,1,6.22-1.777,4.225,4.225,0,0,1,1.559,1.777,6,6,0,0,1,.563,2.678,5.93,5.93,0,0,1-.563,2.659,4.148,4.148,0,0,1-3.886,2.4Zm0-1.356a2.592,2.592,0,0,0,1.662-.517,3.049,3.049,0,0,0,.965-1.362,5.512,5.512,0,0,0,0-3.662,3.094,3.094,0,0,0-.965-1.375,2.9,2.9,0,0,0-3.324,0,3.094,3.094,0,0,0-.965,1.375,5.512,5.512,0,0,0,0,3.662,3.049,3.049,0,0,0,.965,1.362A2.592,2.592,0,0,0,374.674,410.849ZM381.426,412v-9.818h1.457v1.483h.1a2.36,2.36,0,0,1,.972-1.183,2.865,2.865,0,0,1,1.585-.454c.111,0,.249,0,.416.007s.291.01.377.019v1.534c-.051-.013-.169-.032-.352-.057a3.436,3.436,0,0,0-.569-.045,2.673,2.673,0,0,0-1.278.3,2.265,2.265,0,0,0-.882.818,2.21,2.21,0,0,0-.32,1.183V412ZM62.352,442.682a3.278,3.278,0,0,1-.684-.064,1.806,1.806,0,0,1-.416-.115l.384-1.33a2.914,2.914,0,0,0,.972.1,1.167,1.167,0,0,0,.748-.378,3,3,0,0,0,.607-1.08l.281-.767-3.631-9.869H62.25l2.71,7.824h.1l2.71-7.824h1.636l-4.168,11.25a4.25,4.25,0,0,1-.7,1.259,2.607,2.607,0,0,1-.965.748A2.975,2.975,0,0,1,62.352,442.682ZM75.037,439.2a4.15,4.15,0,0,1-3.893-2.4,5.988,5.988,0,0,1-.556-2.659,6.061,6.061,0,0,1,.556-2.678,4.424,4.424,0,0,1,6.219-1.777,4.232,4.232,0,0,1,1.56,1.777,6,6,0,0,1,.563,2.678,5.93,5.93,0,0,1-.562,2.659,4.15,4.15,0,0,1-3.886,2.4Zm0-1.356a2.59,2.59,0,0,0,1.662-.517,3.05,3.05,0,0,0,.965-1.362,5.509,5.509,0,0,0,0-3.662,3.1,3.1,0,0,0-.965-1.375,2.9,2.9,0,0,0-3.324,0,3.1,3.1,0,0,0-.965,1.375,5.507,5.507,0,0,0,0,3.662,3.05,3.05,0,0,0,.965,1.362A2.59,2.59,0,0,0,75.037,437.849Zm12.939-2.863v-5.8h1.508V439H87.976v-1.662h-.1A3.215,3.215,0,0,1,86.8,438.61a3.1,3.1,0,0,1-1.841.518,3.274,3.274,0,0,1-1.636-.4A2.821,2.821,0,0,1,82.2,437.5a4.661,4.661,0,0,1-.409-2.078v-6.238H83.3v6.136a2.4,2.4,0,0,0,.6,1.713,2.041,2.041,0,0,0,1.547.639,2.564,2.564,0,0,0,1.144-.287,2.5,2.5,0,0,0,.984-.882A2.649,2.649,0,0,0,87.976,434.986ZM92.248,439v-9.818h1.457v1.483h.1a2.36,2.36,0,0,1,.972-1.183,2.865,2.865,0,0,1,1.585-.454c.111,0,.249,0,.415.007s.292.01.377.019v1.534q-.077-.02-.352-.057a3.441,3.441,0,0,0-.569-.045,2.674,2.674,0,0,0-1.278.3,2.269,2.269,0,0,0-.882.818,2.209,2.209,0,0,0-.32,1.183V439Zm11.964,0V425.909h1.509v4.832h.128c.11-.17.264-.387.46-.652a2.694,2.694,0,0,1,.856-.715,3.084,3.084,0,0,1,1.522-.32,3.9,3.9,0,0,1,2.186.62,4.119,4.119,0,0,1,1.476,1.758,6.291,6.291,0,0,1,.531,2.684,6.369,6.369,0,0,1-.531,2.7,4.179,4.179,0,0,1-1.47,1.765,3.847,3.847,0,0,1-2.167.62,3.14,3.14,0,0,1-1.515-.314,2.806,2.806,0,0,1-.875-.722q-.308-.41-.473-.678h-.179V439Zm1.483-4.909a5.463,5.463,0,0,0,.326,1.962,2.952,2.952,0,0,0,.953,1.323,2.737,2.737,0,0,0,3.112-.025,3.048,3.048,0,0,0,.959-1.355,5.3,5.3,0,0,0,.326-1.9,5.171,5.171,0,0,0-.319-1.867,2.889,2.889,0,0,0-.953-1.323,2.807,2.807,0,0,0-3.138-.025,2.8,2.8,0,0,0-.946,1.291A5.309,5.309,0,0,0,105.695,434.091ZM119.3,439.2a4.614,4.614,0,0,1-2.448-.627,4.207,4.207,0,0,1-1.579-1.764,6.011,6.011,0,0,1-.55-2.646,6.091,6.091,0,0,1,.55-2.659,4.33,4.33,0,0,1,1.547-1.8,4.149,4.149,0,0,1,2.326-.652,4.636,4.636,0,0,1,1.515.256,3.739,3.739,0,0,1,1.362.831,3.977,3.977,0,0,1,.978,1.508,6.432,6.432,0,0,1,.364,2.314v.639H115.8v-1.3h6.034a3.227,3.227,0,0,0-.332-1.483,2.517,2.517,0,0,0-.934-1.029,2.614,2.614,0,0,0-1.419-.377,2.7,2.7,0,0,0-1.559.448,2.945,2.945,0,0,0-1,1.15,3.384,3.384,0,0,0-.351,1.521v.87a4.206,4.206,0,0,0,.383,1.885,2.762,2.762,0,0,0,1.08,1.17,3.17,3.17,0,0,0,1.605.4,3.263,3.263,0,0,0,1.074-.166,2.289,2.289,0,0,0,.837-.511,2.317,2.317,0,0,0,.543-.857l1.458.409a3.226,3.226,0,0,1-.774,1.3,3.765,3.765,0,0,1-1.342.87A4.99,4.99,0,0,1,119.3,439.2Zm10.63-10.023v1.278h-5.088v-1.278Zm-3.605-2.352h1.508v9.358a1.948,1.948,0,0,0,.186.958.953.953,0,0,0,.485.422,1.962,1.962,0,0,0,.633.1,2.685,2.685,0,0,0,.409-.025l.256-.051.307,1.355a3.086,3.086,0,0,1-.429.115,3.122,3.122,0,0,1-.7.064,3.041,3.041,0,0,1-1.253-.275,2.482,2.482,0,0,1-1.01-.837,2.406,2.406,0,0,1-.4-1.419Zm10.144,2.352v1.278h-5.088v-1.278Zm-3.605-2.352h1.508v9.358a1.948,1.948,0,0,0,.186.958.953.953,0,0,0,.485.422,1.962,1.962,0,0,0,.633.1,2.686,2.686,0,0,0,.409-.025l.256-.051.307,1.355a3.064,3.064,0,0,1-.428.115,3.138,3.138,0,0,1-.7.064,3.041,3.041,0,0,1-1.253-.275,2.482,2.482,0,0,1-1.01-.837,2.406,2.406,0,0,1-.4-1.419Zm9.885,12.375a4.614,4.614,0,0,1-2.448-.627,4.207,4.207,0,0,1-1.579-1.764,6.025,6.025,0,0,1-.55-2.646,6.106,6.106,0,0,1,.55-2.659,4.33,4.33,0,0,1,1.547-1.8,4.152,4.152,0,0,1,2.327-.652,4.644,4.644,0,0,1,1.515.256,3.743,3.743,0,0,1,1.361.831,3.977,3.977,0,0,1,.978,1.508,6.432,6.432,0,0,1,.364,2.314v.639H139.25v-1.3h6.034a3.227,3.227,0,0,0-.332-1.483,2.515,2.515,0,0,0-.933-1.029,2.619,2.619,0,0,0-1.419-.377,2.7,2.7,0,0,0-1.56.448,2.945,2.945,0,0,0-1,1.15,3.384,3.384,0,0,0-.351,1.521v.87a4.219,4.219,0,0,0,.383,1.885,2.758,2.758,0,0,0,1.081,1.17,3.166,3.166,0,0,0,1.6.4,3.263,3.263,0,0,0,1.074-.166,2.29,2.29,0,0,0,.837-.511,2.319,2.319,0,0,0,.544-.857l1.457.409a3.224,3.224,0,0,1-.773,1.3,3.778,3.778,0,0,1-1.343.87A4.986,4.986,0,0,1,142.753,439.2Zm6.36-.2v-9.818h1.457v1.483h.1a2.363,2.363,0,0,1,.971-1.183,2.868,2.868,0,0,1,1.586-.454c.11,0,.249,0,.415.007s.292.01.377.019v1.534q-.077-.02-.351-.057a3.445,3.445,0,0,0-.569-.045,2.674,2.674,0,0,0-1.279.3,2.278,2.278,0,0,0-.882.818,2.209,2.209,0,0,0-.319,1.183V439Zm16.132-9.818v1.278h-5.293v-1.278ZM161.538,439V427.827a2.385,2.385,0,0,1,.4-1.407,2.448,2.448,0,0,1,1.029-.843,3.246,3.246,0,0,1,1.336-.282,3.767,3.767,0,0,1,.908.09,3.6,3.6,0,0,1,.524.166l-.435,1.3c-.077-.025-.183-.057-.319-.1a1.963,1.963,0,0,0-.525-.057,1.372,1.372,0,0,0-1.08.377,1.648,1.648,0,0,0-.326,1.106V439Zm12.009-4.014v-5.8h1.508V439h-1.508v-1.662h-.1a3.218,3.218,0,0,1-1.073,1.272,3.1,3.1,0,0,1-1.841.518,3.278,3.278,0,0,1-1.637-.4,2.825,2.825,0,0,1-1.125-1.227,4.672,4.672,0,0,1-.409-2.078v-6.238h1.509v6.136a2.4,2.4,0,0,0,.6,1.713,2.039,2.039,0,0,0,1.546.639,2.568,2.568,0,0,0,1.145-.287,2.5,2.5,0,0,0,.984-.882A2.652,2.652,0,0,0,173.547,434.986Zm8.541-5.8v1.278H177v-1.278Zm-3.6-2.352h1.508v9.358a1.947,1.947,0,0,0,.186.958.959.959,0,0,0,.486.422,1.952,1.952,0,0,0,.632.1,2.7,2.7,0,0,0,.41-.025l.255-.051.307,1.355a3.065,3.065,0,0,1-.428.115,3.132,3.132,0,0,1-.7.064,3.041,3.041,0,0,1-1.253-.275,2.488,2.488,0,0,1-1.01-.837,2.406,2.406,0,0,1-.4-1.419Zm12.062,8.156v-5.8h1.508V439h-1.508v-1.662h-.1a3.218,3.218,0,0,1-1.073,1.272,3.1,3.1,0,0,1-1.841.518,3.278,3.278,0,0,1-1.637-.4,2.825,2.825,0,0,1-1.125-1.227,4.672,4.672,0,0,1-.409-2.078v-6.238h1.509v6.136a2.4,2.4,0,0,0,.6,1.713,2.039,2.039,0,0,0,1.546.639,2.568,2.568,0,0,0,1.145-.287,2.5,2.5,0,0,0,.984-.882A2.645,2.645,0,0,0,190.545,434.986ZM194.816,439v-9.818h1.458v1.483h.1a2.362,2.362,0,0,1,.971-1.183,2.868,2.868,0,0,1,1.586-.454c.111,0,.249,0,.415.007s.292.01.377.019v1.534q-.077-.02-.351-.057a3.444,3.444,0,0,0-.569-.045,2.677,2.677,0,0,0-1.279.3,2.278,2.278,0,0,0-.882.818,2.209,2.209,0,0,0-.319,1.183V439Zm10.515.2a4.614,4.614,0,0,1-2.448-.627,4.207,4.207,0,0,1-1.579-1.764,6.025,6.025,0,0,1-.55-2.646,6.106,6.106,0,0,1,.55-2.659,4.337,4.337,0,0,1,1.547-1.8,4.152,4.152,0,0,1,2.327-.652,4.644,4.644,0,0,1,1.515.256,3.743,3.743,0,0,1,1.361.831,3.977,3.977,0,0,1,.978,1.508,6.433,6.433,0,0,1,.364,2.314v.639h-7.568v-1.3h6.034a3.215,3.215,0,0,0-.332-1.483,2.508,2.508,0,0,0-.933-1.029,2.619,2.619,0,0,0-1.419-.377,2.7,2.7,0,0,0-1.56.448,2.934,2.934,0,0,0-1,1.15,3.372,3.372,0,0,0-.352,1.521v.87a4.219,4.219,0,0,0,.383,1.885,2.764,2.764,0,0,0,1.081,1.17,3.166,3.166,0,0,0,1.6.4,3.263,3.263,0,0,0,1.074-.166,2.29,2.29,0,0,0,.837-.511,2.319,2.319,0,0,0,.544-.857l1.457.409a3.224,3.224,0,0,1-.773,1.3,3.778,3.778,0,0,1-1.343.87A4.986,4.986,0,0,1,205.331,439.2Zm7.46-.1a1.148,1.148,0,1,1,1.15-1.15,1.079,1.079,0,0,1-.16.575,1.19,1.19,0,0,1-.415.422A1.1,1.1,0,0,1,212.791,439.1Z" transform="translate(0 0.867)" fill="#e5e4e3"/>
</svg>
